SplineFontDB: 3.0
FontName: MissFajardose-Regular
FullName: Miss Fajardose Regular
FamilyName: Miss Fajardose
Weight: Normal
Copyright: Copyright (c) 2004 Alejandro Paul (sudtipos@sudtipos.com),\nwith Reserved Font Name "MissFajardose"
Version: 001.001
ItalicAngle: 0
UnderlinePosition: -50
UnderlineWidth: 50
Ascent: 800
Descent: 200
sfntRevision: 0x00010000
LayerCount: 2
Layer: 0 1 "Back"  1
Layer: 1 1 "Fore"  0
NeedsXUIDChange: 1
XUID: [1021 288 713564382 684778]
FSType: 0
OS2Version: 2
OS2_WeightWidthSlopeOnly: 0
OS2_UseTypoMetrics: 1
CreationTime: 1322381031
ModificationTime: 1322410122
PfmFamily: 17
TTFWeight: 400
TTFWidth: 5
LineGap: 0
VLineGap: 0
Panose: 2 0 0 0 0 0 0 0 0 0
OS2TypoAscent: 859
OS2TypoAOffset: 0
OS2TypoDescent: -389
OS2TypoDOffset: 0
OS2TypoLinegap: 0
OS2WinAscent: 859
OS2WinAOffset: 0
OS2WinDescent: 389
OS2WinDOffset: 0
HheadAscent: 859
HheadAOffset: 0
HheadDescent: -389
HheadDOffset: 0
OS2SubXSize: 700
OS2SubYSize: 650
OS2SubXOff: 0
OS2SubYOff: 140
OS2SupXSize: 700
OS2SupYSize: 650
OS2SupXOff: 0
OS2SupYOff: 477
OS2StrikeYSize: 50
OS2StrikeYPos: 250
OS2Vendor: 'SUDT'
OS2CodePages: 20000001.00000000
OS2UnicodeRanges: 80000027.5000004b.00000000.00000000
Lookup: 258 0 0 "'kern' Horizontal Kerning in Latin lookup 0"  {"'kern' Horizontal Kerning in Latin lookup 0 subtable"  } ['kern' ('DFLT' <'dflt' > 'latn' <'dflt' > ) ]
MarkAttachClasses: 1
DEI: 91125
TtTable: prep
PUSHW_1
 511
SCANCTRL
PUSHB_1
 4
SCANTYPE
EndTTInstrs
LangName: 1033 "" "" "" "AlejandroPaul: Miss Fajardose Regular: 2004" "MissFajardose-Regular" "Version 1.000" "" "MissFajardose is a trademark of Alejandro Paul." "Alejandro Paul" "Alejandro Paul" "" "http://www.sudtipos.com" "http://www.sudtipos.com" "This Font Software is licensed under the SIL Open Font License,+AA0A-Version 1.1. This license is available with a FAQ at:+AA0A-http://scripts.sil.org/OFL" "http://scripts.sil.org/OFL" 
GaspTable: 1 65535 15
Encoding: UnicodeBmp
UnicodeInterp: none
NameList: Adobe Glyph List

StartChar: B
Encoding: 66 66 1
Width: 1013
Flags: HMW
HStem: -41 79 -26 21G<166 346> -19 21G<631.5 653.5 904.5 943> -6 21G<1004 1006.5> 122 134<147 274.5> 244 126 268 22 302 68 353 141<521.5 652.5> 353 229<521.5 701> 468 26<634 646> 567 118<723.5 899.5> 707 20G
VStem: 13 31<68 135 68 136> 235 75<136 192.5> 463 25<417.5 467> 521 36<-2.5 13 -2.5 24> 602 194<479 554.5> 683 41<331.5 335> 766 30<512 547.5> 986 30<196 249.5> 1074 29<505 549>
LayerCount: 2
Fore
SplineSet
280 152.5 m 128,-1,1
 286 166 286 166 286 176.5 c 128,-1,2
 286 187 286 187 284 197 c 1,3,4
 256 171 256 171 256 146 c 0,5,6
 256 139 256 139 261 139 c 0,7,0
 274 139 274 139 280 152.5 c 128,-1,1
724 335 m 0,8,9
 724 322 724 322 756 317 c 1,10,-1
 785 354 l 1,11,-1
 780 354 l 2,12,13
 724 354 724 354 724 335 c 0,8,9
636 494 m 0,14,15
 660 494 660 494 677.5 513.5 c 128,-1,16
 695 533 695 533 700 563 c 1,17,18
 673 554 673 554 651.5 532.5 c 128,-1,19
 630 511 630 511 630 502.5 c 128,-1,20
 630 494 630 494 636 494 c 0,14,15
785 316 m 1,21,22
 846 318 846 318 897 337 c 1,23,24
 859 350 859 350 813 353 c 1,25,26
 806 343 806 343 800.5 336 c 128,-1,27
 795 329 795 329 791 323.5 c 128,-1,28
 787 318 787 318 785 316 c 1,21,22
587 -12.5 m 128,-1,30
 617 -19 617 -19 649.75 -19 c 128,-1,31
 682.5 -19 682.5 -19 723 -10 c 1,32,33
 704 -5 704 -5 669 5 c 0,34,35
 602.5 24 602.5 24 579.75 24 c 128,-1,36
 557 24 557 24 557 9 c 128,-1,29
 557 -6 557 -6 587 -12.5 c 128,-1,30
1032.5 431.5 m 128,-1,38
 1074 484 1074 484 1074 531.5 c 128,-1,39
 1074 579 1074 579 1041 612 c 1,40,41
 993.588235294 571.882352941 993.588235294 571.882352941 952.294117647 523.441176471 c 128,-1,42
 911 475 911 475 894 454.5 c 128,-1,43
 877 434 877 434 852.5 402.5 c 128,-1,44
 828 371 828 371 823 365 c 1,45,46
 881 362 881 362 923 348 c 1,47,37
 991 379 991 379 1032.5 431.5 c 128,-1,38
725 567 m 1,48,-1
 718 566 l 1,49,50
 710 525 710 525 683.5 496.5 c 128,-1,51
 657 468 657 468 621 468 c 0,52,53
 602 468 602 468 602 484 c 0,54,55
 602 505 602 505 632 536 c 128,-1,56
 662 567 662 567 701 578 c 1,57,-1
 701 582 l 2,58,59
 701 615 701 615 685 644 c 1,60,61
 593 612 593 612 540.5 551.5 c 128,-1,62
 488 491 488 491 488 437 c 0,63,64
 488 407 488 407 506 388.5 c 128,-1,65
 524 370 524 370 558 370 c 0,66,67
 618 370 618 370 692 433 c 128,-1,68
 766 496 766 496 766 539 c 0,69,70
 766 567 766 567 725 567 c 1,48,-1
460 290 m 1,71,72
 516 286.5 516 286.5 516 265 c 0,73,74
 516 255 516 255 506 255 c 0,75,76
 501 255 501 255 491.5 261.5 c 128,-1,77
 482 268 482 268 454.5 268 c 128,-1,78
 427 268 427 268 382.5 252 c 128,-1,79
 338 236 338 236 304 213 c 1,80,81
 310 201 310 201 310 182.5 c 128,-1,82
 310 164 310 164 295.5 143 c 128,-1,83
 281 122 281 122 258 122 c 128,-1,84
 235 122 235 122 235 146.5 c 128,-1,85
 235 171 235 171 279 208 c 1,86,87
 258 244 258 244 195.5 244 c 128,-1,88
 133 244 133 244 88.5 199.5 c 128,-1,89
 44 155 44 155 44 101 c 128,-1,90
 44 47 44 47 91.5 10.5 c 128,-1,91
 139 -26 139 -26 226.5 -26 c 128,-1,92
 314 -26 314 -26 387 -0.5 c 128,-1,93
 460 25 460 25 524 75.5 c 128,-1,94
 588 126 588 126 636.5 177 c 128,-1,95
 685 228 685 228 744 302 c 1,96,97
 683 303 683 303 683 326 c 0,98,99
 683 341 683 341 714.5 353.5 c 128,-1,100
 746 366 746 366 794 366 c 1,101,102
 843 429 843 429 871.5 465 c 0,103,104
 953.949832776 569.147157191 953.949832776 569.147157191 1023 627 c 1,105,106
 962 669 962 669 840 669 c 0,107,108
 770 669 770 669 706 651 c 1,109,110
 720 626 720 626 720 592 c 0,111,112
 720 585 720 585 719 581 c 1,113,114
 723 582 723 582 732 582 c 0,115,116
 796 582 796 582 796 543 c 0,117,118
 796 511 796 511 756 466 c 128,-1,119
 716 421 716 421 657 387 c 128,-1,120
 598 353 598 353 553 353 c 128,-1,121
 508 353 508 353 485.5 374.5 c 128,-1,122
 463 396 463 396 463 431 c 0,123,124
 463 490 463 490 520.5 555 c 128,-1,125
 578 620 578 620 677 655 c 1,126,127
 637 713 637 713 545 713 c 0,128,129
 444.75 713 444.75 713 366 668 c 0,130,131
 292.860606061 626.206060606 292.860606061 626.206060606 249.5 576.5 c 0,132,133
 207.773841962 528.667574932 207.773841962 528.667574932 192 500.5 c 2,134,-1
 185 488 l 2,135,136
 180 480 180 480 174 480 c 128,-1,137
 168 480 168 480 168 491 c 1,138,139
 178.070175439 516.175438596 178.070175439 516.175438596 218.035087719 565.087719298 c 128,-1,140
 258 614 258 614 298.5 645 c 128,-1,141
 339 676 339 676 407 701.5 c 128,-1,142
 475 727 475 727 552 727 c 0,143,144
 656 727 656 727 699 663 c 1,145,146
 771 685 771 685 857 685 c 0,147,148
 976 685 976 685 1043 643 c 1,149,150
 1110 692 1110 692 1174 707 c 1,151,152
 1183.25 707 1183.25 707 1185 700 c 1,153,154
 1185 694 1185 694 1166 688 c 0,155,156
 1122 675 1122 675 1062 629 c 1,157,158
 1103 592 1103 592 1103 539 c 128,-1,159
 1103 486 1103 486 1059 431 c 128,-1,160
 1015 376 1015 376 940 341 c 1,161,162
 1016 308 1016 308 1016 241 c 128,-1,163
 1016 174 1016 174 954 105.5 c 128,-1,164
 892 37 892 37 796 -1 c 1,165,166
 881 -19 881 -19 915 -19 c 128,-1,167
 949 -19 949 -19 1004 -6 c 1,168,169
 1012 -6 1012 -6 1012 -11.5 c 128,-1,170
 1012 -17 1012 -17 1008 -18 c 1,171,172
 999 -23 999 -23 960 -30 c 128,-1,173
 921 -37 921 -37 877.5 -37 c 128,-1,174
 834 -37 834 -37 750 -17 c 1,175,176
 685 -35 685 -35 636 -35 c 128,-1,177
 587 -35 587 -35 554 -23.5 c 128,-1,178
 521 -12 521 -12 521 13 c 128,-1,179
 521 38 521 38 598 38 c 0,180,181
 624.1875 38 624.1875 38 689.09375 22.5 c 128,-1,182
 754 7 754 7 773 3 c 1,183,184
 867 35 867 35 926.5 100.5 c 128,-1,185
 986 166 986 166 986 232 c 128,-1,186
 986 298 986 298 914 330 c 1,187,188
 850 305 850 305 774 302 c 1,189,190
 727 242 727 242 691.5 201 c 128,-1,191
 656 160 656 160 601 110.5 c 128,-1,192
 546 61 546 61 493 31 c 128,-1,193
 440 1 440 1 368.5 -20 c 128,-1,194
 297 -41 297 -41 207.5 -41 c 128,-1,195
 118 -41 118 -41 65.5 -1 c 128,-1,196
 13 39 13 39 13 99 c 128,-1,197
 13 159 13 159 67 207.5 c 128,-1,198
 121 256 121 256 206 256 c 0,199,200
 271 256 271 256 297 224 c 1,201,202
 384 289 384 289 460 290 c 1,71,72
EndSplineSet
EndChar

StartChar: C
Encoding: 67 67 2
Width: 518
Flags: HMW
HStem: -21 21G<167 299> -3 21G<189.5 321> 351 162<496.5 523.5 496.5 542.5> 493 20<496.5 498> 531 22<189 202> 679 21<612.5 724>
VStem: 66 32<80 141.5> 92 27<417.5 451.5 417.5 459> 390 149<399 500 407 500> 803 26<580 633>
LayerCount: 2
Fore
SplineSet
414 410 m 2,0,-1
 414 409 l 1,1,2
 455 429 455 429 480 449.5 c 128,-1,3
 505 470 505 470 505 481.5 c 128,-1,4
 505 493 505 493 495 493 c 0,5,6
 474 493 474 493 444 465.5 c 128,-1,7
 414 438 414 438 414 410 c 2,0,-1
539 493 m 0,8,9
 539 471 539 471 505 443.5 c 128,-1,10
 471 416 471 416 417 393 c 1,11,12
 429 369 429 369 472 369 c 0,13,14
 536 369 536 369 615 411 c 128,-1,15
 694 453 694 453 748.5 511.5 c 128,-1,16
 803 570 803 570 803 614 c 0,17,18
 803 679 803 679 680.5 679 c 128,-1,19
 558 679 558 679 425 585.5 c 128,-1,20
 292 492 292 492 199 360 c 1,21,-1
 208 360 l 2,22,23
 296 360 296 360 390 399 c 1,24,-1
 390 407 l 2,25,26
 390 441 390 441 437 477 c 128,-1,27
 484 513 484 513 517 513 c 0,28,29
 539 513 539 513 539 493 c 0,8,9
222 529 m 2,30,-1
 197 531 l 1,31,32
 173 531 173 531 146 496 c 128,-1,33
 119 461 119 461 119 436 c 0,34,35
 119 380 119 380 172 363 c 1,36,37
 273 503 273 503 421.5 601.5 c 128,-1,38
 570 700 570 700 714 700 c 0,39,40
 829 700 829 700 829 631 c 0,41,42
 829 581 829 581 772 514.5 c 128,-1,43
 715 448 715 448 627 399.5 c 128,-1,44
 539 351 539 351 461 351 c 0,45,46
 410 351 410 351 394 384 c 1,47,48
 292 344 292 344 204 344 c 2,49,-1
 188 344 l 1,50,51
 98 212 98 212 98 115 c 0,52,53
 98 60 98 60 132.5 28.5 c 128,-1,54
 167 -3 167 -3 239 -3 c 0,55,56
 357.6 -3 357.6 -3 460 61 c 0,57,58
 484 76 484 76 496 86 c 2,59,-1
 508 96 l 2,60,61
 511 98 511 98 517 98 c 128,-1,62
 523 98 523 98 523 91.5 c 128,-1,63
 523 85 523 85 514 79 c 0,64,65
 387 -21 387 -21 222 -21 c 0,66,67
 143 -21 143 -21 104.5 13.5 c 128,-1,68
 66 48 66 48 66 108 c 0,69,70
 66 210 66 210 161 347 c 1,71,72
 92 368 92 368 92 429 c 0,73,74
 92 472 92 472 134 512.5 c 128,-1,75
 176 553 176 553 211 553 c 0,76,77
 231 553 231 553 231 541 c 128,-1,78
 231 529 231 529 222 529 c 2,30,-1
EndSplineSet
EndChar

StartChar: D
Encoding: 68 68 3
Width: 898
Flags: HMW
HStem: -11 86 -10 21G<116 166> 220 20<305 397.5> 220 234<283 501> 437 128<461.5 627> 703 20G<348 461.5>
VStem: 29 32<41 50.5 41 53.5> 220 33<287.5 350> 444 220<469.5 470.5> 632 32<470 524> 1043 34<367 496>
LayerCount: 2
Fore
SplineSet
480 454 m 0,0,1
 510 454 510 454 531.5 480.5 c 128,-1,2
 553 507 553 507 559 546 c 1,3,4
 522 536 522 536 497 508.5 c 128,-1,5
 472 481 472 481 472 467.5 c 128,-1,6
 472 454 472 454 480 454 c 0,0,1
61 41 m 0,7,8
 62 1 62 1 138 1 c 128,-1,9
 214 1 214 1 278 24 c 1,10,11
 153 60 153 60 107 60 c 128,-1,12
 61 60 61 60 61 41 c 0,7,8
560 558 m 1,13,14
 561 562 561 562 561 583 c 128,-1,15
 561 604 561 604 549 632 c 1,16,17
 426 580 426 580 339.5 480.5 c 128,-1,18
 253 381 253 381 253 308 c 0,19,20
 253 240 253 240 333 240 c 0,21,22
 402 240 402 240 474.5 291 c 128,-1,23
 547 342 547 342 589.5 405.5 c 128,-1,24
 632 469 632 469 632 510 c 128,-1,25
 632 551 632 551 591 551 c 0,26,27
 583 551 583 551 579 550 c 1,28,29
 571 503 571 503 541.5 470 c 128,-1,30
 512 437 512 437 471 437 c 0,31,32
 444 437 444 437 444 456 c 0,33,34
 444 479 444 479 479 511.5 c 128,-1,35
 514 544 514 544 560 558 c 1,13,14
1043 464 m 0,36,37
 1043 569 1043 569 948 622 c 1,38,39
 838.722085478 540.449317521 838.722085478 540.449317521 661.5 310.5 c 0,40,41
 601 232 601 232 514 151.5 c 128,-1,42
 427 71 427 71 339 32 c 1,43,44
 434 6 434 6 490 6 c 0,45,46
 594 6 594 6 698 50.5 c 128,-1,47
 802 95 802 95 876 162 c 128,-1,48
 950 229 950 229 996.5 310.5 c 128,-1,49
 1043 392 1043 392 1043 464 c 0,36,37
89 520 m 0,50,51
 82 508 82 508 75 508 c 128,-1,52
 68 508 68 508 68 516 c 0,53,54
 68 521 68 521 72 528 c 0,55,56
 120 595 120 595 220.5 659 c 128,-1,57
 321 723 321 723 423.5 723 c 128,-1,58
 526 723 526 723 564 653 c 1,59,60
 649 683 649 683 735 683 c 0,61,62
 869 683 869 683 953 645 c 1,63,64
 1042 702 1042 702 1126 719 c 1,65,66
 1134 719 1134 719 1134 713 c 128,-1,67
 1134 707 1134 707 1127 706 c 0,68,69
 1046 689 1046 689 969 638 c 1,70,71
 1077 582 1077 582 1077 469 c 0,72,73
 1077 393 1077 393 1026.5 308 c 128,-1,74
 976 223 976 223 895.5 152.5 c 128,-1,75
 815 82 815 82 702 35.5 c 128,-1,76
 589 -11 589 -11 475 -11 c 0,77,78
 410 -11 410 -11 302 17 c 1,79,80
 221 -10 221 -10 136 -10 c 0,81,82
 29 -10 29 -10 29 38 c 0,83,84
 29 75 29 75 132 75 c 0,85,86
 190 75 190 75 317 38 c 1,87,88
 399 75 399 75 483 154.5 c 128,-1,89
 567 234 567 234 628.5 313.5 c 128,-1,90
 690 393 690 393 773.5 485.5 c 128,-1,91
 857 578 857 578 932 631 c 1,92,93
 853 669 853 669 724 669 c 0,94,95
 649 669 649 669 570 640 c 1,96,97
 582 613 582 613 582 591 c 128,-1,98
 582 569 582 569 581 563 c 1,99,100
 597 565 597 565 607 565 c 0,101,102
 664 565 664 565 664 517 c 0,103,104
 664 482 664 482 632 431 c 128,-1,105
 600 380 600 380 551.5 333 c 128,-1,106
 503 286 503 286 438.5 253 c 128,-1,107
 374 220 374 220 321 220 c 128,-1,108
 268 220 268 220 244 241.5 c 128,-1,109
 220 263 220 263 220 300 c 0,110,111
 220 380 220 380 313.5 485.5 c 128,-1,112
 407 591 407 591 543 645 c 1,113,114
 506 712 506 712 413 712 c 128,-1,115
 320 712 320 712 219 645 c 128,-1,116
 118 578 118 578 89 520 c 0,50,51
EndSplineSet
EndChar

StartChar: E
Encoding: 69 69 4
Width: 735
Flags: HMW
HStem: -24 139 -6 21G<381 519> 374 44 403 80<737.5 742.5 720 891> 471 58<685.5 758> 487 90<351 378.5> 517 191<685.5 840.5>
VStem: 19 32<226 330.5> 237 35<155.5 212 155.5 226> 361 22<140 154> 620 30<567.5 603.5> 736 36<209.5 293> 919 26<612 642.5 607.5 643.5> 1064 26<569 627 556 631.5>
LayerCount: 2
Fore
SplineSet
689 517 m 0,0,1
 675 517 675 517 668 516 c 1,2,3
 693 483 693 483 735 483 c 0,4,5
 761 483 761 483 761 494 c 0,6,7
 761 513 761 513 689 517 c 0,0,1
385 181 m 1,8,9
 464 247 464 247 481 337 c 1,10,11
 397 281 397 281 385 181 c 1,8,9
485 357 m 1,12,-1
 485 371 l 2,13,14
 485 413 485 413 462 444 c 1,15,16
 377 390 377 390 324.5 313 c 128,-1,17
 272 236 272 236 272 162 c 0,18,19
 272 143 272 143 275 125 c 1,20,21
 320 136 320 136 361 163 c 1,22,23
 363 222 363 222 397 274 c 128,-1,24
 431 326 431 326 485 357 c 1,12,-1
350 504 m 0,25,26
 425 504 425 504 469 470 c 1,27,28
 505 488 505 488 528 496 c 1,29,30
 415.318181818 563 415.318181818 563 344 563 c 0,31,32
 215 562 215 562 133 468.5 c 128,-1,33
 51 375 51 375 51 268 c 0,34,35
 51 201 51 201 88.5 158 c 128,-1,36
 126 115 126 115 198 115 c 2,37,-1
 199 115 l 2,38,39
 220 115 220 115 240 118 c 1,40,41
 237 136 237 136 237 157 c 0,42,43
 237 254 237 254 295.5 331.5 c 128,-1,44
 354 409 354 409 447 460 c 1,45,46
 415 487 415 487 359 487 c 0,47,48
 343 487 343 487 325 484 c 0,49,50
 320 484 320 484 320 490 c 0,51,52
 320 504 320 504 350 504 c 0,25,26
378 107 m 0,53,54
 361 107 361 107 361 143 c 1,55,56
 319 118 319 118 278 107 c 1,57,58
 290 57 290 57 326.5 25.5 c 128,-1,59
 363 -6 363 -6 427.5 -6 c 128,-1,60
 492 -6 492 -6 552 20 c 128,-1,61
 612 46 612 46 651.5 85.5 c 128,-1,62
 691 125 691 125 713.5 171.5 c 128,-1,63
 736 218 736 218 736 265 c 128,-1,64
 736 312 736 312 703.5 343 c 128,-1,65
 671 374 671 374 613 374 c 128,-1,66
 555 374 555 374 512 354 c 1,67,68
 506 302 506 302 471.5 248.5 c 128,-1,69
 437 195 437 195 383 157 c 1,70,-1
 383 154 l 2,71,72
 383 145 383 145 387 134 c 128,-1,73
 391 123 391 123 391 118.5 c 128,-1,74
 391 114 391 114 386.5 110.5 c 128,-1,75
 382 107 382 107 378 107 c 0,53,54
894 551 m 1,76,77
 882 552 882 552 882 556 c 128,-1,78
 882 560 882 560 889 566 c 0,79,80
 919 595 919 595 919 624 c 128,-1,81
 919 653 919 653 878 675.5 c 128,-1,82
 837 698 837 698 791 698 c 0,83,84
 723 698 723 698 686.5 661 c 128,-1,85
 650 624 650 624 650 576 c 0,86,87
 650 551 650 551 661 527 c 1,88,89
 681 529 681 529 705.5 529 c 128,-1,90
 730 529 730 529 757 520 c 128,-1,91
 784 511 784 511 784 493 c 1,92,93
 781 471 781 471 747 471 c 0,94,95
 674 471 674 471 640 513 c 1,96,97
 607 508 607 508 566 494 c 1,98,99
 628 458 628 458 685 438 c 128,-1,100
 742 418 742 418 815 418 c 0,101,102
 924 418 924 418 994 480 c 128,-1,103
 1064 542 1064 542 1064 609 c 0,104,105
 1064 644 1064 644 1041 666 c 128,-1,106
 1018 688 1018 688 973 688 c 0,107,108
 957 688 957 688 957 696 c 0,109,110
 957 701 957 701 980 701 c 0,111,112
 1031 701 1031 701 1060.5 672 c 128,-1,113
 1090 643 1090 643 1090 599 c 0,114,115
 1090 525 1090 525 1010.5 464 c 128,-1,116
 931 403 931 403 785 403 c 0,117,118
 741 403 741 403 695 416.5 c 128,-1,119
 649 430 649 430 619 445.5 c 128,-1,120
 589 461 589 461 545 487 c 1,121,122
 516 475 516 475 483 457 c 1,123,124
 513 422 513 422 513 374 c 2,125,-1
 513 370 l 1,126,127
 563 391 563 391 616 391 c 0,128,129
 694 391 694 391 733 358 c 128,-1,130
 772 325 772 325 772 275 c 128,-1,131
 772 225 772 225 744.5 173 c 128,-1,132
 717 121 717 121 670 77 c 128,-1,133
 623 33 623 33 554 4.5 c 128,-1,134
 485 -24 485 -24 415 -24 c 128,-1,135
 345 -24 345 -24 302.5 10 c 128,-1,136
 260 44 260 44 244 100 c 1,137,138
 223 96 223 96 193 96 c 0,139,140
 107 96 107 96 63 142.5 c 128,-1,141
 19 189 19 189 19 261 c 128,-1,142
 19 333 19 333 58 404.5 c 128,-1,143
 97 476 97 476 174.5 526.5 c 128,-1,144
 252 577 252 577 347 577 c 0,145,146
 384 577 384 577 422.5 565 c 128,-1,147
 461 553 461 553 484 541 c 128,-1,148
 507 529 507 529 550 504 c 1,149,150
 594 518 594 518 632 524 c 1,151,152
 620 545 620 545 620 571 c 0,153,154
 620 624 620 624 666.5 666 c 128,-1,155
 713 708 713 708 787.5 708 c 128,-1,156
 862 708 862 708 903.5 682 c 128,-1,157
 945 656 945 656 945 616.5 c 128,-1,158
 945 577 945 577 894 551 c 1,76,77
EndSplineSet
EndChar

StartChar: F
Encoding: 70 70 5
Width: 678
Flags: HMW
HStem: -152 143<179 424> -26 170<161.5 277.5> 120 24<262 270.5> 224 71 361 215<508 758.5> 467 244<388 631> 561 150 630 24<1263 1318.5> 630 81 701 20G<1232 1237.5>
VStem: 25 29<90 160> 230 82 278 34<-79 -51> 465 29<416 475.5> 537 23 595 193<477.5 555> 760 28<516.5 546.5> 816 29<255.5 269.5>
LayerCount: 2
Fore
SplineSet
617 497 m 0,0,1
 617 491 617 491 628 491 c 128,-1,2
 639 491 639 491 651.5 506.5 c 128,-1,3
 664 522 664 522 670 545 c 1,4,5
 648 534 648 534 632.5 519.5 c 128,-1,6
 617 505 617 505 617 497 c 0,0,1
254 154 m 128,-1,8
 254 144 254 144 268.5 144 c 128,-1,9
 283 144 283 144 294 162 c 128,-1,10
 305 180 305 180 305 205 c 1,11,12
 282 194 282 194 268 179 c 128,-1,7
 254 164 254 164 254 154 c 128,-1,8
746 319 m 1,13,14
 599 300 599 300 487 221 c 1,15,16
 544 191 544 191 557 119 c 1,17,18
 639 189 639 189 746 319 c 1,13,14
535 101 m 1,19,20
 525 176 525 176 467 207 c 1,21,22
 351 115 351 115 319 -2 c 1,23,24
 428 17 428 17 535 101 c 1,19,20
376 -135 m 0,25,26
 443 -135 443 -135 489.5 -70 c 128,-1,27
 536 -5 536 -5 537 73 c 1,28,29
 433 -1 433 -1 315 -19 c 1,30,31
 312 -38.5 312 -38.5 312 -65.25 c 128,-1,32
 312 -92 312 -92 328.5 -113.5 c 128,-1,33
 345 -135 345 -135 376 -135 c 0,25,26
673 561 m 1,34,35
 674 566 674 566 674 581.5 c 128,-1,36
 674 597 674 597 666 619 c 1,37,38
 494 554 494 554 494 436 c 0,39,40
 494 408 494 408 511.5 393 c 128,-1,41
 529 378 529 378 552 378 c 0,42,43
 594 378 594 378 644.5 408.5 c 128,-1,44
 695 439 695 439 727.5 477.5 c 128,-1,45
 760 516 760 516 760 540 c 0,46,47
 760 561 760 561 731 561 c 0,48,49
 716 561 716 561 693 554 c 1,50,51
 685 518 685 518 662.5 492.5 c 128,-1,52
 640 467 640 467 617.5 467 c 128,-1,53
 595 467 595 467 595 482 c 0,54,55
 595 499 595 499 617 523 c 128,-1,56
 639 547 639 547 673 561 c 1,34,35
247 -9 m 0,57,58
 272 -9 272 -9 285 -7 c 1,59,60
 317 117 317 117 449 215 c 1,61,62
 424 224 424 224 391 224 c 128,-1,63
 358 224 358 224 323 213 c 1,64,65
 321 177 321 177 300 148.5 c 128,-1,66
 279 120 279 120 254.5 120 c 128,-1,67
 230 120 230 120 230 137 c 128,-1,68
 230 154 230 154 250.5 177.5 c 128,-1,69
 271 201 271 201 304 218 c 1,70,71
 300 244 300 244 282 261.5 c 128,-1,72
 264 279 264 279 232 279 c 0,73,74
 154 279 154 279 104 231.5 c 128,-1,75
 54 184 54 184 54 126 c 128,-1,76
 54 68 54 68 102.5 29.5 c 128,-1,77
 151 -9 151 -9 247 -9 c 0,57,58
858 247 m 0,78,79
 862 247 862 247 862 239.5 c 2,80,-1
 862 237 l 2,81,82
 862 230 862 230 849.5 230 c 128,-1,83
 837 230 837 230 826.5 236 c 128,-1,84
 816 242 816 242 816 257 c 128,-1,85
 816 272 816 272 834.5 294.5 c 128,-1,86
 853 317 853 317 853 321 c 128,-1,87
 853 325 853 325 832.5 325 c 128,-1,88
 812 325 812 325 783 322 c 1,89,90
 653 161 653 161 560 90 c 1,91,-1
 560 84 l 2,92,93
 560 -3 560 -3 504 -77.5 c 128,-1,94
 448 -152 448 -152 368 -152 c 0,95,96
 324 -152 324 -152 301 -126 c 128,-1,97
 278 -100 278 -100 278 -56 c 0,98,99
 278 -40 278 -40 281 -24 c 1,100,101
 251 -26 251 -26 235 -26 c 0,102,103
 131 -26 131 -26 78 15 c 128,-1,104
 25 56 25 56 25 120.5 c 128,-1,105
 25 185 25 185 85.5 240 c 128,-1,106
 146 295 146 295 239 295 c 0,107,108
 279 295 279 295 300 275.5 c 128,-1,109
 321 256 321 256 323 226 c 1,110,111
 360 241 360 241 400.25 241 c 128,-1,112
 440.5 241 440.5 241 469 229 c 1,113,114
 591 312 591 312 760 336 c 1,115,116
 770 348 770 348 799.5 384 c 128,-1,117
 829 420 829 420 841.5 435 c 128,-1,118
 854 450 854 450 880 480.5 c 128,-1,119
 906 511 906 511 923 528.5 c 128,-1,120
 940 546 940 546 963 569.5 c 0,121,122
 1001.12751678 608.456375839 1001.12751678 608.456375839 1050 644 c 1,123,124
 922 656 922 656 852.5 656 c 128,-1,125
 783 656 783 656 690 627 c 1,126,127
 697 607 697 607 697 590.5 c 128,-1,128
 697 574 697 574 696 569 c 1,129,130
 722 576 722 576 743 576 c 0,131,132
 788 576 788 576 788 546 c 128,-1,133
 788 516 788 516 750 472.5 c 128,-1,134
 712 429 712 429 652.5 395 c 128,-1,135
 593 361 593 361 552 361 c 128,-1,136
 511 361 511 361 492 373.5 c 128,-1,137
 473 386 473 386 469 398 c 128,-1,138
 465 410 465 410 465 423 c 0,139,140
 465 561 465 561 660 632 c 1,141,142
 626 697 626 697 518 697 c 0,143,144
 417.75 697 417.75 697 339 652 c 0,145,146
 265.860606061 610.206060606 265.860606061 610.206060606 222.5 560.5 c 0,147,148
 180.773841962 512.667574932 180.773841962 512.667574932 165 484.5 c 2,149,-1
 158 472 l 2,150,151
 153 464 153 464 147 464 c 128,-1,152
 141 464 141 464 141 475 c 1,153,154
 151.070175439 500.175438596 151.070175439 500.175438596 191.035087719 549.087719298 c 128,-1,155
 231 598 231 598 271.5 629 c 128,-1,156
 312 660 312 660 380 685.5 c 128,-1,157
 448 711 448 711 525 711 c 0,158,159
 646 711 646 711 684 639 c 1,160,161
 798 675 798 675 909 675 c 0,162,163
 972 675 972 675 1082 666 c 1,164,165
 1155 711 1155 711 1232 721 c 1,166,167
 1242 721 1242 721 1242 718 c 2,168,-1
 1242 715 l 2,169,170
 1242 709.6 1242 709.6 1238 708.8 c 128,-1,171
 1234 708 1234 708 1232 707.5 c 0,172,173
 1173.64285714 692.910714286 1173.64285714 692.910714286 1121 663 c 1,174,175
 1234 654 1234 654 1294.5 654 c 128,-1,176
 1355 654 1355 654 1410 664 c 128,-1,177
 1465 674 1465 674 1490.5 684.5 c 128,-1,178
 1516 695 1516 695 1518 695 c 0,179,180
 1533 695 1533 695 1533 685 c 0,181,182
 1533 677 1533 677 1493.5 664 c 128,-1,183
 1454 651 1454 651 1383.5 640.5 c 128,-1,184
 1313 630 1313 630 1256 630 c 128,-1,185
 1199 630 1199 630 1085 641 c 1,186,187
 1035 607 1035 607 980 552 c 128,-1,188
 925 497 925 497 891.5 456.5 c 128,-1,189
 858 416 858 416 798 340 c 1,190,191
 833 344 833 344 862 344 c 128,-1,192
 891 344 891 344 893 343 c 0,193,194
 898 342 898 342 898 334 c 128,-1,195
 898 326 898 326 888 320 c 0,196,197
 845 295 845 295 845 262 c 0,198,199
 845 247 845 247 858 247 c 0,78,79
EndSplineSet
EndChar

StartChar: G
Encoding: 71 71 6
Width: 535
Flags: HMW
HStem: -369 20G<-164 -70.5> -367 21G<-180.5 -75> -285 22<285.5 299.5> -285 184 -285 223<59 299.5> -75 143<179.5 191> 44 24<179.5 233.5> 422 164<496.5 537.5 496.5 547> 565 21<496.5 514.5> 565 209<490.5 776> 598 22<195 208>
VStem: -243 30<-316 -263 -316 -261.5> 67 34<146.5 196.5> 98 27<484.5 518.5 484.5 526> 246 26<-253.5 -249> 358 25<-198.5 -177.5> 412 140<475 577 478 577> 753 34<404 413.5> 821 33<658 720.5>
LayerCount: 2
Fore
SplineSet
513 565 m 0,0,1
 481 565 481 565 458 540 c 128,-1,2
 435 515 435 515 434 486 c 1,3,4
 519 533 519 533 519 560 c 0,5,6
 519 565 519 565 513 565 c 0,0,1
358 -180 m 0,7,8
 358 -174 358 -174 356 -164 c 1,9,10
 318 -186 318 -186 295 -210 c 128,-1,11
 272 -234 272 -234 272 -248.5 c 128,-1,12
 272 -263 272 -263 295 -263 c 128,-1,13
 318 -263 318 -263 338 -237.5 c 128,-1,14
 358 -212 358 -212 358 -180 c 0,7,8
753 411 m 0,15,16
 753 418 753 418 742.5 418 c 128,-1,17
 732 418 732 418 713.5 404 c 128,-1,18
 695 390 695 390 664.5 355.5 c 0,19,20
 626.620967742 312.653225806 626.620967742 312.653225806 544 208 c 1,21,22
 631 268 631 268 692 328 c 128,-1,23
 753 388 753 388 753 411 c 0,15,16
-138 -349 m 0,24,25
 -44 -349 -44 -349 55.5 -279 c 128,-1,26
 155 -209 155 -209 266 -86 c 1,27,28
 227 -75 227 -75 172 -75 c 0,29,30
 75 -75 75 -75 -17.5 -116 c 128,-1,31
 -110 -157 -110 -157 -161.5 -209.5 c 128,-1,32
 -213 -262 -213 -262 -213 -302 c 0,33,34
 -213 -349 -213 -349 -138 -349 c 0,24,25
552 572 m 0,35,36
 552 554 552 554 519 526 c 128,-1,37
 486 498 486 498 435 472 c 1,38,39
 444 439 444 439 490 439 c 128,-1,40
 536 439 536 439 616.5 485 c 128,-1,41
 697 531 697 531 759 595.5 c 128,-1,42
 821 660 821 660 821 705 c 0,43,44
 821 757 821 757 727 757 c 0,45,46
 581 757 581 757 437.5 660 c 128,-1,47
 294 563 294 563 199 425 c 1,48,49
 217 423 217 423 230 423 c 0,50,51
 304 423 304 423 412 475 c 1,52,-1
 412 478 l 2,53,54
 412 517 412 517 446.5 551.5 c 128,-1,55
 481 586 481 586 533 586 c 0,56,57
 552 586 552 586 552 572 c 0,35,36
228 596 m 2,58,-1
 203 598 l 1,59,60
 179 598 179 598 152 563 c 128,-1,61
 125 528 125 528 125 503 c 0,62,63
 125 447 125 447 178 430 c 1,64,65
 281 573 281 573 431.5 673.5 c 128,-1,66
 582 774 582 774 732 774 c 0,67,68
 854 774 854 774 854 709 c 0,69,70
 854 660 854 660 789.5 591 c 128,-1,71
 725 522 725 522 634.5 472 c 128,-1,72
 544 422 544 422 484 422 c 128,-1,73
 424 422 424 422 414 461 c 1,74,75
 301 408 301 408 211 408 c 0,76,77
 196 408 196 408 188 409 c 1,78,79
 101 278 101 278 101 180 c 0,80,81
 101 128 101 128 130.5 98 c 128,-1,82
 160 68 160 68 222 68 c 0,83,84
 318 68 318 68 471 160 c 1,85,86
 575.342857143 290.428571429 575.342857143 290.428571429 628.171428571 345.714285714 c 128,-1,87
 681 401 681 401 713.5 421.5 c 128,-1,88
 746 442 746 442 772 442 c 0,89,90
 787 442 787 442 787 425 c 0,91,92
 787 393 787 393 704 315.5 c 128,-1,93
 621 238 621 238 512 168 c 1,94,95
 397 21 397 21 304 -79 c 1,96,97
 357 -98 357 -98 376 -137 c 1,98,99
 457 -101 457 -101 552 -101 c 0,100,101
 609 -101 609 -101 636 -111 c 0,102,103
 646 -114 646 -114 646 -121 c 128,-1,104
 646 -128 646 -128 638 -128 c 0,105,106
 636 -128 636 -128 632 -126 c 0,107,108
 601 -113 601 -113 546 -113 c 0,109,110
 459 -113 459 -113 381 -151 c 1,111,112
 383 -163 383 -163 383 -170 c 0,113,114
 383 -213 383 -213 348 -249 c 128,-1,115
 313 -285 313 -285 272 -285 c 0,116,117
 246 -285 246 -285 246 -262.5 c 128,-1,118
 246 -240 246 -240 274.5 -207 c 128,-1,119
 303 -174 303 -174 351 -148 c 1,120,121
 335 -111 335 -111 291 -94 c 1,122,123
 34 -367 34 -367 -147 -367 c 0,124,125
 -243 -367 -243 -367 -243 -306 c 0,126,127
 -243 -272 -243 -272 -210 -230 c 128,-1,128
 -177 -188 -177 -188 -122.5 -150.5 c 128,-1,129
 -68 -113 -68 -113 13 -87.5 c 128,-1,130
 94 -62 94 -62 167 -62 c 128,-1,131
 240 -62 240 -62 279 -72 c 1,132,133
 343 1 343 1 445 128 c 1,134,135
 294 44 294 44 199 44 c 0,136,137
 67 44 67 44 67 162 c 0,138,139
 67 267 67 267 167 414 c 1,140,141
 98 435 98 435 98 496 c 0,142,143
 98 539 98 539 140 579.5 c 128,-1,144
 182 620 182 620 217 620 c 0,145,146
 237 620 237 620 237 608 c 128,-1,147
 237 596 237 596 228 596 c 2,58,-1
EndSplineSet
EndChar

StartChar: H
Encoding: 72 72 7
Width: 990
Flags: HMW
HStem: -116 144 7 21<172 318.5> 23 21<708.5 714> 99 198<784.5 938.5 811 938.5> 320 165<418 461.5 401 672.5> 486 148<1463.5 1493.5> 615 140 738 35
VStem: 14 27<115 189 115 201.5> 169 38<607.5 660.5> 209 80<174.5 244> 673 31 685 84<428 449 428 459.5> 741 28<428 442> 903 32<1 52> 1390 132<524.5 621> 1625 33<645 691.5>
LayerCount: 2
Fore
SplineSet
264.5 202 m 128,-1,1
 274 222 274 222 274 230 c 128,-1,2
 274 238 274 238 271 253 c 1,3,4
 233 223 233 223 233 191 c 0,5,6
 233 187 233 187 235.5 184.5 c 128,-1,7
 238 182 238 182 240 182 c 0,8,0
 255 182 255 182 264.5 202 c 128,-1,1
868 615 m 128,-1,10
 852 615 852 615 833 597 c 128,-1,11
 814 579 814 579 799 550 c 1,12,13
 884 588 884 588 884 608 c 0,14,9
 884 615 884 615 868 615 c 128,-1,10
711 44 m 0,15,16
 753 44 753 44 813 99 c 1,17,-1
 811 99 l 2,18,19
 770 99 770 99 735.5 84 c 128,-1,20
 701 69 701 69 701 50 c 0,21,22
 701 44 701 44 711 44 c 0,15,16
1433 583 m 128,-1,24
 1416 559 1416 559 1416 542 c 128,-1,25
 1416 525 1416 525 1420 518 c 1,26,27
 1488 573 1488 573 1488 596 c 0,28,29
 1488 607 1488 607 1469 607 c 128,-1,23
 1450 607 1450 607 1433 583 c 128,-1,24
1522 615 m 0,30,31
 1522 581 1522 581 1431 507 c 1,32,33
 1438 503 1438 503 1452 503 c 0,34,35
 1515 503 1515 503 1570 560.5 c 128,-1,36
 1625 618 1625 618 1625 673 c 0,37,38
 1625 703 1625 703 1604 720.5 c 128,-1,39
 1583 738 1583 738 1538 738 c 128,-1,40
 1493 738 1493 738 1440 712.5 c 128,-1,41
 1387 687 1387 687 1341.5 651 c 128,-1,42
 1296 615 1296 615 1237.5 554 c 128,-1,43
 1179 493 1179 493 1138.5 445.5 c 0,44,45
 1059.12 352.4 1059.12 352.4 1026 311 c 1,46,47
 1116 334 1116 334 1219 388.5 c 128,-1,48
 1322 443 1322 443 1399 502 c 1,49,50
 1390 512 1390 512 1390 530 c 0,51,52
 1390 564 1390 564 1421 599 c 128,-1,53
 1452 634 1452 634 1487 634 c 128,-1,54
 1522 634 1522 634 1522 615 c 0,30,31
494 485 m 0,55,56
 584 485 584 485 680 509 c 1,57,58
 661 611 661 611 577 676 c 128,-1,59
 493 741 493 741 369 741 c 0,60,61
 290 741 290 741 248.5 713.5 c 128,-1,62
 207 686 207 686 207 644 c 0,63,64
 207 584 207 584 285 534.5 c 128,-1,65
 363 485 363 485 494 485 c 0,55,56
364.5 316.5 m 128,-1,67
 410 334 410 334 433.5 335 c 128,-1,68
 457 336 457 336 469.5 332.5 c 128,-1,69
 482 329 482 329 489 324.5 c 0,70,71
 503.887323944 314.929577465 503.887323944 314.929577465 509 303 c 1,72,73
 509 293 509 293 500 293 c 0,74,75
 496 293 496 293 490.5 299.5 c 0,76,77
 473.153846154 320 473.153846154 320 440.576923077 320 c 128,-1,78
 408 320 408 320 363.5 304 c 128,-1,79
 319 288 319 288 284 264 c 1,80,81
 289 251 289 251 289 230.5 c 128,-1,82
 289 210 289 210 273 190.5 c 0,83,84
 250.435897436 163 250.435897436 163 229.717948718 163 c 128,-1,85
 209 163 209 163 209 181 c 0,86,87
 209 220 209 220 267 263 c 1,88,89
 256 281 256 281 235 291.5 c 128,-1,90
 214 302 214 302 199 303 c 1,91,92
 41 285 41 285 41 156 c 0,93,94
 41 98 41 98 94 63 c 128,-1,95
 147 28 147 28 213 28 c 128,-1,96
 279 28 279 28 342.5 47.5 c 128,-1,97
 406 67 406 67 453 93.5 c 128,-1,98
 500 120 500 120 555 169.5 c 128,-1,99
 610 219 610 219 643.5 255 c 0,100,101
 704.101123596 320.123595506 704.101123596 320.123595506 749 375 c 1,102,103
 741 396 741 396 741 434.5 c 128,-1,104
 741 473 741 473 761 518 c 1,105,106
 723 504 723 504 702 498 c 1,107,108
 704 478 704 478 704 466 c 0,109,110
 704 389 704 389 678 328 c 0,111,112
 675 320 675 320 670 320 c 1,113,114
 664 323 664 323 664 327 c 1,115,116
 685 398 685 398 685 436 c 128,-1,117
 685 474 685 474 682 493 c 1,118,119
 589 469 589 469 486 469 c 0,120,121
 332 469 332 469 250.5 516 c 128,-1,122
 169 563 169 563 169 627 c 0,123,124
 169 680 169 680 225.5 719 c 128,-1,125
 282 758 282 758 377 758 c 0,126,127
 507 758 507 758 594 688.5 c 128,-1,128
 681 619 681 619 699 514 c 1,129,130
 735 524 735 524 770 537 c 1,131,132
 792 581 792 581 825 609 c 128,-1,133
 858 637 858 637 887 637 c 128,-1,134
 916 637 916 637 916 623 c 0,135,136
 916 607 916 607 881.5 580.5 c 128,-1,137
 847 554 847 554 790 529 c 1,138,139
 769 482 769 482 769 433 c 0,140,141
 769 423 769 423 771 403 c 1,142,143
 883 537 883 537 925 583 c 0,144,145
 1096 773 1096 773 1186 773 c 0,146,147
 1191 773 1191 773 1192.5 770 c 128,-1,148
 1194 767 1194 767 1194 766 c 0,149,150
 1194 755 1194 755 1174 751 c 1,151,152
 1120 731 1120 731 1067.5 688 c 128,-1,153
 1015 645 1015 645 986 613 c 1,154,155
 934.05 561.05 934.05 561.05 870.525 481.025 c 128,-1,156
 807 401 807 401 781 371 c 1,157,158
 814 297 814 297 929 297 c 0,159,160
 958 297 958 297 991 303 c 1,161,162
 1041 365 1041 365 1063.5 393.5 c 128,-1,163
 1086 422 1086 422 1136 480 c 128,-1,164
 1186 538 1186 538 1217 567.5 c 128,-1,165
 1248 597 1248 597 1296 639.5 c 128,-1,166
 1344 682 1344 682 1381.5 702.5 c 0,167,168
 1477.53658537 755 1477.53658537 755 1552 755 c 0,169,170
 1658 755 1658 755 1658 685 c 0,171,172
 1658 624 1658 624 1586.5 555 c 128,-1,173
 1515 486 1515 486 1447 486 c 0,174,175
 1424 486 1424 486 1412 492 c 1,176,177
 1327 427 1327 427 1216 370 c 128,-1,178
 1105 313 1105 313 1009 292 c 1,179,180
 898 160 898 160 845 110 c 1,181,182
 935 101 935 101 935 37 c 0,183,184
 935 -9 935 -9 893 -46.5 c 128,-1,185
 851 -84 851 -84 805 -100 c 128,-1,186
 759 -116 759 -116 730 -116 c 1,187,188
 723 -115 723 -115 723 -107.5 c 128,-1,189
 723 -100 723 -100 729 -100 c 2,190,-1
 736 -101 l 1,191,192
 810 -91 810 -91 856.5 -53 c 128,-1,193
 903 -15 903 -15 903 31 c 0,194,195
 903 89 903 89 832 98 c 1,196,197
 749 23 749 23 694 23 c 0,198,199
 686 23 686 23 679.5 28.5 c 128,-1,200
 673 34 673 34 673 42 c 0,201,202
 673 70 673 70 721 90.5 c 128,-1,203
 769 111 769 111 824 111 c 2,204,-1
 825 111 l 1,205,206
 878 162 878 162 976 285 c 1,207,208
 952 281 952 281 924 281 c 0,209,210
 804 281 804 281 762 349 c 1,211,-1
 745 330 l 2,212,213
 688 267 688 267 648.5 227 c 128,-1,214
 609 187 609 187 552.5 141 c 128,-1,215
 496 95 496 95 446.5 68.5 c 0,216,217
 331.622641509 7 331.622641509 7 201 7 c 0,218,219
 118 7 118 7 66 43.5 c 128,-1,220
 14 80 14 80 14 151 c 128,-1,221
 14 222 14 222 67.5 268.5 c 128,-1,222
 121 315 121 315 185 315 c 0,223,224
 195 315 195 315 200 314 c 0,225,226
 261 304 261 304 280 273 c 1,227,66
 319 299 319 299 364.5 316.5 c 128,-1,67
EndSplineSet
EndChar

StartChar: I
Encoding: 73 73 8
Width: 644
Flags: HMW
HStem: -49 170<249.5 270.5 249.5 425> 97 24<249.5 265> 97 175<231.5 249 167 265> 256 35 275 92<470 613.5> 350 223<523 753> 464 245<381 624> 558 117<717.5 849> 623 86 653 22<773 808>
VStem: 18 29<67 137> 205 26<135 142> 205 112<118.5 201> 451 29<422 468.5> 756 28<504.5 539> 1239 36<664.5 678.5>
LayerCount: 2
Fore
SplineSet
610 494 m 0,0,1
 610 488 610 488 621 488 c 128,-1,2
 632 488 632 488 644.5 503.5 c 128,-1,3
 657 519 657 519 663 542 c 1,4,5
 641 531 641 531 625.5 516.5 c 128,-1,6
 610 502 610 502 610 494 c 0,0,1
1223 688 m 0,7,8
 1162 688 1162 688 1095 640 c 1,9,10
 1103 639 1103 639 1128 639 c 128,-1,11
 1153 639 1153 639 1196 650 c 128,-1,12
 1239 661 1239 661 1239 674.5 c 128,-1,13
 1239 688 1239 688 1223 688 c 0,7,8
287 139 m 128,-1,15
 298 157 298 157 298 178 c 128,-1,16
 298 199 298 199 290 217 c 1,17,18
 231 174 231 174 231 141 c 0,19,20
 231 121 231 121 259 121 c 0,21,14
 276 121 276 121 287 139 c 128,-1,15
588 479 m 0,22,23
 588 496 588 496 610 520 c 128,-1,24
 632 544 632 544 666 558 c 1,25,26
 667 563 667 563 667 574 c 0,27,28
 667 608 667 608 650 635 c 1,29,30
 573 609 573 609 526.5 552.5 c 128,-1,31
 480 496 480 496 480 444 c 0,32,33
 480 409 480 409 502.5 388 c 128,-1,34
 525 367 525 367 570 367 c 0,35,36
 631 367 631 367 693.5 427 c 128,-1,37
 756 487 756 487 756 531 c 0,38,39
 756 558 756 558 724 558 c 0,40,41
 709 558 709 558 686 551 c 1,42,43
 678 515 678 515 655.5 489.5 c 128,-1,44
 633 464 633 464 610.5 464 c 128,-1,45
 588 464 588 464 588 479 c 0,22,23
470 275 m 0,46,47
 381 274 381 274 310 230 c 1,48,49
 317 215 317 215 317 186.5 c 128,-1,50
 317 158 317 158 295.5 127.5 c 128,-1,51
 274 97 274 97 245 97 c 0,52,53
 205 97 205 97 205 128 c 0,54,55
 205 150 205 150 225.5 178 c 128,-1,56
 246 206 246 206 282 231 c 1,57,58
 264 256 264 256 225 256 c 0,59,60
 147 256 147 256 97 208.5 c 128,-1,61
 47 161 47 161 47 103 c 128,-1,62
 47 45 47 45 95.5 6.5 c 128,-1,63
 144 -32 144 -32 228.5 -32 c 128,-1,64
 313 -32 313 -32 383.5 -6 c 128,-1,65
 454 20 454 20 514 65.5 c 128,-1,66
 574 111 574 111 630 167 c 128,-1,67
 686 223 686 223 739.5 288 c 128,-1,68
 793 353 793 353 841 412.5 c 0,69,70
 957.954434101 557.474767271 957.954434101 557.474767271 1045 626 c 1,71,72
 1022 628 1022 628 963 636 c 0,73,74
 837.625 653 837.625 653 776.3125 653 c 128,-1,75
 715 653 715 653 674 642 c 1,76,77
 690 616 690 616 690 593.5 c 128,-1,78
 690 571 690 571 689 566 c 1,79,80
 715 573 715 573 736 573 c 0,81,82
 784 573 784 573 784 536 c 0,83,84
 784 485 784 485 709.5 417.5 c 128,-1,85
 635 350 635 350 561 350 c 0,86,87
 506 350 506 350 478.5 373 c 128,-1,88
 451 396 451 396 451 434 c 0,89,90
 451 489 451 489 504 550.5 c 128,-1,91
 557 612 557 612 642 646 c 1,92,93
 601 694 601 694 511 694 c 0,94,95
 443 694 443 694 384.5 674 c 128,-1,96
 326 654 326 654 291.5 625.5 c 0,97,98
 219.270125224 565.831842576 219.270125224 565.831842576 197.5 520 c 2,99,-1
 188 500 l 1,100,101
 183 492 183 492 177 492 c 128,-1,102
 171 492 171 492 171 503 c 1,103,104
 182.154185022 532.744493392 182.154185022 532.744493392 212.077092511 571.372246696 c 128,-1,105
 242 610 242 610 277.5 637 c 128,-1,106
 313 664 313 664 377 686.5 c 128,-1,107
 441 709 441 709 518 709 c 0,108,109
 623 709 623 709 666 654 c 1,110,111
 729 675 729 675 781 675 c 128,-1,112
 833 675 833 675 875.5 671.5 c 128,-1,113
 918 668 918 668 945 664 c 128,-1,114
 972 660 972 660 1014 653 c 128,-1,115
 1056 646 1056 646 1069 644 c 1,116,117
 1155 704 1155 704 1238 704 c 0,118,119
 1275 704 1275 704 1275 682 c 0,120,121
 1275 653 1275 653 1213 638 c 128,-1,122
 1151 623 1151 623 1117 623 c 128,-1,123
 1083 623 1083 623 1072 624 c 1,124,125
 998.550839092 567.243830207 998.550839092 567.243830207 874.5 412.5 c 0,126,127
 826 352 826 352 770 285 c 128,-1,128
 714 218 714 218 654 159.5 c 128,-1,129
 594 101 594 101 529 53.5 c 0,130,131
 388.736842105 -49 388.736842105 -49 228 -49 c 0,132,133
 124 -49 124 -49 71 -8 c 128,-1,134
 18 33 18 33 18 97.5 c 128,-1,135
 18 162 18 162 78.5 217 c 128,-1,136
 139 272 139 272 232 272 c 0,137,138
 278 272 278 272 301 244 c 1,139,140
 381 291 381 291 478 291 c 0,141,142
 502 291 502 291 519 282.5 c 128,-1,143
 536 274 536 274 540.5 266 c 2,144,-1
 545 258 l 1,145,146
 545 248 545 248 536 248 c 0,147,148
 532 248 532 248 526.5 255 c 0,149,150
 510.785714286 275 510.785714286 275 470 275 c 0,46,47
EndSplineSet
EndChar

StartChar: J
Encoding: 74 74 9
Width: 540
Flags: HMW
HStem: -358 20G<-80 15> -356 21G<-98 18> 45 155<288 321.5> 184 183<220 450.5> 232 135 350 223<360 590> 464 245<218 461> 558 117<554.5 685> 623 86 653 22<610 644.5> 691 20G<1036.5 1068.5>
VStem: -146 31<-299 -214.5 -299 -212.5> 272 113<56.5 143> 288 29<422 468.5> 425 196<474.5 547> 593 28<504.5 539> 1062 36<671 685.5>
LayerCount: 2
Fore
SplineSet
447 494 m 0,0,1
 447 488 447 488 458 488 c 128,-1,2
 469 488 469 488 481.5 503.5 c 128,-1,3
 494 519 494 519 500 542 c 1,4,5
 478 531 478 531 462.5 516.5 c 128,-1,6
 447 502 447 502 447 494 c 0,0,1
364 135 m 0,7,8
 364 142 364 142 363 146 c 1,9,10
 330 123 330 123 310.5 101 c 128,-1,11
 291 79 291 79 291 67 c 0,12,13
 291 58 291 58 303 58 c 0,14,15
 326 58 326 58 345 83 c 128,-1,16
 364 108 364 108 364 135 c 0,7,8
1046 695 m 0,17,18
 995 695 995 695 924 641 c 1,19,20
 935 639 935 639 959.5 639 c 128,-1,21
 984 639 984 639 1023 653 c 128,-1,22
 1062 667 1062 667 1062 682 c 0,23,24
 1062 695 1062 695 1046 695 c 0,17,18
425 479 m 0,25,26
 425 496 425 496 447 520 c 128,-1,27
 469 544 469 544 503 558 c 1,28,29
 504 563 504 563 504 574 c 0,30,31
 504 608 504 608 487 635 c 1,32,33
 410 609 410 609 363.5 552.5 c 128,-1,34
 317 496 317 496 317 444 c 0,35,36
 317 409 317 409 339.5 388 c 128,-1,37
 362 367 362 367 407 367 c 0,38,39
 468 367 468 367 530.5 427 c 128,-1,40
 593 487 593 487 593 531 c 0,41,42
 593 558 593 558 561 558 c 0,43,44
 546 558 546 558 523 551 c 1,45,46
 515 515 515 515 492.5 489.5 c 128,-1,47
 470 464 470 464 447.5 464 c 128,-1,48
 425 464 425 464 425 479 c 0,25,26
-61 -338 m 0,49,50
 -18 -338 -18 -338 36 -306 c 128,-1,51
 90 -274 90 -274 142.5 -225.5 c 128,-1,52
 195 -177 195 -177 261 -101 c 0,53,54
 357.767894756 10.4296969917 357.767894756 10.4296969917 505.895993479 203.319528565 c 0,55,56
 514 214 514 214 518 219 c 1,57,58
 447 201 447 201 382 158 c 1,59,60
 385 149 385 149 385 140 c 0,61,62
 385 105 385 105 359 75 c 128,-1,63
 333 45 333 45 296 45 c 0,64,65
 272 45 272 45 272 62 c 128,-1,66
 272 79 272 79 295 106.5 c 128,-1,67
 318 134 318 134 357 161 c 1,68,69
 343 184 343 184 304 184 c 0,70,71
 225 184 225 184 123.5 95.5 c 128,-1,72
 22 7 22 7 -46.5 -104 c 128,-1,73
 -115 -215 -115 -215 -115 -282 c 0,74,75
 -115 -338 -115 -338 -61 -338 c 0,49,50
503 654 m 1,76,77
 566 675 566 675 623 675 c 128,-1,78
 680 675 680 675 725 670 c 128,-1,79
 770 665 770 665 834.5 654 c 128,-1,80
 899 643 899 643 902 643 c 1,81,82
 992 711 992 711 1061 711 c 0,83,84
 1098 711 1098 711 1098 689 c 0,85,86
 1098 660 1098 660 1040 641.5 c 128,-1,87
 982 623 982 623 949 623 c 128,-1,88
 916 623 916 623 904 624 c 1,89,90
 858 586 858 586 797.5 519 c 128,-1,91
 737 452 737 452 692 395.5 c 128,-1,92
 647 339 647 339 571 242 c 1,93,94
 594 245 594 245 617 245 c 0,95,96
 686 245 686 245 686 225 c 0,97,98
 686 218 686 218 680.5 218 c 128,-1,99
 675 218 675 218 671.5 219.5 c 128,-1,100
 668 221 668 221 662 223.5 c 0,101,102
 641.6 232 641.6 232 612.3 232 c 128,-1,103
 583 232 583 232 560 228 c 1,104,105
 405.894736842 28.9473684211 405.894736842 28.9473684211 371.947368421 -9.52631578947 c 128,-1,106
 338 -48 338 -48 296 -97.5 c 128,-1,107
 254 -147 254 -147 229 -170.5 c 128,-1,108
 204 -194 204 -194 166.5 -230 c 128,-1,109
 129 -266 129 -266 102 -283.5 c 128,-1,110
 75 -301 75 -301 43 -321 c 0,111,112
 -13 -356 -13 -356 -72 -356 c 0,113,114
 -146 -356 -146 -356 -146 -287 c 0,115,116
 -146 -232 -146 -232 -100 -148 c 128,-1,117
 -54 -64 -54 -64 13 12.5 c 128,-1,118
 80 89 80 89 163.5 144.5 c 128,-1,119
 247 200 247 200 313 200 c 0,120,121
 357 200 357 200 376 173 c 1,122,123
 446 217 446 217 530 235 c 1,124,125
 755 524 755 524 880 626 c 1,126,127
 858 628 858 628 799 636 c 0,128,129
 673.625 653 673.625 653 612.8125 653 c 128,-1,130
 552 653 552 653 511 642 c 1,131,132
 527 616 527 616 527 593.5 c 128,-1,133
 527 571 527 571 526 566 c 1,134,135
 552 573 552 573 573 573 c 0,136,137
 621 573 621 573 621 536 c 0,138,139
 621 485 621 485 546.5 417.5 c 128,-1,140
 472 350 472 350 398 350 c 0,141,142
 343 350 343 350 315.5 373 c 128,-1,143
 288 396 288 396 288 434 c 0,144,145
 288 489 288 489 341 550.5 c 128,-1,146
 394 612 394 612 479 646 c 1,147,148
 438 694 438 694 348 694 c 0,149,150
 280 694 280 694 221.5 674 c 128,-1,151
 163 654 163 654 128.5 625.5 c 0,152,153
 56.2701252236 565.831842576 56.2701252236 565.831842576 34.5 520 c 2,154,-1
 25 500 l 1,155,156
 20 492 20 492 14 492 c 128,-1,157
 8 492 8 492 8 503 c 1,158,159
 19.154185022 532.744493392 19.154185022 532.744493392 49.077092511 571.372246696 c 128,-1,160
 79 610 79 610 114.5 637 c 128,-1,161
 150 664 150 664 214 686.5 c 128,-1,162
 278 709 278 709 355 709 c 0,163,164
 460 709 460 709 503 654 c 1,76,77
EndSplineSet
EndChar

StartChar: K
Encoding: 75 75 10
Width: 1153
Flags: HMW
HStem: -59 190<267.5 288 267.5 323.5> -23 21G<1196.5 1274> -6 21G<1342 1342.5> -5 21G<1345 1348.5> 107 24<267.5 282.5> 107 155<168 282.5> 107 174<251.5 481.5> 266 91<440 614.5 546 694.5> 340 223<532 754> 454 247 548 122<718.5 851> 625 76 648 22<795.5 829.5> 690 20G<1173.5 1213>
VStem: 19 29<57 127> 227 21<145 149>
LayerCount: 2
Fore
SplineSet
611 484 m 0,0,1
 611 478 611 478 622 478 c 128,-1,2
 633 478 633 478 645.5 493.5 c 128,-1,3
 658 509 658 509 664 532 c 1,4,5
 642 521 642 521 626.5 506.5 c 128,-1,6
 611 492 611 492 611 484 c 0,0,1
648 246 m 0,7,8
 648 229 648 229 678 220 c 1,9,-1
 714 264 l 1,10,11
 698 266 698 266 687 266 c 128,-1,12
 676 266 676 266 662 260 c 128,-1,13
 648 254 648 254 648 246 c 0,7,8
704 214 m 1,14,15
 713 212 713 212 740 212 c 128,-1,16
 767 212 767 212 804 222 c 1,17,18
 768 247 768 247 740 256 c 1,19,-1
 704 214 l 1,14,15
248 151 m 0,20,21
 248 131 248 131 278.5 131 c 128,-1,22
 309 131 309 131 309 174 c 0,23,24
 309 194 309 194 296 213 c 1,25,26
 248 179 248 179 248 151 c 0,20,21
1187 694 m 0,27,28
 1129 694 1129 694 1067 645 c 1,29,30
 1082 644 1082 644 1115 644 c 128,-1,31
 1148 644 1148 644 1175 658.5 c 128,-1,32
 1202 673 1202 673 1202 685 c 0,33,34
 1202 694 1202 694 1187 694 c 0,27,28
589 469 m 0,35,36
 589 486 589 486 611 510 c 128,-1,37
 633 534 633 534 667 548 c 1,38,39
 668 553 668 553 668 573 c 128,-1,40
 668 593 668 593 653 620 c 1,41,42
 582 589 582 589 540 532.5 c 128,-1,43
 498 476 498 476 498 426 c 0,44,45
 498 395 498 395 516.5 376 c 128,-1,46
 535 357 535 357 571 357 c 0,47,48
 632 357 632 357 694.5 417 c 128,-1,49
 757 477 757 477 757 521 c 0,50,51
 757 548 757 548 725 548 c 0,52,53
 710 548 710 548 687 541 c 1,54,55
 679 505 679 505 656.5 479.5 c 128,-1,56
 634 454 634 454 611.5 454 c 128,-1,57
 589 454 589 454 589 469 c 0,35,36
472 266 m 0,58,59
 386 266 386 266 315 226 c 1,60,61
 327 207 327 207 327 180.5 c 128,-1,62
 327 154 327 154 309 130.5 c 128,-1,63
 291 107 291 107 264 107 c 0,64,65
 227 107 227 107 227 137 c 0,66,67
 227 179 227 179 287 224 c 1,68,69
 263 246 263 246 226 246 c 0,70,71
 148 246 148 246 98 198.5 c 128,-1,72
 48 151 48 151 48 93 c 128,-1,73
 48 35 48 35 96.5 -3.5 c 128,-1,74
 145 -42 145 -42 241 -42 c 0,75,76
 361 -42 361 -42 463.5 24 c 128,-1,77
 566 90 566 90 667 207 c 1,78,79
 628 222 628 222 628 246 c 0,80,81
 628 261 628 261 646.5 269.5 c 128,-1,82
 665 278 665 278 685.5 278 c 128,-1,83
 706 278 706 278 722 274 c 1,84,85
 746 304 746 304 814.5 394.5 c 128,-1,86
 883 485 883 485 928 537.5 c 128,-1,87
 973 590 973 590 1018 628 c 1,88,89
 999 630 999 630 950.5 636 c 0,90,91
 853.5 648 853.5 648 790.75 648 c 128,-1,92
 728 648 728 648 676 629 c 1,93,94
 691 602 691 602 691 581.5 c 128,-1,95
 691 561 691 561 690 556 c 1,96,97
 716 563 716 563 737 563 c 0,98,99
 785 563 785 563 785 526 c 0,100,101
 785 475 785 475 710.5 407.5 c 128,-1,102
 636 340 636 340 562 340 c 0,103,104
 519 340 519 340 496.5 362 c 128,-1,105
 474 384 474 384 474 420 c 0,106,107
 474 474 474 474 520 535 c 128,-1,108
 566 596 566 596 646 632 c 1,109,110
 606 684 606 684 512 684 c 0,111,112
 444 684 444 684 385.5 664 c 128,-1,113
 327 644 327 644 292.5 615.5 c 0,114,115
 220.270125224 555.831842576 220.270125224 555.831842576 198.5 510 c 2,116,-1
 189 490 l 1,117,118
 184 482 184 482 178 482 c 128,-1,119
 172 482 172 482 172 493 c 1,120,121
 183.154185022 522.744493392 183.154185022 522.744493392 213.077092511 561.372246696 c 128,-1,122
 243 600 243 600 278.5 627 c 128,-1,123
 314 654 314 654 378 676.5 c 128,-1,124
 442 699 442 699 519 699 c 0,125,126
 626 699 626 699 669 642 c 1,127,128
 743 670 743 670 825 670 c 0,129,130
 854 670 854 670 933 660 c 128,-1,131
 1012 650 1012 650 1041 647 c 1,132,133
 1123 710 1123 710 1202 710 c 0,134,135
 1233 710 1233 710 1233 694 c 0,136,137
 1233 673 1233 673 1189 649 c 128,-1,138
 1145 625 1145 625 1087 625 c 0,139,140
 1058 625 1058 625 1044 626 c 1,141,142
 975.967446126 564.604768455 975.967446126 564.604768455 847.5 394 c 0,143,144
 785 311 785 311 748 266 c 1,145,146
 781 254 781 254 825 228 c 1,147,148
 951.591746136 267.8850707 951.591746136 267.8850707 1135.5 431.5 c 0,149,150
 1208 496 1208 496 1283.5 558 c 128,-1,151
 1359 620 1359 620 1443 660.5 c 128,-1,152
 1527 701 1527 701 1607 701 c 0,153,154
 1617 701 1617 701 1617 689 c 0,155,156
 1617 685 1617 685 1615 685 c 2,157,-1
 1608 685 l 2,158,159
 1524 685 1524 685 1444.5 645 c 128,-1,160
 1365 605 1365 605 1298 544.5 c 128,-1,161
 1231 484 1231 484 1165 420.5 c 128,-1,162
 1099 357 1099 357 1014.5 299 c 128,-1,163
 930 241 930 241 842 217 c 1,164,165
 878 194 878 194 944 144 c 128,-1,166
 1010 94 1010 94 1055 62 c 128,-1,167
 1100 30 1100 30 1158.5 3.5 c 128,-1,168
 1217 -23 1217 -23 1254 -23 c 128,-1,169
 1291 -23 1291 -23 1343.5 -5.5 c 0,170,171
 1345 -5 1345 -5 1346 -5 c 0,172,173
 1356 -5 1356 -5 1356 -11 c 0,174,175
 1356 -22 1356 -22 1316.5 -29 c 128,-1,176
 1277 -36 1277 -36 1246 -36 c 0,177,178
 1185 -36 1185 -36 1120.5 -7.5 c 128,-1,179
 1056 21 1056 21 1014 53 c 128,-1,180
 972 85 972 85 909.5 138 c 128,-1,181
 847 191 847 191 819 211 c 1,182,183
 765 199 765 199 731 199 c 128,-1,184
 697 199 697 199 692 200 c 1,185,186
 585 79 585 79 472.5 10 c 128,-1,187
 360 -59 360 -59 229 -59 c 0,188,189
 125 -59 125 -59 72 -18 c 128,-1,190
 19 23 19 23 19 87.5 c 128,-1,191
 19 152 19 152 79.5 207 c 128,-1,192
 140 262 140 262 233 262 c 0,193,194
 282 262 282 262 306 236 c 1,195,196
 379 281 379 281 479 281 c 0,197,198
 486 281 486 281 486 275 c 0,199,200
 486 266 486 266 472 266 c 0,58,59
EndSplineSet
EndChar

StartChar: L
Encoding: 76 76 11
Width: 949
Flags: HMW
HStem: -16 21G<68 121> -10 25<649.5 716> -2 21G<87 142.5> 366 184<656 723.5> 442 151<1029 1062 1029 1066> 576 146<1043 1045.5>
VStem: 599 23<419.5 456.5> 957 124<487.5 581.5> 1209 30<612.5 663.5>
LayerCount: 2
Fore
SplineSet
979 500 m 0,0,1
 979 492 979 492 980 489 c 1,2,3
 1057 540 1057 540 1057 567 c 0,4,5
 1057 576 1057 576 1037.5 576 c 128,-1,6
 1018 576 1018 576 998.5 551 c 128,-1,7
 979 526 979 526 979 500 c 0,0,1
-3 35 m 0,8,9
 -2 -2 -2 -2 107 -2 c 128,-1,10
 216 -2 216 -2 315 42 c 1,11,12
 192 67 192 67 94 67 c 1,13,14
 -3 61 -3 61 -3 35 c 0,8,9
1081 576 m 0,15,16
 1081 537 1081 537 986 476 c 1,17,18
 1000 459 1000 459 1030 459 c 0,19,20
 1090 459 1090 459 1149.5 523.5 c 128,-1,21
 1209 588 1209 588 1209 645 c 0,22,23
 1209 709 1209 709 1125 709 c 0,24,25
 1009.48453608 709 1009.48453608 709 912 610.5 c 0,26,27
 864 562 864 562 825.5 512.5 c 128,-1,28
 787 463 787 463 762 426.5 c 128,-1,29
 737 390 737 390 736 389 c 0,30,31
 733 386 733 386 731 382 c 1,32,33
 831 398 831 398 959 475 c 1,34,35
 957 480 957 480 957 490 c 0,36,37
 957 524 957 524 987.5 558.5 c 128,-1,38
 1018 593 1018 593 1049.5 593 c 128,-1,39
 1081 593 1081 593 1081 576 c 0,15,16
731 529 m 0,40,41
 730 529 730 529 725.5 532.5 c 128,-1,42
 721 536 721 536 715 536 c 0,43,44
 677 536 677 536 649.5 506 c 128,-1,45
 622 476 622 476 622 441 c 0,46,47
 622 381 622 381 690 379 c 1,48,49
 809.014689376 532.396710751 809.014689376 532.396710751 865.096737996 588.257618624 c 0,50,51
 999.368575321 722 999.368575321 722 1135 722 c 0,52,53
 1239 722 1239 722 1239 654 c 0,54,55
 1239 591 1239 591 1163.5 516.5 c 128,-1,56
 1088 442 1088 442 1022 442 c 0,57,58
 980 442 980 442 965 463 c 1,59,60
 838 388 838 388 722 369 c 1,61,62
 639 259 639 259 559.5 181 c 128,-1,63
 480 103 480 103 379 53 c 1,64,65
 388 52 388 52 439 43 c 128,-1,66
 490 34 490 34 509 31.5 c 128,-1,67
 528 29 528 29 568.5 24 c 0,68,69
 641.4 15 641.4 15 711 15 c 0,70,71
 848 15 848 15 932 70 c 0,72,73
 936 73 936 73 939 73 c 128,-1,74
 942 73 942 73 942 67 c 128,-1,75
 942 61 942 61 935 56 c 0,76,77
 905 31 905 31 823.5 10.5 c 128,-1,78
 742 -10 742 -10 659 -10 c 0,79,80
 560 -10 560 -10 444.5 14.5 c 0,81,82
 428 18 428 18 392 25.5 c 128,-1,83
 356 33 356 33 342 36 c 1,84,85
 215 -16 215 -16 68 -16 c 1,86,87
 -31 -9 -31 -9 -31 27 c 1,88,89
 -24 79 -24 79 121 79 c 0,90,91
 212 79 212 79 349 58 c 1,92,93
 439 105 439 105 515 179.5 c 128,-1,94
 591 254 591 254 680 366 c 1,95,96
 599 366 599 366 599 430 c 0,97,98
 599 471 599 471 636 510.5 c 128,-1,99
 673 550 673 550 717 550 c 0,100,101
 726 550 726 550 731.5 545 c 128,-1,102
 737 540 737 540 737 534.5 c 128,-1,103
 737 529 737 529 731 529 c 0,40,41
EndSplineSet
EndChar

StartChar: M
Encoding: 77 77 12
Width: 1117
Flags: HMW
HStem: -53 21G<931 964.5> -46 176<144 248> -28 21G<158 321.5 646 648.5> 119 140<141.5 252.5> 329 20<588.5 602.5 588.5 605.5> 436 232<388.5 791.5> 679 20G<1094.5 1134>
VStem: 25 26<80.5 144.5> 215 82<130 190.5> 658 72<493.5 510 510 515 493.5 528.5> 713 130<518 656.5> 885 36<-3 65.5>
LayerCount: 2
Fore
SplineSet
266 147 m 128,-1,1
 279 164 279 164 279 179 c 128,-1,2
 279 194 279 194 276 201 c 1,3,4
 255 183 255 183 242.5 165 c 128,-1,5
 230 147 230 147 230 138.5 c 128,-1,6
 230 130 230 130 237 130 c 0,7,0
 253 130 253 130 266 147 c 128,-1,1
585 357 m 0,8,9
 585 349 585 349 590 349 c 0,10,11
 609 349 609 349 628 378 c 128,-1,12
 647 407 647 407 654 447 c 1,13,14
 585 385 585 385 585 357 c 0,8,9
813 636 m 0,15,16
 813 642 813 642 807 642 c 0,17,18
 782 642 782 642 760 608.5 c 128,-1,19
 738 575 738 575 732 534 c 1,20,21
 813 606 813 606 813 636 c 0,15,16
501 668 m 0,22,23
 591 668 591 668 633 617.5 c 128,-1,24
 675 567 675 567 675 494 c 2,25,-1
 675 485 l 1,26,-1
 713 518 l 1,27,28
 716 573 716 573 748.5 620.5 c 128,-1,29
 781 668 781 668 828 668 c 0,30,31
 843 668 843 668 843 648.5 c 128,-1,32
 843 629 843 629 813.5 596 c 128,-1,33
 784 563 784 563 730 515 c 1,34,-1
 730 510 l 2,35,36
 730 451 730 451 775 451 c 0,37,38
 807 451 807 451 826 468 c 0,39,40
 834 474 834 474 837.5 474 c 128,-1,41
 841 474 841 474 841 468.5 c 128,-1,42
 841 463 841 463 837 461.5 c 128,-1,43
 833 460 833 460 827.5 455.5 c 128,-1,44
 822 451 822 451 816 447 c 0,45,46
 799.5 436 799.5 436 770 436 c 0,47,48
 718 436 718 436 713 500 c 1,49,-1
 673 465 l 1,50,51
 667 410 667 410 641.5 369.5 c 128,-1,52
 616 329 616 329 584 329 c 0,53,54
 563 329 563 329 563 350 c 0,55,56
 563 386 563 386 657 469 c 1,57,58
 658 476 658 476 658 489 c 0,59,60
 658 557 658 557 615.5 603.5 c 128,-1,61
 573 650 573 650 478 650 c 0,62,63
 431.076923077 650 431.076923077 650 374.538461538 632.5 c 0,64,65
 267.04 599.226666667 267.04 599.226666667 188 506 c 0,66,67
 182 500 182 500 176 491.5 c 0,68,69
 165.058823529 476 165.058823529 476 161 476 c 1,70,71
 154 480 154 480 154 485 c 1,72,73
 174.408163265 513.571428571 174.408163265 513.571428571 209.204081633 546.785714286 c 128,-1,74
 244 580 244 580 281.5 604 c 128,-1,75
 319 628 319 628 378.5 648 c 128,-1,76
 438 668 438 668 501 668 c 0,22,23
451 277 m 1,77,-1
 471 276 l 2,78,79
 487 275 487 275 487 264 c 1,80,81
 485.5 261 485.5 261 481.25 261 c 128,-1,82
 477 261 477 261 469 263 c 128,-1,83
 461 265 461 265 448 265 c 0,84,85
 362 265 362 265 291 213 c 1,86,87
 297 199.5 297 199.5 297 179.25 c 128,-1,88
 297 159 297 159 279 139 c 128,-1,89
 261 119 261 119 238 119 c 128,-1,90
 215 119 215 119 215 135 c 0,91,92
 215 168 215 168 271 213 c 1,93,94
 250 245 250 245 187 245 c 128,-1,95
 124 245 124 245 87.5 207 c 128,-1,96
 51 169 51 169 51 113.5 c 128,-1,97
 51 58 51 58 93.5 15 c 128,-1,98
 136 -28 136 -28 212 -28 c 0,99,100
 342.358208955 -28 342.358208955 -28 477.5 71.5 c 0,101,102
 523 105 523 105 551.5 129 c 128,-1,103
 580 153 580 153 619.5 193 c 128,-1,104
 659 233 659 233 673.5 249 c 2,105,-1
 717 297 l 1,106,107
 750.517241379 337.965517241 750.517241379 337.965517241 799.75862069 392.482758621 c 128,-1,108
 849 447 849 447 889 491.5 c 128,-1,109
 929 536 929 536 962.5 569.5 c 128,-1,110
 996 603 996 603 1030 634 c 0,111,112
 1101.29032258 699 1101.29032258 699 1132 699 c 0,113,114
 1141 699 1141 699 1141 691.5 c 128,-1,115
 1141 684 1141 684 1133 680 c 0,116,117
 1095 656 1095 656 1036.5 562.5 c 128,-1,118
 978 469 978 469 902 335 c 128,-1,119
 826 201 826 201 774 129 c 1,120,121
 789 139 789 139 867.5 217 c 128,-1,122
 946 295 946 295 1035 381.5 c 128,-1,123
 1124 468 1124 468 1237.5 558.5 c 128,-1,124
 1351 649 1351 649 1433 687 c 0,125,126
 1447 693 1447 693 1452 693 c 0,127,128
 1463 693 1463 693 1463 684 c 0,129,130
 1463 680 1463 680 1456 677 c 1,131,132
 1387 629 1387 629 1260.5 496 c 128,-1,133
 1134 363 1134 363 1027.5 217.5 c 128,-1,134
 921 72 921 72 921 11 c 0,135,136
 921 -36 921 -36 960 -36 c 0,137,138
 1012.63636364 -36 1012.63636364 -36 1075 13 c 0,139,140
 1104.27272727 36 1104.27272727 36 1108 36 c 0,141,142
 1118 36 1118 36 1118 29 c 0,143,144
 1118 26 1118 26 1115 23 c 0,145,146
 1007 -53 1007 -53 946 -53 c 128,-1,147
 885 -53 885 -53 885 4 c 0,148,149
 885 47 885 47 939.5 134.5 c 128,-1,150
 994 222 994 222 1070 313 c 0,151,152
 1251.27580894 530.053929122 1251.27580894 530.053929122 1353.5 614.5 c 0,153,154
 1365 624 1365 624 1375.5 633.5 c 2,155,-1
 1386 643 l 1,156,157
 1322 612 1322 612 1207.5 514.5 c 128,-1,158
 1093 417 1093 417 971.5 297.5 c 0,159,160
 767.030939227 96.3966850829 767.030939227 96.3966850829 659 -19 c 1,161,162
 653 -28 653 -28 646 -28 c 1,163,164
 640 -24 640 -24 640 -19.5 c 128,-1,165
 640 -15 640 -15 643 -12 c 128,-1,166
 646 -9 646 -9 656 5 c 0,167,168
 684 44.2 684 44.2 703 67 c 0,169,170
 740 110 740 110 878.5 349 c 128,-1,171
 1017 588 1017 588 1065 640 c 1,172,173
 965.038182512 559.673539519 965.038182512 559.673539519 806.5 371 c 0,174,175
 661.288331726 198.18611379 661.288331726 198.18611379 524.5 86 c 0,176,177
 455 29 455 29 370.5 -8.5 c 128,-1,178
 286 -46 286 -46 202.5 -46 c 128,-1,179
 119 -46 119 -46 72 -1 c 128,-1,180
 25 44 25 44 25 106 c 128,-1,181
 25 168 25 168 71.5 213.5 c 128,-1,182
 118 259 118 259 188.5 259 c 128,-1,183
 259 259 259 259 285 224 c 1,184,185
 360 277 360 277 451 277 c 1,77,-1
EndSplineSet
EndChar

StartChar: N
Encoding: 78 78 13
Width: 904
Flags: HMW
HStem: -46 23<157 380> 93 173<228 240 159 253> 329 20<609.5 623.5 609.5 626.5> 355 21<1391.5 1462> 436 232<409.5 812.5> 533 20<1459.5 1505.5> 683 20G<1173.5 1177.5>
VStem: 211 94<110.5 199.5> 679 72<493.5 510 510 515> 734 130<518 656.5> 1694 24<564 614.5>
LayerCount: 2
Fore
SplineSet
272.5 145.5 m 128,-1,1
 288 168 288 168 288 185 c 128,-1,2
 288 202 288 202 285 209 c 1,3,4
 261 188 261 188 248 166.5 c 128,-1,5
 235 145 235 145 235 134 c 128,-1,6
 235 123 235 123 242 123 c 0,7,0
 257 123 257 123 272.5 145.5 c 128,-1,1
606 357 m 0,8,9
 606 349 606 349 611 349 c 0,10,11
 630 349 630 349 649 378 c 128,-1,12
 668 407 668 407 675 447 c 1,13,14
 606 385 606 385 606 357 c 0,8,9
834 636 m 0,15,16
 834 642 834 642 828 642 c 0,17,18
 803 642 803 642 781 608.5 c 128,-1,19
 759 575 759 575 753 534 c 1,20,21
 834 606 834 606 834 636 c 0,15,16
522 668 m 0,22,23
 612 668 612 668 654 617.5 c 128,-1,24
 696 567 696 567 696 494 c 2,25,-1
 696 485 l 1,26,-1
 734 518 l 1,27,28
 737 573 737 573 769.5 620.5 c 128,-1,29
 802 668 802 668 849 668 c 0,30,31
 864 668 864 668 864 648.5 c 128,-1,32
 864 629 864 629 834.5 596 c 128,-1,33
 805 563 805 563 751 515 c 1,34,-1
 751 510 l 2,35,36
 751 451 751 451 796 451 c 0,37,38
 828 451 828 451 847 468 c 0,39,40
 854 474 854 474 858 474 c 128,-1,41
 862 474 862 474 862 468.5 c 128,-1,42
 862 463 862 463 858 461.5 c 128,-1,43
 854 460 854 460 848.5 455.5 c 128,-1,44
 843 451 843 451 837 447 c 0,45,46
 820.5 436 820.5 436 791 436 c 0,47,48
 739 436 739 436 734 500 c 1,49,-1
 694 465 l 1,50,51
 688 410 688 410 662.5 369.5 c 128,-1,52
 637 329 637 329 605 329 c 0,53,54
 584 329 584 329 584 350 c 0,55,56
 584 386 584 386 678 469 c 1,57,58
 679 476 679 476 679 489 c 0,59,60
 679 557 679 557 636.5 603.5 c 128,-1,61
 594 650 594 650 499 650 c 0,62,63
 452.076923077 650 452.076923077 650 395.538461538 632.5 c 0,64,65
 288.04 599.226666667 288.04 599.226666667 209 506 c 0,66,67
 203 500 203 500 197 491.5 c 0,68,69
 186.058823529 476 186.058823529 476 182 476 c 1,70,71
 175 480 175 480 175 485 c 1,72,73
 195.408163265 513.571428571 195.408163265 513.571428571 230.204081633 546.785714286 c 128,-1,74
 265 580 265 580 302.5 604 c 128,-1,75
 340 628 340 628 399.5 648 c 128,-1,76
 459 668 459 668 522 668 c 0,22,23
499 298 m 0,77,78
 510 298 510 298 510 290 c 128,-1,79
 510 282 510 282 499 282 c 0,80,81
 381 282 381 282 300 222 c 1,82,83
 305 207 305 207 305 195 c 0,84,85
 305 159 305 159 283 126 c 128,-1,86
 261 93 261 93 236 93 c 128,-1,87
 211 93 211 93 211 118 c 0,88,89
 211 138 211 138 229 166.5 c 128,-1,90
 247 195 247 195 279 222 c 1,91,92
 259 249 259 249 208 249 c 0,93,94
 138 249 138 249 90 202.5 c 128,-1,95
 42 156 42 156 42 101.5 c 128,-1,96
 42 47 42 47 86.5 12 c 128,-1,97
 131 -23 131 -23 214 -23 c 128,-1,98
 297 -23 297 -23 377.5 11 c 128,-1,99
 458 45 458 45 531 101 c 128,-1,100
 604 157 604 157 676 226 c 128,-1,101
 748 295 748 295 815.5 369 c 128,-1,102
 883 443 883 443 943.5 508 c 0,103,104
 1085.6486324 660.721671175 1085.6486324 660.721671175 1170 702 c 0,105,106
 1172 703 1172 703 1174 703 c 0,107,108
 1183 703 1183 703 1183 691 c 0,109,110
 1183 686.166666667 1183 686.166666667 1171.5 676.583333333 c 0,111,112
 1142 652 1142 652 1123 633 c 1,113,114
 1082 582 1082 582 1038.5 506.5 c 128,-1,115
 995 431 995 431 973 386 c 0,116,117
 932.771428571 303.714285714 932.771428571 303.714285714 885.385714286 198.857142857 c 128,-1,118
 838 94 838 94 838 90.5 c 128,-1,119
 838 87 838 87 840 87 c 1,120,121
 850 96 850 96 910.5 170 c 128,-1,122
 971 244 971 244 1044 322.5 c 128,-1,123
 1117 401 1117 401 1210 484.5 c 128,-1,124
 1303 568 1303 568 1409.5 622 c 128,-1,125
 1516 676 1516 676 1610 676 c 0,126,127
 1718 676 1718 676 1718 611 c 0,128,129
 1718 565 1718 565 1666 504 c 128,-1,130
 1614 443 1614 443 1536.5 399 c 128,-1,131
 1459 355 1459 355 1394 355 c 0,132,133
 1360 355 1360 355 1342.5 371 c 128,-1,134
 1325 387 1325 387 1325 412 c 0,135,136
 1325 461 1325 461 1376.5 507 c 128,-1,137
 1428 553 1428 553 1505 553 c 0,138,139
 1516 553 1516 553 1519 546 c 1,140,141
 1519 541 1519 541 1513.5 537 c 128,-1,142
 1508 533 1508 533 1501 533 c 0,143,144
 1442 533 1442 533 1393 495 c 128,-1,145
 1344 457 1344 457 1344 420 c 0,146,147
 1344 376 1344 376 1420.5 376 c 128,-1,148
 1497 376 1497 376 1595.5 456.5 c 128,-1,149
 1694 537 1694 537 1694 598 c 0,150,151
 1694 654 1694 654 1596 654 c 0,152,153
 1521 654 1521 654 1435.5 614.5 c 128,-1,154
 1350 575 1350 575 1279.5 520.5 c 128,-1,155
 1209 466 1209 466 1124.5 381.5 c 128,-1,156
 1040 297 1040 297 988 235.5 c 128,-1,157
 936 174 936 174 866.5 90 c 128,-1,158
 797 6 797 6 781.5 -12 c 128,-1,159
 766 -30 766 -30 758.5 -30 c 128,-1,160
 751 -30 751 -30 751 -23 c 128,-1,161
 751 -16 751 -16 765.5 12 c 128,-1,162
 780 40 780 40 798 74 c 0,163,164
 816.72 109.36 816.72 109.36 858.86 205.68 c 128,-1,165
 901 302 901 302 925 353.5 c 128,-1,166
 949 405 949 405 965.5 434.5 c 128,-1,167
 982 464 982 464 1004.5 504 c 0,168,169
 1042.10169492 570.847457627 1042.10169492 570.847457627 1093 631 c 1,170,171
 1031 578 1031 578 939.5 479.5 c 128,-1,172
 848 381 848 381 768.5 297.5 c 128,-1,173
 689 214 689 214 597 132 c 128,-1,174
 505 50 505 50 406.5 2 c 128,-1,175
 308 -46 308 -46 214 -46 c 128,-1,176
 120 -46 120 -46 71.5 -5.5 c 128,-1,177
 23 35 23 35 23 98 c 128,-1,178
 23 161 23 161 78 213.5 c 128,-1,179
 133 266 133 266 220 266 c 0,180,181
 275 266 275 266 295 233 c 1,182,183
 383 298 383 298 499 298 c 0,77,78
EndSplineSet
EndChar

StartChar: O
Encoding: 79 79 14
Width: 594
Flags: HMW
HStem: -29 21G<137.5 232> -11 21G<164.5 248.5> 322 26<449.5 456> 635 20G<574 703.5>
VStem: 36 32<78 197.5> 252 23<267.5 328.5> 252 236<322.5 328.5> 339 23<138 163> 752 28<483 573>
LayerCount: 2
Fore
SplineSet
462 316 m 0,0,1
 462 322 462 322 449.5 322 c 128,-1,2
 437 322 437 322 417.5 300.5 c 128,-1,3
 398 279 398 279 382 246 c 1,4,5
 411 260 411 260 436.5 282.5 c 128,-1,6
 462 305 462 305 462 316 c 0,0,1
752 545 m 0,7,8
 752 638 752 638 651 638 c 0,9,10
 598 638 598 638 530 597.5 c 128,-1,11
 462 557 462 557 407 501 c 128,-1,12
 352 445 352 445 313.5 384 c 128,-1,13
 275 323 275 323 275 283 c 0,14,15
 275 233 275 233 336 233 c 0,16,17
 345 233 345 233 357 236 c 1,18,19
 376 283 376 283 408 315.5 c 128,-1,20
 440 348 440 348 472 348 c 0,21,22
 488 348 488 348 488 331.5 c 128,-1,23
 488 315 488 315 454 281 c 128,-1,24
 420 247 420 247 376 229 c 1,25,26
 362 193 362 193 362 159 c 0,27,28
 362 86 362 86 427 70 c 1,29,30
 555 160 555 160 653.5 304.5 c 128,-1,31
 752 449 752 449 752 545 c 0,7,8
706 201 m 1,32,33
 716 211 716 211 719.5 211 c 128,-1,34
 723 211 723 211 723 205.5 c 128,-1,35
 723 200 723 200 711 188 c 0,36,37
 579 50 579 50 443 50 c 0,38,39
 431 50 431 50 426 51 c 1,40,41
 302 -29 302 -29 194 -29 c 0,42,43
 113 -29 113 -29 74.5 6.5 c 128,-1,44
 36 42 36 42 36 107.5 c 128,-1,45
 36 173 36 173 78.5 261 c 128,-1,46
 121 349 121 349 184 426 c 128,-1,47
 247 503 247 503 328 559 c 128,-1,48
 409 615 409 615 479 623 c 0,49,50
 486 623 486 623 486 617.5 c 128,-1,51
 486 612 486 612 476 611 c 0,52,53
 395 601 395 601 298 515 c 128,-1,54
 201 429 201 429 134.5 315 c 128,-1,55
 68 201 68 201 68 115 c 0,56,57
 68 -11 68 -11 219 -11 c 0,58,59
 303 -11 303 -11 404 54 c 1,60,61
 339 72 339 72 339 152 c 0,62,63
 339 186 339 186 351 221 c 1,64,65
 331 216 331 216 314 216 c 0,66,67
 252 216 252 216 252 270 c 0,68,69
 252 313 252 313 292 379.5 c 128,-1,70
 332 446 332 446 390.5 506.5 c 128,-1,71
 449 567 449 567 524 611 c 128,-1,72
 599 655 599 655 662 655 c 0,73,74
 780 655 780 655 780 549 c 0,75,76
 780 449 780 449 682 305.5 c 128,-1,77
 584 162 584 162 450 67 c 1,78,-1
 463 67 l 2,79,80
 508 67 508 67 578 100 c 128,-1,81
 648 133 648 133 706 201 c 1,32,33
EndSplineSet
EndChar

StartChar: P
Encoding: 80 80 15
Width: 715
Flags: HMW
HStem: -41 161<234 253 234 330.5> -26 21G<166.5 328.5> 103 177<225 239.5 154 253.5> 268 92 293 55 293 67 343 141<486 615> 458 26<596 609> 458 114<577.5 717> 458 245<361 609> 557 118 716 20G<1279 1284.5>
VStem: 14 35<73.5 145.5> 204 102<118.5 206.5> 434 24<398.5 442> 567 191<468.5 544.5> 652 35<319 325> 730 28<500.5 536> 1081 29<486.5 535>
LayerCount: 2
Fore
SplineSet
866 309 m 1,0,-1
 793 328 l 1,1,-1
 764 296 l 1,2,3
 814 296 814 296 866 309 c 1,0,-1
722 337 m 0,4,5
 687 337 687 337 687 324 c 0,6,7
 687 316 687 316 700 308.5 c 128,-1,8
 713 301 713 301 735 297 c 1,9,-1
 766 333 l 1,10,11
 738 337 738 337 722 337 c 0,4,5
613.5 525.5 m 128,-1,13
 592 504 592 504 592 494 c 128,-1,14
 592 484 592 484 598 484 c 0,15,16
 623 484 623 484 641 504 c 128,-1,17
 659 524 659 524 664 554 c 1,18,12
 635 547 635 547 613.5 525.5 c 128,-1,13
225 131 m 0,19,20
 225 120 225 120 242.5 120 c 128,-1,21
 260 120 260 120 275.5 143.5 c 128,-1,22
 291 167 291 167 291 196 c 0,23,24
 291 204 291 204 290 208 c 1,25,26
 225 160 225 160 225 131 c 0,19,20
803 340 m 1,27,-1
 897 319 l 1,28,29
 980 348 980 348 1030.5 405 c 128,-1,30
 1081 462 1081 462 1081 514.5 c 128,-1,31
 1081 567 1081 567 1044 603 c 1,32,33
 1003.27906977 567.069767442 1003.27906977 567.069767442 978.639534884 540.534883721 c 128,-1,34
 954 514 954 514 941 500.5 c 128,-1,35
 928 487 928 487 905 460 c 128,-1,36
 882 433 882 433 872.5 422.5 c 128,-1,37
 863 412 863 412 836.5 380 c 128,-1,38
 810 348 810 348 803 340 c 1,27,-1
687 557 m 1,39,-1
 680 556 l 1,40,41
 673 514 673 514 647 486 c 128,-1,42
 621 458 621 458 583 458 c 0,43,44
 567 458 567 458 567 476.5 c 128,-1,45
 567 495 567 495 596.5 526.5 c 128,-1,46
 626 558 626 558 666 568 c 1,47,-1
 666 573 l 2,48,49
 666 596 666 596 650 622 c 1,50,51
 562 585 562 585 510 524.5 c 128,-1,52
 458 464 458 464 458 415 c 0,53,54
 458 360 458 360 521.5 360 c 128,-1,55
 585 360 585 360 657.5 421.5 c 128,-1,56
 730 483 730 483 730 527 c 0,57,58
 730 557 730 557 687 557 c 1,39,-1
1279 736 m 0,59,60
 1287.66666667 736 1287.66666667 736 1290 729 c 1,61,62
 1290 720 1290 720 1271 717 c 0,63,64
 1170 705 1170 705 1064 619 c 1,65,66
 1110 580 1110 580 1110 523 c 128,-1,67
 1110 466 1110 466 1058.5 407 c 128,-1,68
 1007 348 1007 348 920 314 c 1,69,70
 968 306 968 306 1022 306 c 0,71,72
 1032 306 1032 306 1032 301 c 0,73,74
 1032 293 1032 293 1011 293 c 0,75,76
 941 293 941 293 891 304 c 1,77,78
 825 283 825 283 752 282 c 1,79,80
 689 210 689 210 636 159 c 128,-1,81
 583 108 583 108 515.5 58.5 c 0,82,83
 379.818181818 -41 379.818181818 -41 219 -41 c 0,84,85
 117 -41 117 -41 65.5 0.5 c 128,-1,86
 14 42 14 42 14 106.5 c 128,-1,87
 14 171 14 171 71 225.5 c 128,-1,88
 128 280 128 280 214 280 c 0,89,90
 283 280 283 280 301 232 c 1,91,92
 396 291 396 291 500 291 c 1,93,94
 513 288 513 288 513 281 c 0,95,96
 513 278 513 278 508 278 c 0,97,98
 399 278 399 278 305 218 c 1,99,100
 306 214 306 214 306 204 c 0,101,102
 306 168 306 168 284 135.5 c 128,-1,103
 262 103 262 103 233 103 c 128,-1,104
 204 103 204 103 204 125 c 0,105,106
 204 144 204 144 226.5 171 c 128,-1,107
 249 198 249 198 286 223 c 1,108,109
 268 268 268 268 203.5 268 c 128,-1,110
 139 268 139 268 94 218.5 c 128,-1,111
 49 169 49 169 49 110 c 128,-1,112
 49 51 49 51 94.5 12.5 c 128,-1,113
 140 -26 140 -26 221 -26 c 128,-1,114
 302 -26 302 -26 368 -2.5 c 128,-1,115
 434 21 434 21 496.5 68 c 128,-1,116
 559 115 559 115 609.5 163.5 c 128,-1,117
 660 212 660 212 722 282 c 1,118,119
 689 284 689 284 670.5 294 c 128,-1,120
 652 304 652 304 652 317 c 128,-1,121
 652 330 652 330 672.5 339 c 128,-1,122
 693 348 693 348 720.5 348 c 128,-1,123
 748 348 748 348 776 344 c 1,124,125
 785 354 785 354 817 391.5 c 128,-1,126
 849 429 849 429 861 442.5 c 128,-1,127
 873 456 873 456 900.5 486.5 c 128,-1,128
 928 517 928 517 945 534 c 0,129,130
 1001 590 1001 590 1029 614 c 1,131,132
 964 659 964 659 842 659 c 0,133,134
 750 659 750 659 667 629 c 1,135,136
 682 605 682 605 682 590 c 128,-1,137
 682 575 682 575 681 571 c 1,138,139
 685 572 685 572 694 572 c 0,140,141
 758 572 758 572 758 533 c 0,142,143
 758 501 758 501 718 456 c 128,-1,144
 678 411 678 411 619 377 c 128,-1,145
 560 343 560 343 517 343 c 128,-1,146
 474 343 474 343 454 361 c 128,-1,147
 434 379 434 379 434 409 c 0,148,149
 434 462 434 462 490.5 527.5 c 128,-1,150
 547 593 547 593 642 633 c 1,151,152
 593 689 593 689 491 689 c 0,153,154
 422 689 422 689 361.5 667.5 c 128,-1,155
 301 646 301 646 263.5 615 c 0,156,157
 186.019455253 550.949416342 186.019455253 550.949416342 158.5 499.5 c 2,158,-1
 147 478 l 2,159,160
 142 470 142 470 136 470 c 128,-1,161
 130 470 130 470 130 481 c 1,162,163
 144.048 512.608 144.048 512.608 178.024 554.804 c 128,-1,164
 212 597 212 597 250 626 c 128,-1,165
 288 655 288 655 354.5 679 c 128,-1,166
 421 703 421 703 498 703 c 0,167,168
 607 703 607 703 659 640 c 1,169,170
 754 675 754 675 868 675 c 128,-1,171
 982 675 982 675 1049 631 c 1,172,173
 1168 726 1168 726 1279 736 c 0,59,60
EndSplineSet
EndChar

StartChar: Q
Encoding: 81 81 16
Width: 583
Flags: HMW
HStem: -166 21G<390.5 392> -22 20<28 33> -1 106<195.5 308.5> 93 192<263 426> 523 160<564 738.5>
VStem: 46 32<135 228.5> 277 31<324 392.5> 469 24<-48.5 -10> 600 28<478 508> 780 31<512 603.5>
LayerCount: 2
Fore
SplineSet
104 64 m 1,0,1
 118 46 118 46 139 35 c 1,2,3
 180 59 180 59 222 91 c 1,4,5
 160 84 160 84 104 64 c 1,0,1
112 20 m 1,6,7
 87 34 87 34 73 52 c 1,8,9
 13 24 13 24 13 7 c 0,10,11
 13 -2 13 -2 39 -2 c 128,-1,12
 65 -2 65 -2 112 20 c 1,6,7
230 16 m 0,13,14
 307 16 307 16 399 69 c 1,15,16
 347 93 347 93 266 93 c 0,17,18
 255 93 255 93 249 92 c 1,19,20
 197 53 197 53 154 28 c 1,21,22
 184 16 184 16 230 16 c 0,13,14
336 199 m 0,23,24
 341 206 341 206 349.5 206 c 128,-1,25
 358 206 358 206 358 197 c 0,26,27
 358 191 358 191 330 162.5 c 128,-1,28
 302 134 302 134 265 104 c 1,29,30
 271 105 271 105 284 105 c 0,31,32
 360 105 360 105 417 79 c 1,33,34
 556 165 556 165 668 319.5 c 128,-1,35
 780 474 780 474 780 576 c 0,36,37
 780 667 780 667 680 667 c 0,38,39
 611 667 611 667 540.5 631 c 128,-1,40
 470 595 470 595 420.5 543.5 c 128,-1,41
 371 492 371 492 339.5 436.5 c 128,-1,42
 308 381 308 381 308 341 c 0,43,44
 308 285 308 285 365 285 c 128,-1,45
 422 285 422 285 478.5 327 c 128,-1,46
 535 369 535 369 567.5 419.5 c 128,-1,47
 600 470 600 470 600 496.5 c 128,-1,48
 600 523 600 523 580 523 c 0,49,50
 558.208333333 523 558.208333333 523 530.5 488 c 0,51,52
 521 476 521 476 517 476 c 1,53,54
 511 478 511 478 511 482 c 0,55,56
 511 493 511 493 540 517.5 c 128,-1,57
 569 542 569 542 598.5 542 c 128,-1,58
 628 542 628 542 628 514 c 128,-1,59
 628 486 628 486 604 445 c 128,-1,60
 580 404 580 404 542.5 364.5 c 128,-1,61
 505 325 505 325 452.5 297 c 128,-1,62
 400 269 400 269 351 269 c 0,63,64
 277 269 277 269 277 334 c 0,65,66
 277 378 277 378 312.5 438 c 128,-1,67
 348 498 348 498 404 552.5 c 128,-1,68
 460 607 460 607 540 645 c 128,-1,69
 620 683 620 683 699 683 c 0,70,71
 811 683 811 683 811 582 c 0,72,73
 811 475 811 475 696.5 318 c 128,-1,74
 582 161 582 161 434 71 c 1,75,76
 493 37 493 37 493 -21 c 0,77,78
 493 -48 493 -48 478.5 -76.5 c 128,-1,79
 464 -105 464 -105 445.5 -123.5 c 128,-1,80
 427 -142 427 -142 411.5 -153.5 c 128,-1,81
 396 -165 396 -165 392 -166 c 1,82,83
 387 -166 387 -166 387 -160 c 128,-1,84
 387 -154 387 -154 393 -150 c 0,85,86
 429 -128 429 -128 449 -94 c 128,-1,87
 469 -60 469 -60 469 -31 c 0,88,89
 469 27 469 27 415 60 c 1,90,91
 307 -1 307 -1 213 -1 c 0,92,93
 163 -1 163 -1 127 13 c 1,94,95
 55 -22 55 -22 19.5 -22 c 128,-1,96
 -16 -22 -16 -22 -16 -6 c 0,97,98
 -16 6 -16 6 7 24.5 c 128,-1,99
 30 43 30 43 68 60 c 1,100,101
 46 94 46 94 46 143 c 0,102,103
 46 228 46 228 104.5 333.5 c 128,-1,104
 163 439 163 439 263.5 528 c 128,-1,105
 364 617 364 617 472 648 c 0,106,107
 476 649 476 649 481 649 c 128,-1,108
 486 649 486 649 486 643 c 0,109,110
 486 639 486 639 475 636 c 0,111,112
 378 610 378 610 284.5 524.5 c 128,-1,113
 191 439 191 439 134.5 335.5 c 128,-1,114
 78 232 78 232 78 150 c 0,115,116
 78 102 78 102 98 72 c 1,117,118
 167 96 167 96 237 103 c 1,119,120
 308 159 308 159 336 199 c 0,23,24
EndSplineSet
EndChar

StartChar: R
Encoding: 82 82 17
Width: 1002
Flags: HMW
HStem: -100 22<1037.5 1127.5> -51 161<223 242 223 304.5> 93 177<214 228.5 143 242.5> 258 102 343 141<495 624> 458 26<605 618> 458 114<586.5 726> 458 245<370 618> 557 118 706 20G<1268 1273.5>
VStem: 3 35<63.5 135.5> 193 102<108.5 196.5> 443 24<398.5 442> 576 191<468.5 544.5> 739 28<500.5 536> 1096 29<453.5 526>
LayerCount: 2
Fore
SplineSet
694 219 m 1,0,-1
 714 219 l 2,1,2
 746 219 746 219 762 221 c 1,3,4
 743 239 743 239 721 249 c 1,5,-1
 694 219 l 1,0,-1
698 257 m 1,6,7
 680 262 680 262 667.5 262 c 128,-1,8
 655 262 655 262 646 255.5 c 128,-1,9
 637 249 637 249 637 242 c 0,10,11
 637 228 637 228 666 223 c 1,12,-1
 698 257 l 1,6,7
622.5 525.5 m 128,-1,14
 601 504 601 504 601 494 c 128,-1,15
 601 484 601 484 607 484 c 0,16,17
 632 484 632 484 650 504 c 128,-1,18
 668 524 668 524 673 554 c 1,19,13
 644 547 644 547 622.5 525.5 c 128,-1,14
214 121 m 0,20,21
 214 110 214 110 231.5 110 c 128,-1,22
 249 110 249 110 264.5 133.5 c 128,-1,23
 280 157 280 157 280 186 c 0,24,25
 280 194 280 194 279 198 c 1,26,27
 214 150 214 150 214 121 c 0,20,21
696 557 m 1,28,-1
 689 556 l 1,29,30
 682 514 682 514 656 486 c 128,-1,31
 630 458 630 458 592 458 c 0,32,33
 576 458 576 458 576 476.5 c 128,-1,34
 576 495 576 495 605.5 526.5 c 128,-1,35
 635 558 635 558 675 568 c 1,36,-1
 675 573 l 2,37,38
 675 596 675 596 659 622 c 1,39,40
 571 585 571 585 519 524.5 c 128,-1,41
 467 464 467 464 467 415 c 0,42,43
 467 360 467 360 530.5 360 c 128,-1,44
 594 360 594 360 666.5 421.5 c 128,-1,45
 739 483 739 483 739 527 c 0,46,47
 739 557 739 557 696 557 c 1,28,-1
1057 392 m 128,-1,49
 1096 451 1096 451 1096 508.5 c 128,-1,50
 1096 566 1096 566 1049 606 c 1,51,52
 1000 566 1000 566 951.5 514.5 c 128,-1,53
 903 463 903 463 829 375 c 128,-1,54
 755 287 755 287 731 260 c 1,55,56
 762 248 762 248 788 225 c 1,57,58
 874 240 874 240 946 286.5 c 128,-1,48
 1018 333 1018 333 1057 392 c 128,-1,49
1268 726 m 0,59,60
 1276.66666667 726 1276.66666667 726 1279 719 c 1,61,62
 1279 710 1279 710 1260 707 c 0,63,64
 1163 694 1163 694 1070 623 c 1,65,66
 1125 581 1125 581 1125 512 c 0,67,68
 1125 420 1125 420 1032.5 331.5 c 128,-1,69
 940 243 940 243 798 215 c 1,70,71
 824 190 824 190 853.5 147.5 c 128,-1,72
 883 105 883 105 907.5 68.5 c 128,-1,73
 932 32 932 32 962.5 -3 c 0,74,75
 1027.85714286 -78 1027.85714286 -78 1126 -78 c 0,76,77
 1158 -78 1158 -78 1176.5 -71 c 128,-1,78
 1195 -64 1195 -64 1206 -59 c 0,79,80
 1232.4 -47 1232.4 -47 1237.7 -47 c 128,-1,81
 1243 -47 1243 -47 1243 -51 c 0,82,83
 1243 -58 1243 -58 1225 -68.5 c 128,-1,84
 1207 -79 1207 -79 1191 -84 c 0,85,86
 1133 -100 1133 -100 1109 -100 c 0,87,88
 1009.54666667 -100 1009.54666667 -100 940 -18.5 c 0,89,90
 908 19 908 19 883 57.5 c 128,-1,91
 858 96 858 96 828.5 141 c 128,-1,92
 799 186 799 186 774 211 c 1,93,94
 735 205 735 205 693 205 c 2,95,-1
 681 205 l 1,96,97
 568 84 568 84 455 16.5 c 128,-1,98
 342 -51 342 -51 208 -51 c 0,99,100
 106 -51 106 -51 54.5 -9.5 c 128,-1,101
 3 32 3 32 3 96.5 c 128,-1,102
 3 161 3 161 60 215.5 c 128,-1,103
 117 270 117 270 203 270 c 0,104,105
 272 270 272 270 290 222 c 1,106,107
 385 281 385 281 489 281 c 1,108,109
 502 278 502 278 502 271 c 0,110,111
 502 268 502 268 497 268 c 0,112,113
 388 268 388 268 294 208 c 1,114,115
 295 204 295 204 295 194 c 0,116,117
 295 158 295 158 273 125.5 c 128,-1,118
 251 93 251 93 222 93 c 128,-1,119
 193 93 193 93 193 115 c 0,120,121
 193 134 193 134 215.5 161 c 128,-1,122
 238 188 238 188 275 213 c 1,123,124
 257 258 257 258 192.5 258 c 128,-1,125
 128 258 128 258 83 208.5 c 128,-1,126
 38 159 38 159 38 100 c 128,-1,127
 38 41 38 41 83.5 2.5 c 128,-1,128
 129 -36 129 -36 232.5 -36 c 128,-1,129
 336 -36 336 -36 440 28.5 c 128,-1,130
 544 93 544 93 653 208 c 1,131,132
 604 219 604 219 604 244 c 0,133,134
 604 256 604 256 620.5 264.5 c 128,-1,135
 637 273 637 273 662 273 c 128,-1,136
 687 273 687 273 707 268 c 1,137,138
 730 294 730 294 806 382.5 c 128,-1,139
 882 471 882 471 932 523.5 c 128,-1,140
 982 576 982 576 1033 617 c 1,141,142
 970 659 970 659 864.5 659 c 128,-1,143
 759 659 759 659 676 629 c 1,144,145
 691 605 691 605 691 590 c 128,-1,146
 691 575 691 575 690 571 c 1,147,148
 694 572 694 572 703 572 c 0,149,150
 767 572 767 572 767 533 c 0,151,152
 767 501 767 501 727 456 c 128,-1,153
 687 411 687 411 628 377 c 128,-1,154
 569 343 569 343 526 343 c 128,-1,155
 483 343 483 343 463 361 c 128,-1,156
 443 379 443 379 443 409 c 0,157,158
 443 462 443 462 499.5 527.5 c 128,-1,159
 556 593 556 593 651 633 c 1,160,161
 602 689 602 689 500 689 c 0,162,163
 431 689 431 689 370.5 667.5 c 128,-1,164
 310 646 310 646 272.5 615 c 0,165,166
 195.019455253 550.949416342 195.019455253 550.949416342 167.5 499.5 c 2,167,-1
 156 478 l 2,168,169
 151 470 151 470 145 470 c 128,-1,170
 139 470 139 470 139 481 c 1,171,172
 153.048 512.608 153.048 512.608 187.024 554.804 c 128,-1,173
 221 597 221 597 259 626 c 128,-1,174
 297 655 297 655 363.5 679 c 128,-1,175
 430 703 430 703 507 703 c 0,176,177
 616 703 616 703 668 640 c 1,178,179
 763 675 763 675 875.5 675 c 128,-1,180
 988 675 988 675 1054 633 c 1,181,182
 1165 717 1165 717 1268 726 c 0,59,60
EndSplineSet
EndChar

StartChar: S
Encoding: 83 83 18
Width: 678
Flags: HMW
HStem: -37 175<251.5 266 251.5 396.5> -19 21G<191 398.5> 116 22<251.5 265> 116 154<154 265> 116 167 255 194<158 515> 268 181<432.5 479> 412 146<1139.5 1166> 412 203<844.5 934.5 844.5 1166> 539 154<1132 1291> 596 97 687 20G<288 415.5>
VStem: 32 30<88 155.5> 169 25<570 624> 226 84<128 187> 771 144<506 601.5 513 601.5> 1327 26<585.5 631.5>
LayerCount: 2
Fore
SplineSet
291 176 m 0,0,1
 291 188 291 188 285 202 c 1,2,3
 249 167 249 167 249 144 c 0,4,5
 249 138 249 138 253 138 c 0,6,7
 291 138 291 138 291 176 c 0,0,1
1156 533 m 0,8,9
 1156 539 1156 539 1141 539 c 128,-1,10
 1126 539 1126 539 1108 518.5 c 128,-1,11
 1090 498 1090 498 1087 475 c 1,12,13
 1156 514 1156 514 1156 533 c 0,8,9
797 526 m 2,14,-1
 797 517 l 1,15,16
 887 560 887 560 887 586 c 0,17,18
 887 596 887 596 860 596 c 128,-1,19
 833 596 833 596 815 576 c 128,-1,20
 797 556 797 556 797 526 c 2,14,-1
1193 543 m 128,-1,22
 1193 528 1193 528 1163 504 c 128,-1,23
 1133 480 1133 480 1086 457 c 1,24,25
 1091 429 1091 429 1129 429 c 0,26,27
 1189 429 1189 429 1258 494 c 128,-1,28
 1327 559 1327 559 1327 614 c 0,29,30
 1327 674 1327 674 1230 674 c 0,31,32
 1132.35526316 674 1132.35526316 674 1046.5 599 c 0,33,34
 1003 561 1003 561 969 522.5 c 128,-1,35
 935 484 935 484 889 425 c 1,36,37
 896 424 896 424 911 424 c 0,38,39
 986 424 986 424 1064 463 c 1,40,41
 1070 497 1070 497 1100 527.5 c 128,-1,42
 1130 558 1130 558 1161.5 558 c 128,-1,21
 1193 558 1193 558 1193 543 c 128,-1,22
272.5 498 m 128,-1,44
 351 449 351 449 466 449 c 128,-1,45
 581 449 581 449 684 476 c 1,46,47
 662 544 662 544 604 595 c 0,48,49
 493.68627451 692 493.68627451 692 346 692 c 0,50,51
 271 692 271 692 232.5 667.5 c 128,-1,52
 194 643 194 643 194 605 c 0,53,43
 194 547 194 547 272.5 498 c 128,-1,44
774 489 m 1,54,-1
 704 465 l 1,55,56
 712 431 712 431 712 395 c 128,-1,57
 712 359 712 359 695 302 c 1,58,59
 694 295 694 295 688.5 289 c 128,-1,60
 683 283 683 283 679.5 283 c 128,-1,61
 676 283 676 283 676 288 c 1,62,-1
 681 309 l 1,63,64
 696 358 696 358 696 393.5 c 128,-1,65
 696 429 696 429 688 461 c 1,66,67
 580 434 580 434 452 434 c 128,-1,68
 324 434 324 434 246.5 483 c 128,-1,69
 169 532 169 532 169 594 c 0,70,71
 169 642 169 642 215.5 674.5 c 128,-1,72
 262 707 262 707 347 707 c 0,73,74
 461 707 461 707 564.5 647.5 c 128,-1,75
 668 588 668 588 700 481 c 1,76,77
 734 490 734 490 771 506 c 1,78,-1
 771 513 l 2,79,80
 771 553 771 553 800.5 584 c 128,-1,81
 830 615 830 615 872.5 615 c 128,-1,82
 915 615 915 615 915 596 c 128,-1,83
 915 577 915 577 884.5 551 c 128,-1,84
 854 525 854 525 800 500 c 1,85,86
 814 451 814 451 864 432 c 1,87,88
 913 493 913 493 952 533.5 c 128,-1,89
 991 574 991 574 1040.5 614 c 0,90,91
 1138.2625 693 1138.2625 693 1257 693 c 0,92,93
 1353 693 1353 693 1353 627 c 128,-1,94
 1353 561 1353 561 1272.5 486.5 c 128,-1,95
 1192 412 1192 412 1107 412 c 0,96,97
 1065 412 1065 412 1063 446 c 1,98,99
 981 412 981 412 909 412 c 0,100,101
 889 412 889 412 880 413 c 1,102,103
 758.553170356 248.926137435 758.553170356 248.926137435 693.340559131 180.39854069 c 0,104,105
 486.458555552 -37 486.458555552 -37 239 -37 c 0,106,107
 138 -37 138 -37 85 8.5 c 128,-1,108
 32 54 32 54 32 116.5 c 128,-1,109
 32 179 32 179 80.5 224.5 c 128,-1,110
 129 270 129 270 212 270 c 0,111,112
 267 270 267 270 296 227 c 1,113,114
 374 283 374 283 483 283 c 0,115,116
 510 283 510 283 519 276.5 c 128,-1,117
 528 270 528 270 528 264.5 c 128,-1,118
 528 259 528 259 520 259 c 0,119,120
 517 259 517 259 508 263.5 c 128,-1,121
 499 268 499 268 472 268 c 0,122,123
 369 268 369 268 302 216 c 1,124,125
 310 198 310 198 310 176 c 128,-1,126
 310 154 310 154 292.5 135 c 128,-1,127
 275 116 275 116 242 116 c 0,128,129
 226 116 226 116 226 133 c 0,130,131
 226 169 226 169 279 214 c 1,132,133
 253 255 253 255 196 255 c 128,-1,134
 139 255 139 255 100.5 215.5 c 128,-1,135
 62 176 62 176 62 120.5 c 128,-1,136
 62 65 62 65 112.5 23 c 128,-1,137
 163 -19 163 -19 261 -19 c 0,138,139
 420.295774648 -19 420.295774648 -19 557 86.5 c 0,140,141
 603 122 603 122 636.5 154 c 128,-1,142
 670 186 670 186 711 234.5 c 0,143,144
 753.416933813 284.676129023 753.416933813 284.676129023 798.708466907 345.338064511 c 128,-1,145
 844 406 844 406 845.5 408 c 128,-1,146
 847 410 847 410 849 413 c 128,-1,147
 851 416 851 416 853 418 c 1,148,149
 788 436 788 436 774 489 c 1,54,-1
EndSplineSet
EndChar

StartChar: T
Encoding: 84 84 19
Width: 694
Flags: HMW
HStem: -46 170<249 267.5 249 432> -29 21G<169 416> 100 175<231.5 250 164 261.5> 280 78<441 577> 341 215<488 738.5> 447 244<368 611> 541 150 610 24<1244 1298.5> 681 20G<1222 1227.5>
VStem: 15 29<70 140> 212 101<114.5 202.5> 445 29<396 455.5> 740 28<496.5 526.5>
LayerCount: 2
Fore
SplineSet
597 477 m 0,0,1
 597 471 597 471 608 471 c 128,-1,2
 619 471 619 471 631.5 486.5 c 128,-1,3
 644 502 644 502 650 525 c 1,4,5
 628 514 628 514 612.5 499.5 c 128,-1,6
 597 485 597 485 597 477 c 0,0,1
235 137 m 0,7,8
 235 124 235 124 254 124 c 128,-1,9
 273 124 273 124 284 142 c 128,-1,10
 295 160 295 160 295 178 c 128,-1,11
 295 196 295 196 292 208 c 1,12,13
 235 163 235 163 235 137 c 0,7,8
653 541 m 1,14,15
 654 546 654 546 654 561.5 c 128,-1,16
 654 577 654 577 646 599 c 1,17,18
 474 534 474 534 474 416 c 0,19,20
 474 388 474 388 491.5 373 c 128,-1,21
 509 358 509 358 532 358 c 0,22,23
 574 358 574 358 624.5 388.5 c 128,-1,24
 675 419 675 419 707.5 457.5 c 128,-1,25
 740 496 740 496 740 520 c 0,26,27
 740 541 740 541 711 541 c 0,28,29
 696 541 696 541 673 534 c 1,30,31
 665 498 665 498 642.5 472.5 c 128,-1,32
 620 447 620 447 597.5 447 c 128,-1,33
 575 447 575 447 575 462 c 0,34,35
 575 479 575 479 597 503 c 128,-1,36
 619 527 619 527 653 541 c 1,14,15
1232 698 m 2,37,-1
 1232 695 l 2,38,39
 1232 689.6 1232 689.6 1228 688.8 c 128,-1,40
 1224 688 1224 688 1222 687.5 c 0,41,42
 1215 685.75 1215 685.75 1208 684 c 0,43,44
 1157 670 1157 670 1110 642 c 1,45,46
 1230 634 1230 634 1282.5 634 c 128,-1,47
 1335 634 1335 634 1390 644 c 128,-1,48
 1445 654 1445 654 1470.5 664.5 c 128,-1,49
 1496 675 1496 675 1498 675 c 0,50,51
 1513 675 1513 675 1513 665 c 0,52,53
 1513 657 1513 657 1473.5 644 c 128,-1,54
 1434 631 1434 631 1363.5 620.5 c 128,-1,55
 1293 610 1293 610 1232 610 c 128,-1,56
 1171 610 1171 610 1074 620 c 1,57,58
 969.468905886 547.778516794 969.468905886 547.778516794 855 403.5 c 0,59,60
 807 343 807 343 753.5 277.5 c 128,-1,61
 700 212 700 212 644 155.5 c 128,-1,62
 588 99 588 99 526 53 c 0,63,64
 392.565217391 -46 392.565217391 -46 225 -46 c 0,65,66
 121 -46 121 -46 68 -5 c 128,-1,67
 15 36 15 36 15 100.5 c 128,-1,68
 15 165 15 165 75.5 220 c 128,-1,69
 136 275 136 275 229 275 c 0,70,71
 287 275 287 275 306 234 c 1,72,73
 391 296 391 296 469 296 c 0,74,75
 494 296 494 296 519 287 c 0,76,77
 524 285 524 285 524 278 c 128,-1,78
 524 271 524 271 515 271 c 0,79,80
 511 271 511 271 496.5 275.5 c 128,-1,81
 482 280 482 280 467 280 c 0,82,83
 395 280 395 280 310 221 c 1,84,85
 313 210 313 210 313 199 c 0,86,87
 313 162 313 162 291.5 131 c 128,-1,88
 270 100 270 100 241 100 c 128,-1,89
 212 100 212 100 212 121 c 0,90,91
 212 138 212 138 232.5 165.5 c 128,-1,92
 253 193 253 193 287 220 c 1,93,94
 269 259 269 259 222 259 c 0,95,96
 144 259 144 259 94 211.5 c 128,-1,97
 44 164 44 164 44 106 c 128,-1,98
 44 48 44 48 92.5 9.5 c 128,-1,99
 141 -29 141 -29 231.5 -29 c 128,-1,100
 322 -29 322 -29 403 6.5 c 128,-1,101
 484 42 484 42 546 97.5 c 128,-1,102
 608 153 608 153 674.5 226.5 c 128,-1,103
 741 300 741 300 794.5 369.5 c 128,-1,104
 848 439 848 439 914 510 c 128,-1,105
 980 581 980 581 1039 623 c 1,106,107
 915 636 915 636 839 636 c 128,-1,108
 763 636 763 636 670 607 c 1,109,110
 677 587 677 587 677 570.5 c 128,-1,111
 677 554 677 554 676 549 c 1,112,113
 702 556 702 556 723 556 c 0,114,115
 768 556 768 556 768 526 c 128,-1,116
 768 496 768 496 730 452.5 c 128,-1,117
 692 409 692 409 632.5 375 c 128,-1,118
 573 341 573 341 532 341 c 128,-1,119
 491 341 491 341 472 353.5 c 128,-1,120
 453 366 453 366 449 378 c 128,-1,121
 445 390 445 390 445 403 c 0,122,123
 445 541 445 541 640 612 c 1,124,125
 606 677 606 677 498 677 c 0,126,127
 397.75 677 397.75 677 319 632 c 0,128,129
 245.860606061 590.206060606 245.860606061 590.206060606 202.5 540.5 c 0,130,131
 160.773841962 492.667574932 160.773841962 492.667574932 145 464.5 c 2,132,-1
 138 452 l 2,133,134
 133 444 133 444 127 444 c 128,-1,135
 121 444 121 444 121 455 c 1,136,137
 131.070175439 480.175438596 131.070175439 480.175438596 171.035087719 529.087719298 c 128,-1,138
 211 578 211 578 251.5 609 c 128,-1,139
 292 640 292 640 360 665.5 c 128,-1,140
 428 691 428 691 505 691 c 0,141,142
 626 691 626 691 664 619 c 1,143,144
 778 655 778 655 889 655 c 0,145,146
 956 655 956 655 1071 646 c 1,147,148
 1144 691 1144 691 1222 701 c 1,149,150
 1232 701 1232 701 1232 698 c 2,37,-1
EndSplineSet
EndChar

StartChar: U
Encoding: 85 85 20
Width: 688
Flags: HMW
HStem: -40 21G<554 596> -23 21G<571.5 613> -18 20<263 279> 247 20<131 211.5> 439 246<118 265.5> 516 34<850 901> 551 117<343.5 507.5>
VStem: 38 30<321.5 375.5> 201 34<27 102.5> 230 194<468 470> 398 26<468 518.5> 512 28<26 48.5> 556 26<466 597.5> 869 41<504.5 510>
LayerCount: 2
Fore
SplineSet
258 456 m 0,0,1
 274 456 274 456 289 481.5 c 128,-1,2
 304 507 304 507 308 541 c 1,3,4
 283 528 283 528 267 504.5 c 128,-1,5
 251 481 251 481 251 468.5 c 128,-1,6
 251 456 251 456 258 456 c 0,0,1
862 516 m 0,7,8
 843 516 843 516 756.5 414.5 c 128,-1,9
 670 313 670 313 607 211 c 1,10,11
 715 304 715 304 792 389.5 c 128,-1,12
 869 475 869 475 869 508 c 0,13,14
 869 516 869 516 862 516 c 0,7,8
295.5 471.5 m 128,-1,16
 273 439 273 439 251.5 439 c 128,-1,17
 230 439 230 439 230 458.5 c 128,-1,18
 230 478 230 478 252.5 507 c 128,-1,19
 275 536 275 536 309 552 c 1,20,-1
 309 561 l 2,21,22
 309 592 309 592 298 614 c 1,23,24
 201 570 201 570 134.5 489 c 128,-1,25
 68 408 68 408 68 344 c 0,26,27
 68 309 68 309 92 288 c 128,-1,28
 116 267 116 267 165 267 c 0,29,30
 241 267 241 267 319.5 353.5 c 128,-1,31
 398 440 398 440 398 505 c 0,32,33
 398 551 398 551 348 551 c 0,34,35
 338 551 338 551 324 547 c 1,36,15
 318 504 318 504 295.5 471.5 c 128,-1,16
464 668 m 0,37,38
 582 668 582 668 582 583 c 0,39,40
 582 484.704918033 582 484.704918033 513.5 391.5 c 0,41,42
 467.453714286 328.846857143 467.453714286 328.846857143 371 235 c 0,43,44
 334 199 334 199 303.5 166 c 0,45,46
 235 91.8852459016 235 91.8852459016 235 37 c 0,47,48
 235 22 235 22 246 12 c 128,-1,49
 257 2 257 2 274 2 c 0,50,51
 351 2 351 2 562 173 c 1,52,53
 631 296 631 296 743 423 c 128,-1,54
 855 550 855 550 895 550 c 0,55,56
 910 550 910 550 910 534 c 0,57,58
 910 491 910 491 813 384.5 c 128,-1,59
 716 278 716 278 586 173 c 1,60,61
 540 89 540 89 540 43 c 0,62,63
 540 -23 540 -23 593 -23 c 0,64,65
 638 -23 638 -23 705 28 c 0,66,67
 712 33 712 33 716 33 c 128,-1,68
 720 33 720 33 720.5 26.5 c 128,-1,69
 721 20 721 20 711 13 c 0,70,71
 630 -40 630 -40 574 -40 c 0,72,73
 545 -40 545 -40 528.5 -17.5 c 128,-1,74
 512 5 512 5 512 40.5 c 128,-1,75
 512 76 512 76 545 142 c 1,76,77
 339 -18 339 -18 247 -18 c 0,78,79
 230 -18 230 -18 215.5 -4.5 c 128,-1,80
 201 9 201 9 201 29 c 0,81,82
 201 98 201 98 326 223 c 0,83,84
 378 275 378 275 430.5 330 c 128,-1,85
 483 385 483 385 519.5 450 c 128,-1,86
 556 515 556 515 556 575 c 0,87,88
 556 650 556 650 452 650 c 0,89,90
 383 650 383 650 314 621 c 1,91,92
 325 599 325 599 325 580.5 c 128,-1,93
 325 562 325 562 324 558 c 1,94,95
 342 565 342 565 364 565 c 0,96,97
 424 565 424 565 424 513 c 0,98,99
 424 468 424 468 382.5 405.5 c 128,-1,100
 341 343 341 343 274.5 295 c 128,-1,101
 208 247 208 247 148 247 c 0,102,103
 38 247 38 247 38 331 c 0,104,105
 38 400 38 400 111.5 488.5 c 128,-1,106
 185 577 185 577 290 627 c 1,107,108
 261 671 261 671 188 671 c 0,109,110
 91 671 91 671 -21.5 607.5 c 128,-1,111
 -134 544 -134 544 -162 490 c 0,112,113
 -169 478 -169 478 -176 478 c 128,-1,114
 -183 478 -183 478 -183 486 c 0,115,116
 -183 491 -183 491 -179 498 c 0,117,118
 -135 561 -135 561 -23 623 c 128,-1,119
 89 685 89 685 195 685 c 0,120,121
 276 685 276 685 308 634 c 1,122,123
 387 668 387 668 464 668 c 0,37,38
EndSplineSet
EndChar

StartChar: V
Encoding: 86 86 21
Width: 423
Flags: HMW
HStem: -34 21G<147.5 193.5> -1 21G<177 181 181 181> 710 24<563.5 576.5>
VStem: -264 26<569 631.5> 584 33<694 704>
LayerCount: 2
Fore
SplineSet
956 688 m 0,0,1
 919 688 919 688 794 568 c 1,2,3
 866 597 866 597 920 631 c 128,-1,4
 974 665 974 665 974 680 c 0,5,6
 974 688 974 688 956 688 c 0,0,1
584 703 m 0,7,8
 584 710 584 710 575 710 c 0,9,10
 525 710 525 710 453 570 c 1,11,12
 513 607 513 607 548.5 642.5 c 128,-1,13
 584 678 584 678 584 703 c 0,7,8
-161 490 m 128,-1,15
 -84 435 -84 435 24 435 c 128,-1,16
 132 435 132 435 249 475 c 1,17,18
 206 578 206 578 113 638 c 128,-1,19
 20 698 20 698 -87 698 c 0,20,21
 -163 698 -163 698 -200.5 672.5 c 128,-1,22
 -238 647 -238 647 -238 607 c 0,23,14
 -238 545 -238 545 -161 490 c 128,-1,15
291 323 m 2,24,25
 290 313 290 313 284 313 c 128,-1,26
 278 313 278 313 278 324 c 0,27,28
 278 395 278 395 254 461 c 1,29,30
 131 419 131 419 15 419 c 128,-1,31
 -101 419 -101 419 -182.5 477 c 128,-1,32
 -264 535 -264 535 -264 602 c 0,33,34
 -264 650 -264 650 -217 681 c 128,-1,35
 -170 712 -170 712 -67 712 c 128,-1,36
 36 712 36 712 131 647 c 128,-1,37
 226 582 226 582 267 481 c 1,38,39
 347 511 347 511 418 550 c 1,40,41
 462 638 462 638 505.5 686 c 128,-1,42
 549 734 549 734 599 734 c 0,43,44
 606 734 606 734 611.5 728 c 128,-1,45
 617 722 617 722 617 716 c 0,46,47
 617 684 617 684 568.5 637.5 c 128,-1,48
 520 591 520 591 441 545 c 1,49,50
 412 485 412 485 358 353 c 128,-1,51
 304 221 304 221 260.5 130.5 c 128,-1,52
 217 40 217 40 179 2 c 1,53,-1
 177 -1 l 1,54,-1
 181 -1 l 1,55,56
 237 24 237 24 323 108 c 128,-1,57
 409 192 409 192 532.5 328.5 c 128,-1,58
 656 465 656 465 719 527 c 1,59,60
 698 520 698 520 656 510 c 1,61,62
 648 510 648 510 648 515 c 0,63,64
 648 525 648 525 669 529 c 0,65,66
 713 538 713 538 740 548 c 1,67,68
 907 708 907 708 989 708 c 0,69,70
 1018 708 1018 708 1018 695 c 0,71,72
 1018 672 1018 672 945 626.5 c 128,-1,73
 872 581 872 581 770 544 c 1,74,75
 717 492 717 492 550 316.5 c 128,-1,76
 383 141 383 141 286 53.5 c 128,-1,77
 189 -34 189 -34 149 -34 c 0,78,79
 147 -34 147 -34 142 -31 c 128,-1,80
 137 -28 137 -28 137 -24.5 c 128,-1,81
 137 -21 137 -21 160 5 c 1,82,83
 204 60 204 60 245.5 148 c 128,-1,84
 287 236 287 236 334.5 354 c 128,-1,85
 382 472 382 472 407 526 c 1,86,87
 342 492 342 492 273 467 c 1,88,89
 293 413 293 413 293 355 c 0,90,91
 293 345 293 345 292 334 c 2,92,-1
 291 323 l 2,24,25
EndSplineSet
EndChar

StartChar: W
Encoding: 87 87 22
Width: 844
Flags: HMW
HStem: -27 21G -25 21G<254.5 298> -10 21G<557.5 635> 393 24<752 758.5> 430 247<157 268> 537 119<349 490.5> 697 20G<1378 1412.5>
VStem: 24 26<291 340.5> 214 36<18.5 78.5> 234 186<442 519> 319 101<462.5 574.5> 395 25<463.5 512.5> 501 25<23 40> 555 31<454.5 566>
LayerCount: 2
Fore
SplineSet
274.5 491 m 128,-1,1
 259 471 259 471 259 461.5 c 128,-1,2
 259 452 259 452 266.5 452 c 128,-1,3
 274 452 274 452 289 474 c 128,-1,4
 304 496 304 496 312 524 c 1,5,0
 290 511 290 511 274.5 491 c 128,-1,1
1393 685 m 0,6,7
 1393 698 1393 698 1380 698 c 0,8,9
 1342 698 1342 698 1209 555 c 1,10,11
 1393 624 1393 624 1393 685 c 0,6,7
767 383 m 0,12,13
 767 393 767 393 754 393 c 0,14,15
 731 393 731 393 670.5 318.5 c 128,-1,16
 610 244 610 244 568 163 c 1,17,18
 651 233 651 233 709 296.5 c 128,-1,19
 767 360 767 360 767 383 c 0,12,13
297 461.5 m 128,-1,21
 274 430 274 430 254 430 c 128,-1,22
 234 430 234 430 234 447.5 c 128,-1,23
 234 465 234 465 258.5 492.5 c 128,-1,24
 283 520 283 520 315 536 c 1,25,26
 319 549 319 549 319 569.5 c 128,-1,27
 319 590 319 590 309 609 c 1,28,29
 203 561 203 561 126.5 469 c 128,-1,30
 50 377 50 377 50 310 c 0,31,32
 50 247 50 247 122 247 c 0,33,34
 173 247 173 247 239 294.5 c 128,-1,35
 305 342 305 342 350 403 c 128,-1,36
 395 464 395 464 395 502 c 0,37,38
 395 537 395 537 353 537 c 0,39,40
 344 537 344 537 330 533 c 1,41,20
 320 493 320 493 297 461.5 c 128,-1,21
-166 483 m 128,-1,43
 -172 483 -172 483 -172 489.605263158 c 128,-1,44
 -172 496.210526316 -172 496.210526316 -150 521.105263158 c 128,-1,45
 -128 546 -128 546 -87 579 c 128,-1,46
 -46 612 -46 612 -2 632 c 0,47,48
 98 677 98 677 192.5 677 c 128,-1,49
 287 677 287 677 320 625 c 1,50,51
 395 656 395 656 453 656 c 128,-1,52
 511 656 511 656 548.5 631 c 128,-1,53
 586 606 586 606 586 552.5 c 128,-1,54
 586 499 586 499 551.5 435.5 c 128,-1,55
 517 372 517 372 467.5 317 c 128,-1,56
 418 262 418 262 368.5 210 c 0,57,58
 250 85.5151515152 250 85.5151515152 250 31 c 0,59,60
 250 13 250 13 263 3.5 c 128,-1,61
 276 -6 276 -6 294 -6 c 0,62,63
 359 -6 359 -6 529 131 c 1,64,65
 575 227 575 227 657 322 c 128,-1,66
 739 417 739 417 779 417 c 0,67,68
 798 417 798 417 798 402 c 0,69,70
 798 370 798 370 724 289.5 c 128,-1,71
 650 209 650 209 551 129 c 1,72,73
 526 71 526 71 526 38 c 0,74,75
 526 -10 526 -10 575 -10 c 0,76,77
 643 -10 643 -10 770 117 c 0,78,79
 869.052631579 216.052631579 869.052631579 216.052631579 982.526315789 343.526315789 c 128,-1,80
 1096 471 1096 471 1143 521 c 1,81,-1
 1082 502 l 2,82,83
 1080 501 1080 501 1074.5 501 c 128,-1,84
 1069 501 1069 501 1069 505.5 c 128,-1,85
 1069 510 1069 510 1088 515 c 128,-1,86
 1107 520 1107 520 1158 537 c 1,87,88
 1331 717 1331 717 1408 717 c 0,89,90
 1429 717 1429 717 1429 698 c 1,91,92
 1418 618 1418 618 1193 538 c 1,93,94
 1161 503 1161 503 1090 424 c 128,-1,95
 1019 345 1019 345 973 295 c 128,-1,96
 927 245 927 245 860 177.5 c 128,-1,97
 793 110 793 110 745.5 70.5 c 128,-1,98
 698 31 698 31 647 2 c 128,-1,99
 596 -27 596 -27 561 -27 c 0,100,101
 501 -27 501 -27 501 30 c 0,102,103
 501 59 501 59 517 102 c 1,104,105
 351 -25 351 -25 269 -25 c 0,106,107
 214 -25 214 -25 214 19 c 0,108,109
 214 76.1 214 76.1 334 204.5 c 0,110,111
 384 258 384 258 434.5 314 c 128,-1,112
 485 370 485 370 520 430 c 128,-1,113
 555 490 555 490 555 536.5 c 128,-1,114
 555 583 555 583 529.5 613 c 128,-1,115
 504 643 504 643 448 643 c 128,-1,116
 392 643 392 643 325 616 c 1,117,118
 335 596 335 596 335 576 c 128,-1,119
 335 556 335 556 332 543 c 1,120,121
 354 549 354 549 366 549 c 0,122,123
 420 549 420 549 420 505.5 c 128,-1,124
 420 462 420 462 370 396.5 c 128,-1,125
 320 331 320 331 243 280 c 128,-1,126
 166 229 166 229 101 229 c 0,127,128
 24 229 24 229 24 295 c 0,129,130
 24 367 24 367 107 466.5 c 128,-1,131
 190 566 190 566 304 618 c 1,132,133
 274 662 274 662 182.5 662 c 0,134,135
 29.9873417722 662 29.9873417722 662 -89.5 560.5 c 0,136,137
 -136 521 -136 521 -156 490 c 0,138,42
 -160 483 -160 483 -166 483 c 128,-1,43
EndSplineSet
EndChar

StartChar: X
Encoding: 88 88 23
Width: 709
Flags: HMW
HStem: -29 21G<500 580.5> -28 21G<-33 63.5> -16 21G<-43 68.5> -11 21G<511 591> 267 20<166 246.5> 459 237<277.5 532.5> 571 125<378.5 532.5> 685 20G<153 259.5>
VStem: 73 30<341.5 400.5> 265 187 433 187<514 538.5> 594 26<514 602>
LayerCount: 2
Fore
SplineSet
293 476 m 0,0,1
 309 476 309 476 324 501.5 c 128,-1,2
 339 527 339 527 343 561 c 1,3,4
 318 548 318 548 302 524.5 c 128,-1,5
 286 501 286 501 286 488.5 c 128,-1,6
 286 476 286 476 293 476 c 0,0,1
330.5 491.5 m 128,-1,8
 308 459 308 459 286.5 459 c 128,-1,9
 265 459 265 459 265 478.5 c 128,-1,10
 265 498 265 498 287.5 527 c 128,-1,11
 310 556 310 556 344 572 c 1,12,-1
 344 581 l 2,13,14
 344 611 344 611 333 634 c 1,15,16
 240 585 240 585 171.5 509 c 128,-1,17
 103 433 103 433 103 364 c 0,18,19
 103 329 103 329 127 308 c 128,-1,20
 151 287 151 287 200 287 c 0,21,22
 276 287 276 287 354.5 373.5 c 128,-1,23
 433 460 433 460 433 525 c 0,24,25
 433 571 433 571 383 571 c 0,26,27
 373 571 373 571 359 567 c 1,28,7
 353 524 353 524 330.5 491.5 c 128,-1,8
-105 8 m 1,29,30
 -86 -16 -86 -16 4 -16 c 128,-1,31
 94 -16 94 -16 210 53.5 c 128,-1,32
 326 123 326 123 473 247 c 1,33,34
 483 270 483 270 522.5 347 c 128,-1,35
 562 424 562 424 578 470.5 c 128,-1,36
 594 517 594 517 594 568.5 c 128,-1,37
 594 620 594 620 564.5 649 c 128,-1,38
 535 678 535 678 480.5 678 c 128,-1,39
 426 678 426 678 349 641 c 1,40,41
 360 619 360 619 360 600.5 c 128,-1,42
 360 582 360 582 359 578 c 1,43,44
 377 585 377 585 399 585 c 0,45,46
 459 585 459 585 459 533 c 0,47,48
 459 488 459 488 417.5 425.5 c 128,-1,49
 376 363 376 363 309.5 315 c 128,-1,50
 243 267 243 267 183 267 c 0,51,52
 73 267 73 267 73 351 c 0,53,54
 73 422 73 422 148.5 506.5 c 128,-1,55
 224 591 224 591 327 645 c 1,56,57
 296 691 296 691 223 691 c 0,58,59
 126 691 126 691 13.5 627.5 c 128,-1,60
 -99 564 -99 564 -127 510 c 0,61,62
 -134 498 -134 498 -141 498 c 128,-1,63
 -148 498 -148 498 -148 506 c 0,64,65
 -148 511 -148 511 -144 518 c 0,66,67
 -100 581 -100 581 12 643 c 128,-1,68
 124 705 124 705 230 705 c 0,69,70
 312 705 312 705 343 653 c 1,71,72
 429 696 429 696 491.5 696 c 0,73,74
 620 696 620 696 620 557 c 0,75,76
 620 518 620 518 604 476 c 128,-1,77
 588 434 588 434 550 364 c 128,-1,78
 512 294 512 294 501 271 c 1,79,80
 535 300 535 300 647 399.5 c 128,-1,81
 759 499 759 499 813.5 543.5 c 128,-1,82
 868 588 868 588 932 619.5 c 128,-1,83
 996 651 996 651 1034.5 662.5 c 128,-1,84
 1073 674 1073 674 1081.5 674 c 128,-1,85
 1090 674 1090 674 1090 671 c 0,86,87
 1090 665 1090 665 1081 662 c 0,88,89
 948 630 948 630 815 521 c 1,90,91
 769 482 769 482 656.5 380.5 c 128,-1,92
 544 279 544 279 482 226 c 1,93,94
 452 151 452 151 452 88 c 0,95,96
 452 50 452 50 475 19.5 c 128,-1,97
 498 -11 498 -11 546 -11 c 0,98,99
 624.592592593 -11 624.592592593 -11 720 69.5 c 0,100,101
 736 83 736 83 739 85.5 c 128,-1,102
 742 88 742 88 746.5 88 c 128,-1,103
 751 88 751 88 751 83.5 c 128,-1,104
 751 79 751 79 743 71 c 0,105,106
 634 -29 634 -29 530.5 -29 c 128,-1,107
 427 -29 427 -29 427 69 c 0,108,109
 427 131 427 131 455 205 c 1,110,111
 172 -28 172 -28 -10 -28 c 0,112,113
 -46 -28 -46 -28 -78.5 -19 c 128,-1,114
 -111 -10 -111 -10 -111 2 c 0,115,116
 -111 8 -111 8 -105 8 c 1,29,30
EndSplineSet
EndChar

StartChar: Y
Encoding: 89 89 24
Width: 596
Flags: HMW
HStem: -390 20G<-84 -2.5> -389 21G<-107.5 -10> -315 23<363.5 372.5> -315 192 -116 118<112.5 306.5> -18 20<275 282> 247 20<143 223.5> 247 209<121 280.5> 439 246<130 277.5> 485 34<833.5 842> 551 117<355.5 519.5>
VStem: -178 38<-334.5 -284> 50 30<321.5 375.5> 211 36<27 102 27 102.5> 239 197<468 473.5> 335 85<-300 -223.5> 410 26<468 518.5> 568 27<462 597.5> 847 41<469.5 479>
LayerCount: 2
Fore
SplineSet
357 -281 m 0,0,1
 357 -292 357 -292 370 -292 c 128,-1,2
 383 -292 383 -292 393.5 -277.5 c 128,-1,3
 404 -263 404 -263 404 -246.5 c 128,-1,4
 404 -230 404 -230 399 -213 c 1,5,6
 357 -254 357 -254 357 -281 c 0,0,1
279 504.5 m 128,-1,8
 263 481 263 481 263 468.5 c 128,-1,9
 263 456 263 456 270 456 c 0,10,11
 286 456 286 456 301 481.5 c 128,-1,12
 316 507 316 507 320 541 c 1,13,7
 295 528 295 528 279 504.5 c 128,-1,8
840 485 m 128,-1,15
 833 485 833 485 823 480 c 128,-1,16
 813 475 813 475 800.5 463.5 c 128,-1,17
 788 452 788 452 775.5 439.5 c 128,-1,18
 763 427 763 427 745.5 405.5 c 128,-1,19
 728 384 728 384 713.5 366 c 128,-1,20
 699 348 699 348 676.5 318.5 c 128,-1,21
 654 289 654 289 638 268 c 0,22,23
 579.818181818 191.636363636 579.818181818 191.636363636 552 154 c 1,24,25
 668 246 668 246 757.5 342.5 c 128,-1,26
 847 439 847 439 847 477 c 0,27,14
 847 485 847 485 840 485 c 128,-1,15
203 -116 m 0,28,29
 118 -116 118 -116 35.5 -152 c 128,-1,30
 -47 -188 -47 -188 -93.5 -235 c 128,-1,31
 -140 -282 -140 -282 -140 -320 c 0,32,33
 -140 -370 -140 -370 -54 -370 c 0,34,35
 77 -370 77 -370 294 -127 c 1,36,37
 255 -116 255 -116 203 -116 c 0,28,29
80 344 m 0,38,39
 80 309 80 309 104 288 c 128,-1,40
 128 267 128 267 177 267 c 0,41,42
 253 267 253 267 331.5 353.5 c 128,-1,43
 410 440 410 440 410 505 c 0,44,45
 410 551 410 551 360 551 c 0,46,47
 350 551 350 551 336 547 c 1,48,49
 330 504 330 504 307.5 471.5 c 128,-1,50
 285 439 285 439 262 439 c 128,-1,51
 239 439 239 439 239 460.5 c 128,-1,52
 239 482 239 482 262 510 c 128,-1,53
 285 538 285 538 321 553 c 1,54,-1
 321 561 l 2,55,56
 321 592 321 592 310 614 c 1,57,58
 213 570 213 570 146.5 489 c 128,-1,59
 80 408 80 408 80 344 c 0,38,39
329 -121 m 1,60,61
 391 -143 391 -143 411 -187 c 1,62,63
 501 -123 501 -123 634 -123 c 0,64,65
 679 -123 679 -123 718 -137 c 0,66,67
 724 -140 724 -140 724 -146.5 c 128,-1,68
 724 -153 724 -153 715 -153 c 0,69,70
 714 -153 714 -153 705.5 -149.5 c 128,-1,71
 697 -146 697 -146 687.5 -143 c 0,72,73
 659 -134 659 -134 627 -134 c 0,74,75
 499 -134 499 -134 416 -200 c 1,76,77
 420 -212 420 -212 420 -237 c 128,-1,78
 420 -262 420 -262 400.5 -288.5 c 128,-1,79
 381 -315 381 -315 358 -315 c 128,-1,80
 335 -315 335 -315 335 -293 c 0,81,82
 335 -249 335 -249 394 -200 c 1,83,84
 373 -157 373 -157 317 -135 c 1,85,86
 84 -389 84 -389 -70 -389 c 0,87,88
 -124 -389 -124 -389 -151 -371.5 c 128,-1,89
 -178 -354 -178 -354 -178 -326 c 0,90,91
 -178 -283 -178 -283 -127.5 -232 c 128,-1,92
 -77 -181 -77 -181 15 -142.5 c 128,-1,93
 107 -104 107 -104 208 -104 c 0,94,95
 267 -104 267 -104 306 -114 c 1,96,97
 374 -36 374 -36 455 66 c 1,98,99
 327 -18 327 -18 259 -18 c 0,100,101
 242 -18 242 -18 226.5 -4.5 c 128,-1,102
 211 9 211 9 211 29 c 0,103,104
 211 97.4230769231 211 97.4230769231 337 221 c 0,105,106
 389 272 389 272 441.5 326.5 c 128,-1,107
 494 381 494 381 531 446.5 c 128,-1,108
 568 512 568 512 568 575 c 0,109,110
 568 650 568 650 464 650 c 0,111,112
 395 650 395 650 326 621 c 1,113,114
 337 599 337 599 337 580.5 c 128,-1,115
 337 562 337 562 336 559 c 1,116,117
 362 565 362 565 376 565 c 0,118,119
 436 565 436 565 436 513 c 0,120,121
 436 468 436 468 394.5 405.5 c 128,-1,122
 353 343 353 343 286.5 295 c 128,-1,123
 220 247 220 247 160 247 c 0,124,125
 50 247 50 247 50 331 c 0,126,127
 50 400 50 400 123.5 488.5 c 128,-1,128
 197 577 197 577 302 627 c 1,129,130
 273 671 273 671 200 671 c 0,131,132
 103 671 103 671 -9.5 607.5 c 128,-1,133
 -122 544 -122 544 -150 490 c 0,134,135
 -157 478 -157 478 -164 478 c 128,-1,136
 -171 478 -171 478 -171 486 c 0,137,138
 -171 491 -171 491 -167 498 c 0,139,140
 -123 561 -123 561 -11 623 c 128,-1,141
 101 685 101 685 207 685 c 0,142,143
 288 685 288 685 320 634 c 1,144,145
 399 668 399 668 476 668 c 0,146,147
 595 668 595 668 595 583 c 0,148,149
 595 516 595 516 559 447 c 128,-1,150
 523 378 523 378 472 322.5 c 128,-1,151
 421 267 421 267 370 216.5 c 128,-1,152
 319 166 319 166 283 119 c 128,-1,153
 247 72 247 72 247 37 c 0,154,155
 247 22 247 22 258 12 c 128,-1,156
 269 2 269 2 286 2 c 0,157,158
 344 2 344 2 480 99 c 1,159,160
 499 124 499 124 534 169 c 128,-1,161
 569 214 569 214 588 239 c 128,-1,162
 607 264 607 264 637.5 302.5 c 128,-1,163
 668 341 668 341 686.5 363 c 128,-1,164
 705 385 705 385 730.5 413.5 c 128,-1,165
 756 442 756 442 773.5 458 c 128,-1,166
 791 474 791 474 810 490 c 0,167,168
 844.4375 519 844.4375 519 873 519 c 0,169,170
 888 519 888 519 888 503 c 0,171,172
 888 454 888 454 773 333.5 c 128,-1,173
 658 213 658 213 520 112 c 1,174,175
 416 -25 416 -25 329 -121 c 1,60,61
EndSplineSet
EndChar

StartChar: b
Encoding: 98 98 25
Width: 249
Flags: HMW
HStem: -6 182<95.5 224.5> -3 21G<-6 -1> 155 21<195.5 203.5> 461 20G<445.5 503>
VStem: 241 28<102.5 127.5>
LayerCount: 2
Fore
SplineSet
113 130 m 1,0,-1
 43 45 l 1,1,2
 61 12 61 12 119 12 c 0,3,4
 160 12 160 12 200.5 48 c 128,-1,5
 241 84 241 84 241 117 c 0,6,7
 241 155 241 155 182 155 c 0,8,9
 159 155 159 155 113 130 c 1,0,-1
32 33 m 1,10,11
 6.28571428571 -3 6.28571428571 -3 -3.85714285714 -3 c 128,-1,12
 -14 -3 -14 -3 -14 3.5 c 128,-1,13
 -14 10 -14 10 -3 22 c 0,14,15
 152 201 152 201 201 269 c 1,16,17
 288 370 288 370 358.5 425.5 c 128,-1,18
 429 481 429 481 487 481 c 0,19,20
 531 481 531 481 531 449 c 0,21,22
 531 433.5 531 433.5 510 423 c 1,23,24
 484 423 484 423 484 434 c 0,25,26
 484 440 484 440 492.5 447.5 c 128,-1,27
 501 455 501 455 501 460 c 128,-1,28
 501 465 501 465 480 465 c 0,29,30
 431 465 431 465 368.5 412.5 c 128,-1,31
 306 360 306 360 223 263 c 0,32,33
 221 262 221 262 135 157 c 1,34,35
 168 176 168 176 208 176 c 0,36,37
 269 176 269 176 269 129 c 0,38,39
 269 87 269 87 218 40.5 c 128,-1,40
 167 -6 167 -6 110 -6 c 128,-1,41
 53 -6 53 -6 32 33 c 1,10,11
EndSplineSet
EndChar

StartChar: p
Encoding: 112 112 26
Width: 201
Flags: HMW
HStem: -290 209<-379 -142.5> -256 102 -3 176<119.5 195.5> 282 20G<219.5 224.5>
VStem: -412 27<-252.5 -206.5> 193 25<123.5 143.5>
LayerCount: 2
Fore
SplineSet
-104.5 -204.5 m 128,-1,1
 -122 -222 -122 -222 -122 -230.5 c 128,-1,2
 -122 -239 -122 -239 -116 -239 c 0,3,4
 -95 -239 -95 -239 -78.5 -220 c 128,-1,5
 -62 -201 -62 -201 -59 -176 c 1,6,0
 -87 -187 -87 -187 -104.5 -204.5 c 128,-1,1
-151 -93 m 0,7,8
 -233 -93 -233 -93 -309 -140.5 c 128,-1,9
 -385 -188 -385 -188 -385 -244 c 0,10,11
 -385 -276 -385 -276 -349 -276 c 0,12,13
 -276 -276 -276 -276 -113 -97 c 1,14,15
 -128 -93 -128 -93 -151 -93 c 0,7,8
175.5 78 m 128,-1,17
 133 35 133 35 133 24.5 c 128,-1,18
 133 14 133 14 147 14 c 0,19,20
 176 14 176 14 229 62 c 0,21,22
 232 66 232 66 235.5 66 c 128,-1,23
 239 66 239 66 239 61 c 0,24,25
 239 49 239 49 198.5 23 c 128,-1,26
 158 -3 158 -3 126 -3 c 0,27,28
 104 -3 104 -3 104 20 c 0,29,30
 104 38 104 38 148.5 81 c 128,-1,31
 193 124 193 124 193 139 c 128,-1,32
 193 154 193 154 175 154.5 c 0,33,34
 143.640963855 155.371084337 143.640963855 155.371084337 114.5 138.5 c 2,35,-1
 105 133 l 1,36,37
 97 124 97 124 30.5 42 c 128,-1,38
 -36 -40 -36 -40 -84 -94 c 1,39,40
 -42 -114 -42 -114 -42 -159 c 2,41,-1
 -42 -161 l 1,42,43
 -14 -154 -14 -154 13 -154 c 128,-1,44
 40 -154 40 -154 60 -165.5 c 128,-1,45
 80 -177 80 -177 80 -194 c 0,46,47
 80 -197 80 -197 77.5 -202 c 128,-1,48
 75 -207 75 -207 69 -207 c 128,-1,49
 63 -207 63 -207 59.5 -199 c 128,-1,50
 56 -191 56 -191 50.5 -184.5 c 0,51,52
 34 -165 34 -165 6 -165 c 128,-1,53
 -22 -165 -22 -165 -42 -171 c 1,54,55
 -47 -205 -47 -205 -73.5 -230.5 c 128,-1,56
 -100 -256 -100 -256 -136 -256 c 0,57,58
 -151 -256 -151 -256 -151 -244 c 0,59,60
 -151 -228 -151 -228 -124.5 -203.5 c 128,-1,61
 -98 -179 -98 -179 -59 -165 c 1,62,63
 -59 -123 -59 -123 -94 -105 c 1,64,65
 -264 -290 -264 -290 -354 -290 c 0,66,67
 -412 -290 -412 -290 -412 -252 c 0,68,69
 -412 -188 -412 -188 -322.5 -134.5 c 128,-1,70
 -233 -81 -233 -81 -152 -81 c 0,71,72
 -124 -81 -124 -81 -103 -87 c 1,73,74
 -20.2957157785 6.26227795193 -20.2957157785 6.26227795193 85.3521421108 140.131138976 c 128,-1,75
 191 274 191 274 202 288 c 128,-1,76
 213 302 213 302 222 302 c 128,-1,77
 231 302 231 302 231 293 c 0,78,79
 231 288 231 288 226 281 c 0,80,81
 125 160 125 160 125 157 c 1,82,83
 129.173913043 161.173913043 129.173913043 161.173913043 152.086956522 167.086956522 c 128,-1,84
 175 173 175 173 187 173 c 0,85,86
 218 173 218 173 218 147 c 128,-1,16
 218 121 218 121 175.5 78 c 128,-1,17
EndSplineSet
EndChar

StartChar: c
Encoding: 99 99 27
Width: 215
Flags: HMW
HStem: -11 182<141 149.5> 75 96<156.5 181.5>
VStem: 19 32<31.5 64> 209 27<118 138>
LayerCount: 2
Fore
SplineSet
93 -11 m 0,0,1
 19 -11 19 -11 19 37 c 0,2,3
 19 80 19 80 71 125.5 c 128,-1,4
 123 171 123 171 179.5 171 c 0,5,6
 236 171 236 171 236 134 c 0,7,8
 236 111 236 111 213 93 c 128,-1,9
 190 75 190 75 171.5 75 c 0,10,11
 153 75 153 75 144.5 82.5 c 128,-1,12
 136 90 136 90 136 96.5 c 0,13,14
 136 103 136 103 143.5 111.5 c 128,-1,15
 151 120 151 120 156 121 c 1,16,17
 165 121 165 121 165 113 c 0,18,19
 165 111 165 111 163 108.5 c 0,20,21
 161 106 161 106 161 95 c 0,22,23
 161 87 161 87 172.5 87 c 0,24,25
 184 87 184 87 196.5 98.5 c 128,-1,26
 209 110 209 110 209 126 c 0,27,28
 209 160 209 160 171 160 c 0,29,30
 133 160 133 160 92 119.5 c 128,-1,31
 51 79 51 79 51 43 c 0,32,33
 51 3 51 3 108 3 c 0,34,35
 189 3 189 3 246 62 c 0,36,37
 249 66 249 66 252.5 66 c 0,38,39
 256 66 256 66 256 60.5 c 0,40,41
 256 55 256 55 240 39 c 128,-1,42
 224 23 224 23 184 6 c 128,-1,43
 144 -11 144 -11 93 -11 c 0,0,1
EndSplineSet
EndChar

StartChar: d
Encoding: 100 100 28
Width: 243
Flags: HMW
HStem: -8 180<51 193.5> 492 20G<240 295.5>
VStem: 22 25<34 65.5 34 65.5> 175 21<361 396.5> 326 25<377 426>
LayerCount: 2
Fore
SplineSet
223 303 m 128,-1,1
 250 261 250 261 295 244 c 1,2,3
 326 334 326 334 326 398 c 0,4,5
 326 493 326 493 265 493 c 0,6,7
 239 493 239 493 222 470 c 0,8,9
 196 434.823529412 196 434.823529412 196 389.911764706 c 128,-1,0
 196 345 196 345 223 303 c 128,-1,1
173 172 m 0,10,11
 191 172 191 172 205.5 165 c 128,-1,12
 220 158 220 158 225.5 150.5 c 2,13,-1
 231 143 l 1,14,15
 231 131 231 131 221 131 c 0,16,17
 215 131 215 131 212 139 c 1,18,19
 191 156 191 156 164 156 c 0,20,21
 117 156 117 156 82 118 c 128,-1,22
 47 80 47 80 47 45 c 128,-1,23
 47 10 47 10 81 10 c 0,24,25
 141 10 141 10 196.5 73 c 128,-1,26
 252 136 252 136 288 228 c 1,27,28
 241 242 241 242 208 284 c 128,-1,29
 175 326 175 326 175 372 c 128,-1,30
 175 418 175 418 201.5 465 c 128,-1,31
 228 512 228 512 273 512 c 0,32,33
 306 512 306 512 328.5 479 c 128,-1,34
 351 446 351 446 351 389 c 128,-1,35
 351 332 351 332 317 238 c 1,36,37
 325 236 325 236 341 236 c 0,38,39
 408 236 408 236 460 291 c 0,40,41
 473 304 473 304 477.5 304 c 128,-1,42
 482 304 482 304 482 297.5 c 128,-1,43
 482 291 482 291 474 283 c 0,44,45
 415 222 415 222 327 222 c 0,46,47
 316 222 316 222 311 223 c 1,48,49
 271 125 271 125 206.5 58.5 c 128,-1,50
 142 -8 142 -8 66 -8 c 0,51,52
 22 -8 22 -8 22 38 c 128,-1,53
 22 84 22 84 64.5 128 c 128,-1,54
 107 172 107 172 173 172 c 0,10,11
EndSplineSet
EndChar

StartChar: e
Encoding: 101 101 29
Width: 187
Flags: HMW
HStem: -5 175<120.5 126>
VStem: 23 29<45 52 45 71> 164 25<113.5 138.5>
LayerCount: 2
Fore
SplineSet
52 52 m 2,0,-1
 52 45 l 1,1,2
 164 88 164 88 164 131 c 0,3,4
 164 153 164 153 136.5 153 c 0,5,6
 109 153 109 153 80.5 119 c 128,-1,7
 52 85 52 85 52 52 c 2,0,-1
189 139 m 0,8,9
 189 79 189 79 55 35 c 1,10,11
 63 12 63 12 99 12 c 0,12,13
 160 12 160 12 215 62 c 0,14,15
 218 66 218 66 221.5 66 c 0,16,17
 225 66 225 66 225 59.5 c 0,18,19
 225 53 225 53 207 38 c 128,-1,20
 189 23 189 23 156 9 c 128,-1,21
 123 -5 123 -5 91 -5 c 0,22,23
 23 -5 23 -5 23 45 c 0,24,25
 23 86 23 86 64.5 128 c 128,-1,26
 106 170 106 170 154 170 c 0,27,28
 189 170 189 170 189 139 c 0,8,9
EndSplineSet
EndChar

StartChar: f
Encoding: 102 102 30
Width: 134
Flags: HMW
HStem: -285 197<-360 -146.5> -251 163<-223.5 -101.5> 461 20G<442.5 512>
VStem: -395 30<-253.5 -222 -253.5 -219.5> -136 84
LayerCount: 2
Fore
SplineSet
-111 -230 m 0,0,1
 -92 -229 -92 -229 -79 -212.5 c 128,-1,2
 -66 -196 -66 -196 -66 -177 c 2,3,-1
 -66 -175 l 1,4,5
 -114 -197 -114 -197 -114 -226 c 0,6,7
 -114 -230 -114 -230 -111 -230 c 0,0,1
-334 -272 m 0,8,9
 -249 -272 -249 -272 -103 -111 c 1,10,11
 -128 -100 -128 -100 -171 -100 c 0,12,13
 -242 -100 -242 -100 -303.5 -152.5 c 128,-1,14
 -365 -205 -365 -205 -365 -246 c 0,15,16
 -365 -272 -365 -272 -334 -272 c 0,8,9
540 449 m 0,17,18
 540 432.545454545 540 432.545454545 519 423 c 1,19,20
 493 423 493 423 493 434 c 0,21,22
 493 440 493 440 501.5 447.5 c 128,-1,23
 510 455 510 455 510 460 c 128,-1,24
 510 465 510 465 483.5 465 c 128,-1,25
 457 465 457 465 418 442 c 128,-1,26
 379 419 379 419 331 370.5 c 0,27,28
 250.950194553 289.616342412 250.950194553 289.616342412 147 161 c 1,29,-1
 212 161 l 2,30,31
 224 161 224 161 224 155 c 0,32,33
 224 147 224 147 206 145 c 1,34,-1
 134 145 l 1,35,36
 -26 -53 -26 -53 -79 -110 c 1,37,38
 -56 -128 -56 -128 -52 -158 c 1,39,40
 -15 -143 -15 -143 10.5 -143 c 128,-1,41
 36 -143 36 -143 58 -153 c 128,-1,42
 80 -163 80 -163 80 -178 c 0,43,44
 80 -184 80 -184 77 -185 c 1,45,-1
 75 -185 l 2,46,47
 73 -185 73 -185 69.5 -180.5 c 128,-1,48
 66 -176 66 -176 60.5 -170.5 c 0,49,50
 46 -156 46 -156 13 -156 c 128,-1,51
 -20 -156 -20 -156 -52 -169 c 1,52,53
 -53 -203 -53 -203 -73 -227 c 128,-1,54
 -93 -251 -93 -251 -114.5 -251 c 128,-1,55
 -136 -251 -136 -251 -136 -233.5 c 128,-1,56
 -136 -216 -136 -216 -116 -197 c 128,-1,57
 -96 -178 -96 -178 -66 -164 c 1,58,59
 -70 -135 -70 -135 -88 -120 c 1,60,61
 -244 -285 -244 -285 -341 -285 c 0,62,63
 -395 -285 -395 -285 -395 -248 c 0,64,65
 -395 -200 -395 -200 -321.5 -144 c 128,-1,66
 -248 -88 -248 -88 -161 -88 c 0,67,68
 -120 -88 -120 -88 -94 -101 c 1,69,70
 -49 -51 -49 -51 108 145 c 1,71,-1
 49 145 l 2,72,73
 40 145 40 145 40 151 c 0,74,75
 40 160 40 160 57 160 c 2,76,-1
 120 160 l 1,77,78
 246 316 246 316 335 398.5 c 128,-1,79
 424 481 424 481 496 481 c 0,80,81
 540 481 540 481 540 449 c 0,17,18
EndSplineSet
EndChar

StartChar: g
Encoding: 103 103 31
Width: 228
Flags: HMW
HStem: -267 197<-179.5 74> -83 101<-8 97 62 97> 1 173<50 186.5>
VStem: -214 32<-239 -208.5 -239 -207> 13 29<40.5 70.5 40.5 71.5>
LayerCount: 2
Fore
SplineSet
225 122 m 1,0,1
 219 158 219 158 168 158 c 128,-1,2
 117 158 117 158 79.5 121 c 128,-1,3
 42 84 42 84 42 50 c 0,4,5
 42 18 42 18 78 18 c 0,6,7
 111 18 111 18 156 45 c 2,8,-1
 171 54 l 1,9,-1
 225 122 l 1,0,1
-153 -255 m 0,10,11
 -78 -255 -78 -255 63 -83 c 1,12,-1
 62 -83 l 2,13,14
 -34 -83 -34 -83 -108 -136.5 c 128,-1,15
 -182 -190 -182 -190 -182 -232 c 0,16,17
 -182 -255 -182 -255 -153 -255 c 0,10,11
82 -220 m 0,18,19
 96 -223 96 -223 104 -223 c 0,20,21
 137 -223 137 -223 155 -206.5 c 128,-1,22
 173 -190 173 -190 173 -163.5 c 128,-1,23
 173 -137 173 -137 150.5 -114 c 128,-1,24
 128 -91 128 -91 88 -85 c 1,25,26
 36 -144 36 -144 3.5 -176.5 c 128,-1,27
 -29 -209 -29 -209 -75 -238 c 128,-1,28
 -121 -267 -121 -267 -161 -267 c 0,29,30
 -214 -267 -214 -267 -214 -235 c 0,31,32
 -214 -188 -214 -188 -123.5 -129.5 c 128,-1,33
 -33 -71 -33 -71 74 -70 c 1,34,-1
 147 24 l 1,35,36
 109 1 109 1 70 1 c 0,37,38
 13 1 13 1 13 46 c 0,39,40
 13 88 13 88 59.5 131 c 128,-1,41
 106 174 106 174 168 174 c 128,-1,42
 230 174 230 174 239 136 c 1,43,44
 250 148 250 148 254 157 c 1,45,46
 261 168 261 168 269.5 168 c 128,-1,47
 278 168 278 168 278 162 c 2,48,-1
 278 160 l 2,49,50
 278 147 278 147 99 -71 c 1,51,52
 143 -77 143 -77 167 -102.5 c 128,-1,53
 191 -128 191 -128 191 -159 c 128,-1,54
 191 -190 191 -190 169 -211.5 c 128,-1,55
 147 -233 147 -233 112.5 -233 c 128,-1,56
 78 -233 78 -233 78 -224 c 0,57,58
 78 -220 78 -220 82 -220 c 0,18,19
EndSplineSet
EndChar

StartChar: k
Encoding: 107 107 32
Width: 254
Flags: HMW
HStem: -5 176<155.5 227.5> 151 20<185.5 227.5> 472 20G<387 391>
VStem: 114 27<29 75.5 29 77> 217 35<110 140>
LayerCount: 2
Fore
SplineSet
168 12 m 0,0,1
 229 12 229 12 284 62 c 0,2,3
 287 66 287 66 290.5 66 c 128,-1,4
 294 66 294 66 294 59.5 c 128,-1,5
 294 53 294 53 276 38 c 128,-1,6
 258 23 258 23 225 9 c 128,-1,7
 192 -5 192 -5 172.5 -5 c 128,-1,8
 153 -5 153 -5 144 -2.5 c 128,-1,9
 135 0 135 0 124.5 10.5 c 128,-1,10
 114 21 114 21 114 42.5 c 128,-1,11
 114 64 114 64 130 79 c 128,-1,12
 146 94 146 94 165.5 97.5 c 0,13,14
 217 106.743589744 217 106.743589744 217 133 c 0,15,16
 217 151 217 151 194.5 151 c 0,17,18
 164 151 164 151 94 116 c 1,19,20
 43 51 43 51 24 26 c 128,-1,21
 5 1 5 1 -6 1.5 c 128,-1,22
 -17 2 -17 2 -17 9 c 128,-1,23
 -17 16 -17 16 -11 22 c 0,24,25
 60 112 60 112 164 236.5 c 128,-1,26
 268 361 268 361 315 420 c 1,27,28
 324 429 324 429 324 433 c 128,-1,29
 324 437 324 437 322 437 c 128,-1,30
 320 437 320 437 314.5 433.5 c 128,-1,31
 309 430 309 430 283 422 c 128,-1,32
 257 414 257 414 230 414 c 128,-1,33
 203 414 203 414 203 426 c 0,34,35
 203 429 203 429 205.5 431.5 c 128,-1,36
 208 434 208 434 209.5 434 c 128,-1,37
 211 434 211 434 221.5 429.5 c 128,-1,38
 232 425 232 425 245.5 425 c 128,-1,39
 259 425 259 425 297.5 439 c 128,-1,40
 336 453 336 453 374 484 c 0,41,42
 384 492 384 492 389 492 c 0,43,44
 399 492 399 492 399 484 c 1,45,-1
 394 474 l 1,46,47
 390 470 390 470 274.5 333.5 c 128,-1,48
 159 197 159 197 109 135 c 1,49,50
 179 171 179 171 215.5 171 c 128,-1,51
 252 171 252 171 252 138 c 0,52,53
 252 119 252 119 234.5 108 c 128,-1,54
 217 97 217 97 196.5 93.5 c 128,-1,55
 176 90 176 90 158.5 77.5 c 128,-1,56
 141 65 141 65 141 43 c 0,57,58
 141 12 141 12 168 12 c 0,0,1
EndSplineSet
EndChar

StartChar: m
Encoding: 109 109 33
Width: 330
Flags: HMW
HStem: -9 177<243.5 316.5> -7 21G<-13.5 -9> 154 20G<113 119>
VStem: 228 107<5.5 143> 304 31<121.5 139.5>
LayerCount: 2
Fore
SplineSet
257 19 m 0,0,1
 257 8 257 8 271 8 c 0,2,3
 299 8 299 8 359 62 c 0,4,5
 362 66 362 66 365.5 66 c 128,-1,6
 369 66 369 66 369 61 c 0,7,8
 369 48 369 48 325.5 19.5 c 128,-1,9
 282 -9 282 -9 250 -9 c 0,10,11
 228 -9 228 -9 228 14 c 0,12,13
 228 34 228 34 266 76.5 c 128,-1,14
 304 119 304 119 304 133.5 c 128,-1,15
 304 148 304 148 278 147.5 c 128,-1,16
 252 147 252 147 186 107 c 1,17,18
 117 11 117 11 113.5 6.5 c 128,-1,19
 110 2 110 2 102 2 c 128,-1,20
 94 2 94 2 94 10 c 128,-1,21
 94 18 94 18 103 27 c 1,22,23
 116 45 116 45 128 60.5 c 128,-1,24
 140 76 140 76 147 85.5 c 128,-1,25
 154 95 154 95 160.5 103 c 128,-1,26
 167 111 167 111 170 115.5 c 128,-1,27
 173 120 173 120 175.5 123 c 128,-1,28
 178 126 178 126 178.5 128.5 c 128,-1,29
 179 131 179 131 179.5 133 c 128,-1,30
 180 135 180 135 180 138 c 0,31,32
 180 149 180 149 166.5 149 c 128,-1,33
 153 149 153 149 128.5 137 c 128,-1,34
 104 125 104 125 94 117.5 c 128,-1,35
 84 110 84 110 48.5 63.5 c 128,-1,36
 13 17 13 17 2 1 c 1,37,38
 -5 -7 -5 -7 -12 -7 c 128,-1,39
 -19 -7 -19 -7 -19 1 c 128,-1,40
 -19 9 -19 9 -16 12.5 c 128,-1,41
 -13 16 -13 16 -4.5 27 c 128,-1,42
 4 38 4 38 16.5 54.5 c 128,-1,43
 29 71 29 71 36 80 c 128,-1,44
 43 89 43 89 101 166 c 0,45,46
 107 174 107 174 116 174 c 128,-1,47
 125 174 125 174 125 164 c 128,-1,48
 125 154 125 154 118 147 c 1,49,-1
 119 146 l 1,50,51
 149 166 149 166 177.5 166 c 128,-1,52
 206 166 206 166 206 145 c 0,53,54
 206 136 206 136 202 130 c 1,55,56
 267 168 267 168 300 168 c 0,57,58
 315 168 315 168 323.5 162 c 128,-1,59
 332 156 332 156 335 143 c 1,60,61
 335 120 335 120 296 77.5 c 128,-1,62
 257 35 257 35 257 19 c 0,0,1
EndSplineSet
EndChar

StartChar: n
Encoding: 110 110 34
Width: 235
Flags: HMW
HStem: -3 180<153.5 226> 163 20G<127 133.5>
VStem: 138 29<22 39.5> 214 31<127.5 145.5>
LayerCount: 2
Fore
SplineSet
245 149 m 1,0,1
 245 126 245 126 206 83.5 c 128,-1,2
 167 41 167 41 167 25 c 0,3,4
 167 14 167 14 181 14 c 0,5,6
 210 14 210 14 263 62 c 0,7,8
 266 66 266 66 269.5 66 c 0,9,10
 273 66 273 66 273 61 c 0,11,12
 273 49 273 49 232.5 23 c 128,-1,13
 192 -3 192 -3 160 -3 c 0,14,15
 138 -3 138 -3 138 19 c 0,16,17
 138 41 138 41 176 83.5 c 128,-1,18
 214 126 214 126 214 140 c 128,-1,19
 214 154 214 154 189.5 153.5 c 0,20,21
 165 153 165 153 102 119 c 1,22,23
 88 106 88 106 41.5 52 c 0,24,25
 -5 -2 -5 -2 -8 -3 c 1,26,27
 -19 -3 -19 -3 -19 7 c 1,28,29
 -18 10 -18 10 -4.5 27 c 128,-1,30
 9 44 9 44 13 48 c 2,31,-1
 94 149 l 1,32,33
 124 183 124 183 130 183 c 0,34,35
 142 183 142 183 142 173 c 1,36,37
 139 168 139 168 130 158 c 128,-1,38
 121 148 121 148 117 141 c 1,39,40
 174 177 174 177 209 177 c 0,41,42
 224 177 224 177 233 170 c 128,-1,43
 242 163 242 163 245 149 c 1,0,1
EndSplineSet
EndChar

StartChar: o
Encoding: 111 111 35
Width: 213
Flags: HMW
HStem: -5 175 -5 194<42 178>
VStem: 4 34<36.5 65> 4 150<26.5 166.5> 188 22<135.5 145.5>
LayerCount: 2
Fore
SplineSet
154 164 m 0,0,1
 154 123 154 123 187 115 c 1,2,3
 188 120 188 120 188 135.5 c 0,4,5
 188 151 188 151 180 161.5 c 128,-1,6
 172 172 172 172 163 172 c 128,-1,7
 154 172 154 172 154 164 c 0,0,1
183 100 m 1,8,9
 134 105 134 105 131 154 c 1,10,11
 97 153 97 153 67.5 116.5 c 128,-1,12
 38 80 38 80 38 47 c 0,13,14
 38 10 38 10 77 10 c 0,15,16
 103 10 103 10 137 36.5 c 128,-1,17
 171 63 171 63 183 100 c 1,8,9
4 39 m 0,18,19
 4 79 4 79 46.5 124 c 128,-1,20
 89 169 89 169 133 170 c 1,21,22
 142 189 142 189 163.5 189 c 0,23,24
 185 189 185 189 197.5 176.5 c 128,-1,25
 210 164 210 164 210 144.5 c 0,26,27
 210 125 210 125 206 113 c 1,28,29
 235 113 235 113 271 127 c 128,-1,30
 307 141 307 141 314 148 c 1,31,-1
 319 143 l 1,32,33
 319 141 319 141 311 134 c 0,34,35
 303 127 303 127 268 114 c 128,-1,36
 233 101 233 101 202 100 c 1,37,38
 186 58 186 58 146 26.5 c 128,-1,39
 106 -5 106 -5 63 -5 c 0,40,41
 4 -5 4 -5 4 39 c 0,18,19
EndSplineSet
EndChar

StartChar: j
Encoding: 106 106 36
Width: 99
Flags: HMW
HStem: -275 178<-356 -142.5> -260 21<-113.5 -105.5> 249 20G<182.5 193.5>
VStem: -384 32<-239 -213> -142 102
LayerCount: 2
Fore
SplineSet
171 258.5 m 128,-1,1
 180 269 180 269 187.5 269 c 128,-1,2
 195 269 195 269 199.5 264.5 c 128,-1,3
 204 260 204 260 204 251 c 128,-1,4
 204 242 204 242 193.5 234 c 128,-1,5
 183 226 183 226 176 226 c 0,6,7
 162 226 162 226 162 239 c 0,8,0
 162 248 162 248 171 258.5 c 128,-1,1
-122 -229 m 0,9,10
 -122 -239 -122 -239 -108 -239 c 128,-1,11
 -94 -239 -94 -239 -78 -218.5 c 128,-1,12
 -62 -198 -62 -198 -60 -174 c 1,13,14
 -87 -185 -87 -185 -104.5 -201 c 128,-1,15
 -122 -217 -122 -217 -122 -229 c 0,9,10
-156 -107 m 0,16,17
 -242 -107 -242 -107 -297 -149.5 c 128,-1,18
 -352 -192 -352 -192 -352 -231 c 0,19,20
 -352 -258 -352 -258 -323 -258 c 0,21,22
 -262 -258 -262 -258 -124 -109 c 1,23,24
 -142 -107 -142 -107 -156 -107 c 0,16,17
145 175 m 1,25,-1
 140 165 l 1,26,27
 108 129 108 129 29.5 36 c 128,-1,28
 -49 -57 -49 -57 -92 -104 c 1,29,30
 -43 -118 -43 -118 -40 -158 c 1,31,32
 -17 -152 -17 -152 7 -152 c 0,33,34
 50 -152 50 -152 58 -193 c 1,35,36
 58 -201 58 -201 51 -201 c 0,37,38
 47.5 -201 47.5 -201 43.75 -193.5 c 128,-1,39
 40 -186 40 -186 37.5 -182 c 128,-1,40
 35 -178 35 -178 30 -173 c 0,41,42
 19 -162 19 -162 1 -162 c 128,-1,43
 -17 -162 -17 -162 -40 -167 c 1,44,45
 -42 -200 -42 -200 -69 -230 c 128,-1,46
 -96 -260 -96 -260 -125 -260 c 0,47,48
 -142 -260 -142 -260 -142 -245 c 0,49,50
 -142 -227 -142 -227 -119 -202.5 c 128,-1,51
 -96 -178 -96 -178 -60 -164 c 1,52,53
 -62 -129 -62 -129 -102 -114 c 1,54,55
 -251 -275 -251 -275 -342 -275 c 0,56,57
 -384 -275 -384 -275 -384 -239 c 0,58,59
 -384 -193 -384 -193 -318.5 -145 c 128,-1,60
 -253 -97 -253 -97 -149 -97 c 0,61,62
 -124 -97 -124 -97 -114 -99 c 1,63,64
 -72 -53 -72 -53 -6 25.5 c 128,-1,65
 60 104 60 104 74.5 118.5 c 128,-1,66
 89 133 89 133 102 150 c 0,67,68
 127.235294118 183 127.235294118 183 136.117647059 183 c 128,-1,69
 145 183 145 183 145 175 c 1,25,-1
EndSplineSet
EndChar

StartChar: r
Encoding: 114 114 37
Width: 178
Flags: HMW
HStem: -5 21G<-12 -12 -12 -10> 143 20G<179 181.5> 144 20G<108 115>
VStem: 126 29<103 104>
LayerCount: 2
Fore
SplineSet
178 89 m 0,0,1
 187 89 187 89 201 97 c 1,2,3
 206 97 206 97 206 93.5 c 128,-1,4
 206 90 206 90 203.5 88 c 128,-1,5
 201 86 201 86 185 81 c 128,-1,6
 169 76 169 76 159 76 c 0,7,8
 126 76 126 76 126 97 c 0,9,10
 126 105 126 105 130.5 114 c 128,-1,11
 135 123 135 123 135 126 c 128,-1,12
 135 129 135 129 133 129 c 0,13,14
 113 122 113 122 75 94 c 1,15,-1
 4 5 l 2,16,17
 -4 -5 -4 -5 -11.5 -5 c 128,-1,18
 -19 -5 -19 -5 -19 0 c 128,-1,19
 -19 5 -19 5 -12 16 c 1,20,-1
 51 95 l 2,21,22
 58 104 58 104 77 129 c 128,-1,23
 96 154 96 154 99.5 159 c 128,-1,24
 103 164 103 164 113.5 164 c 128,-1,25
 124 164 124 164 124 160 c 128,-1,26
 124 156 124 156 122 154 c 2,27,-1
 108 134 l 2,28,29
 105 130 105 130 101 126 c 1,30,31
 110 128 110 128 173 162 c 0,32,33
 175 163 175 163 180 163 c 128,-1,34
 185 163 185 163 185 160.5 c 128,-1,35
 185 158 185 158 183.5 155.5 c 128,-1,36
 182 153 182 153 173 142 c 0,37,38
 155 120 155 120 155 109 c 0,39,40
 155 89 155 89 178 89 c 0,0,1
EndSplineSet
EndChar

StartChar: t
Encoding: 116 116 38
Width: 104
Flags: HMW
HStem: -1 20<30.5 64.5> -1 222<30.5 246> 320 20G<244 253.5>
VStem: 11 26<36 44.5>
LayerCount: 2
Fore
SplineSet
248.5 340 m 128,-1,1
 259 340 259 340 259 333.5 c 2,2,-1
 259 331 l 2,3,4
 259 325 259 325 242.5 310.5 c 128,-1,5
 226 296 226 296 163 221 c 1,6,-1
 246 221 l 2,7,8
 258 221 258 221 258 215 c 0,9,10
 258 207 258 207 234 207 c 2,11,-1
 151 207 l 1,12,13
 37 71 37 71 37 41 c 0,14,15
 37 19 37 19 61 19 c 0,16,17
 69 19 69 19 87 24 c 1,18,19
 119 37 119 37 134 51.5 c 128,-1,20
 149 66 149 66 152.5 66 c 128,-1,21
 156 66 156 66 156 60 c 128,-1,22
 156 54 156 54 138 38.5 c 128,-1,23
 120 23 120 23 93 11 c 128,-1,24
 66 -1 66 -1 44 -1 c 0,25,26
 11 -1 11 -1 11 33 c 128,-1,27
 11 67 11 67 126 208 c 1,28,29
 83 208 83 208 67.5 208.5 c 128,-1,30
 52 209 52 209 52 214.5 c 128,-1,31
 52 220 52 220 69 222 c 1,32,-1
 138 222 l 1,33,34
 212.48 312.16 212.48 312.16 225.24 326.08 c 128,-1,0
 238 340 238 340 248.5 340 c 128,-1,1
EndSplineSet
EndChar

StartChar: q
Encoding: 113 113 39
Width: 236
Flags: HMW
HStem: -289 221<-77 42> 5 176<66.5 185>
VStem: -100 217<-279.5 -109> 16 28<48.5 85 48.5 97.5> 90 27<-159 -122>
LayerCount: 2
Fore
SplineSet
69 -92 m 1,0,1
 -75 -254 -75 -254 -75 -263.5 c 128,-1,2
 -75 -273 -75 -273 -52 -273 c 128,-1,3
 -29 -273 -29 -273 30.5 -226.5 c 128,-1,4
 90 -180 90 -180 90 -131 c 0,5,6
 90 -106 90 -106 69 -92 c 1,0,1
99 21 m 0,7,8
 127.583333333 21 127.583333333 21 154.5 40 c 2,9,-1
 163 46 l 1,10,11
 227 112 227 112 227 126 c 1,12,13
 221 165 221 165 169.5 165 c 128,-1,14
 118 165 118 165 81 131.5 c 128,-1,15
 44 98 44 98 44 61 c 0,16,17
 44 21 44 21 99 21 c 0,7,8
262 167 m 2,18,19
 269 176 269 176 277.5 176 c 128,-1,20
 286 176 286 176 286 170 c 2,21,-1
 286 168 l 2,22,23
 286 160 286 160 281 155 c 128,-1,24
 276 150 276 150 247.5 115.5 c 0,25,26
 169.15942029 20.6666666667 169.15942029 20.6666666667 83 -76 c 1,27,28
 117 -90 117 -90 117 -118 c 0,29,30
 117 -176 117 -176 48.5 -232.5 c 128,-1,31
 -20 -289 -20 -289 -75 -289 c 0,32,33
 -100 -289 -100 -289 -100 -272 c 0,34,35
 -100 -257.813953488 -100 -257.813953488 -36.5 -188.406976744 c 128,-1,36
 27 -119 27 -119 55 -85 c 1,37,38
 26.7919075145 -70.8959537572 26.7919075145 -70.8959537572 -34.6040462428 -94.9479768786 c 128,-1,39
 -96 -119 -96 -119 -132 -157 c 0,40,41
 -138 -164 -138 -164 -141 -164 c 0,42,43
 -148 -164 -148 -164 -148 -158 c 1,44,-1
 -141 -147 l 1,45,46
 -43 -68 -43 -68 37 -68 c 0,47,48
 52 -68 52 -68 67 -71 c 1,49,50
 81 -56 81 -56 104 -26.5 c 128,-1,51
 127 3 127 3 139 16 c 1,52,53
 105 5 105 5 81 5 c 0,54,55
 16 5 16 5 16 59 c 128,-1,56
 16 113 16 113 64 147 c 128,-1,57
 112 181 112 181 169.5 181 c 128,-1,58
 227 181 227 181 243 143 c 1,59,-1
 262 167 l 2,18,19
EndSplineSet
EndChar

StartChar: s
Encoding: 115 115 40
Width: 215
Flags: HMW
HStem: -9 116<74.5 98.5 74.5 138> 97 87
VStem: 16 25<39 60.5>
LayerCount: 2
Fore
SplineSet
16 39 m 1,0,1
 16 69 16 69 40 88 c 128,-1,2
 64 107 64 107 92.5 107 c 0,3,4
 121 107 121 107 121 82 c 0,5,6
 121 71 121 71 113.5 60 c 128,-1,7
 106 49 106 49 97.5 49 c 0,8,9
 89 49 89 49 89 55.5 c 0,10,11
 89 62 89 62 95.5 68 c 0,12,13
 102 74 102 74 102 80 c 0,14,15
 102 97 102 97 86 97 c 0,16,17
 70 97 70 97 55.5 82.5 c 128,-1,18
 41 68 41 68 41 48.5 c 0,19,20
 41 29 41 29 51 16 c 128,-1,21
 61 3 61 3 82.5 3 c 0,22,23
 104 3 104 3 119.5 21.5 c 128,-1,24
 135 40 135 40 143 66.5 c 128,-1,25
 151 93 151 93 160.5 120 c 128,-1,26
 170 147 170 147 189.5 165.5 c 128,-1,27
 209 184 209 184 232 184 c 0,28,29
 255 184 255 184 268 176.5 c 128,-1,30
 281 169 281 169 281 157 c 128,-1,31
 281 145 281 145 271.5 134 c 128,-1,32
 262 123 262 123 251 123 c 0,33,34
 240 123 240 123 239 128 c 1,35,36
 239 136 239 136 250 142 c 1,37,38
 256 144 256 144 256 156 c 0,39,40
 256 172 256 172 234 172 c 0,41,42
 212 172 212 172 197 143.5 c 128,-1,43
 182 115 182 115 174.5 81.5 c 128,-1,44
 167 48 167 48 142 19.5 c 128,-1,45
 117 -9 117 -9 75 -9 c 0,46,47
 49 -9 49 -9 34 3 c 128,-1,48
 19 15 19 15 17.5 27 c 2,49,-1
 16 39 l 1,0,1
EndSplineSet
EndChar

StartChar: u
Encoding: 117 117 41
Width: 228
Flags: HMW
HStem: -3 21 -1 21G<13.5 46> 153 20G<115 119.5>
VStem: -5 29<25.5 41.5 25.5 42>
LayerCount: 2
Fore
SplineSet
125 20 m 0,0,1
 125 35.6666666667 125 35.6666666667 136 54 c 0,2,3
 136 55 136 55 136 56 c 128,-1,4
 136 57 136 57 135 56 c 0,5,6
 68 -1 68 -1 24 -1 c 0,7,8
 -5 -1 -5 -1 -5 19 c 128,-1,9
 -5 39 -5 39 23 76.5 c 128,-1,10
 51 114 51 114 79.5 143 c 128,-1,11
 108 172 108 172 106 168 c 1,12,13
 111 173 111 173 118 173 c 128,-1,14
 125 173 125 173 125 166.5 c 128,-1,15
 125 160 125 160 119 154 c 128,-1,16
 113 148 113 148 96.5 129.5 c 128,-1,17
 80 111 80 111 70.5 100 c 128,-1,18
 61 89 61 89 48.5 73.5 c 0,19,20
 24 43.12 24 43.12 24 29 c 0,21,22
 24 18 24 18 40 18 c 128,-1,23
 56 18 56 18 85 37 c 128,-1,24
 114 56 114 56 135 75.5 c 2,25,-1
 156 95 l 1,26,27
 198 132 198 132 213 154 c 1,28,29
 222 165 222 165 231 165 c 128,-1,30
 240 165 240 165 240 158 c 0,31,32
 240 152.090909091 240 152.090909091 214.5 125.045454545 c 0,33,34
 162.387096774 69.7741935484 162.387096774 69.7741935484 158 61 c 0,35,36
 148 38 148 38 148 30 c 0,37,38
 148 14 148 14 172.5 14 c 128,-1,39
 197 14 197 14 250 62 c 0,40,41
 253 66 253 66 256.5 66 c 128,-1,42
 260 66 260 66 260 61 c 0,43,44
 260 49 260 49 219.5 23 c 128,-1,45
 179 -3 179 -3 147 -3 c 0,46,47
 125 -3 125 -3 125 20 c 0,0,1
EndSplineSet
EndChar

StartChar: v
Encoding: 118 118 42
Width: 190
Flags: HMW
HStem: -7 20<42 60.5> 90 108<195 195.5 172 233> 181 20G<96 100>
VStem: 6 27<23.5 41> 90 20<167 188 167 190> 140 22<149 158> 140 73<136.5 178>
LayerCount: 2
Fore
SplineSet
179 117 m 1,0,1
 194 144 194 144 194 162 c 128,-1,2
 194 180 194 180 176 180 c 0,3,4
 162 180 162 180 162 155.5 c 128,-1,5
 162 131 162 131 179 117 c 1,0,1
99 201 m 0,6,7
 110 201 110 201 110 184.5 c 128,-1,8
 110 168 110 168 71.5 108 c 128,-1,9
 33 48 33 48 33 30.5 c 128,-1,10
 33 13 33 13 47 13 c 0,11,12
 78 13 78 13 111 38 c 128,-1,13
 144 63 144 63 167 98 c 1,14,15
 140 114 140 114 140 140 c 128,-1,16
 140 166 140 166 153 182 c 128,-1,17
 166 198 166 198 186 198 c 0,18,19
 213 198 213 198 213 171 c 128,-1,20
 213 144 213 144 194 109 c 1,21,22
 202 107 202 107 219.5 107 c 128,-1,23
 237 107 237 107 255 116.5 c 128,-1,24
 273 126 273 126 280.5 135 c 128,-1,25
 288 144 288 144 293 144 c 128,-1,26
 298 144 298 144 298 141 c 0,27,28
 298 136 298 136 288.5 124.5 c 128,-1,29
 279 113 279 113 254.5 101.5 c 128,-1,30
 230 90 230 90 210.5 90 c 128,-1,31
 191 90 191 90 183 92 c 1,32,33
 155 50 155 50 114 21.5 c 128,-1,34
 73 -7 73 -7 29 -7 c 0,35,36
 6 -7 6 -7 6 17.5 c 128,-1,37
 6 42 6 42 48 104 c 128,-1,38
 90 166 90 166 90 183.5 c 128,-1,39
 90 201 90 201 99 201 c 0,6,7
EndSplineSet
EndChar

StartChar: w
Encoding: 119 119 43
Width: 321
Flags: HMW
HStem: -7 21G<14.5 37> -3 149<143.5 218> 104 110<327 330 308.5 346>
VStem: -3 29<24 37> 277 20<155 173.5> 277 68<150.5 197>
LayerCount: 2
Fore
SplineSet
309 127 m 1,0,1
 327 158 327 158 327 177 c 128,-1,2
 327 196 327 196 316 196 c 0,3,4
 309 196 309 196 303 187.5 c 128,-1,5
 297 179 297 179 297 158.5 c 128,-1,6
 297 138 297 138 309 127 c 1,0,1
201 122 m 0,7,8
 201 127 201 127 193 127 c 0,9,10
 175 127 175 127 158.5 104.5 c 128,-1,11
 142 82 142 82 138 57 c 1,12,13
 201 103 201 103 201 122 c 0,7,8
236.5 29.5 m 128,-1,15
 191 -3 191 -3 156.5 -3 c 128,-1,16
 122 -3 122 -3 117 28 c 1,17,18
 59 -7 59 -7 28 -7 c 128,-1,19
 -3 -7 -3 -7 -3 14 c 0,20,21
 -3 49.4 -3 49.4 75 143 c 0,22,23
 85 155 85 155 99.5 170.5 c 128,-1,24
 114 186 114 186 116.5 189 c 128,-1,25
 119 192 119 192 126 192 c 128,-1,26
 133 192 133 192 133 185.5 c 128,-1,27
 133 179 133 179 122.5 167.5 c 128,-1,28
 112 156 112 156 92 132 c 128,-1,29
 72 108 72 108 49 74 c 128,-1,30
 26 40 26 40 26 31 c 0,31,32
 26 13 26 13 42 13 c 0,33,34
 69 13 69 13 117 43 c 1,35,36
 121 79 121 79 149.5 112.5 c 128,-1,37
 178 146 178 146 213 146 c 0,38,39
 227 146 227 146 227 136 c 0,40,41
 227 122 227 122 200.5 94.5 c 128,-1,42
 174 67 174 67 137 41 c 1,43,44
 139 13 139 13 167.5 13 c 128,-1,45
 196 13 196 13 234.5 43 c 128,-1,46
 273 73 273 73 300 112 c 1,47,48
 277 128 277 128 277 155 c 128,-1,49
 277 182 277 182 289.5 198 c 128,-1,50
 302 214 302 214 323.5 214 c 128,-1,51
 345 214 345 214 345 186.5 c 128,-1,52
 345 159 345 159 322 120 c 1,53,54
 332 118 332 118 339 118 c 0,55,56
 378 118 378 118 422 148 c 1,57,-1
 427 143 l 1,58,59
 427 140 427 140 425 138 c 0,60,61
 374 104 374 104 330 104 c 0,62,63
 323 104 323 104 313 106 c 1,64,14
 282 62 282 62 236.5 29.5 c 128,-1,15
EndSplineSet
EndChar

StartChar: y
Encoding: 121 121 44
Width: 203
Flags: HMW
HStem: -280 189<-217 -5> -245 154<-63 23> -152 169<44.5 172> -4 21G<44.5 55> 153 20G<126 130.5>
VStem: -253 25<-244.5 -199 -244.5 -196.5> 3 32<27 36.5>
LayerCount: 2
Fore
SplineSet
7 -221 m 0,0,1
 7 -227 7 -227 22 -227 c 128,-1,2
 37 -227 37 -227 52.5 -208.5 c 128,-1,3
 68 -190 68 -190 69 -167 c 1,4,5
 42 -179 42 -179 24.5 -195 c 128,-1,6
 7 -211 7 -211 7 -221 c 0,0,1
-17 -104 m 0,7,8
 -88 -104 -88 -104 -158 -144 c 128,-1,9
 -228 -184 -228 -184 -228 -235 c 0,10,11
 -228 -249 -228 -249 -218.5 -258 c 128,-1,12
 -209 -267 -209 -267 -193 -267 c 0,13,14
 -121 -267 -121 -267 21 -108 c 1,15,16
 6 -104 6 -104 -17 -104 c 0,7,8
249 140 m 1,17,18
 232 123 232 123 164.5 35 c 128,-1,19
 97 -53 97 -53 52 -104 c 1,20,21
 83 -120 83 -120 84 -151 c 1,22,23
 120 -139 120 -139 144.5 -139 c 128,-1,24
 169 -139 169 -139 192.5 -147 c 128,-1,25
 216 -155 216 -155 216 -167 c 0,26,27
 216 -176 216 -176 210 -176 c 0,28,29
 208 -176 208 -176 203 -170 c 0,30,31
 188 -152 188 -152 150.5 -152 c 128,-1,32
 113 -152 113 -152 83 -162 c 1,33,34
 80 -193 80 -193 56 -219 c 128,-1,35
 32 -245 32 -245 9 -245 c 128,-1,36
 -14 -245 -14 -245 -14 -233 c 0,37,38
 -14 -216 -14 -216 9.5 -194.5 c 128,-1,39
 33 -173 33 -173 68 -157 c 1,40,41
 65 -130 65 -130 41 -117 c 1,42,43
 -103 -280 -103 -280 -202 -280 c 0,44,45
 -253 -280 -253 -280 -253 -239 c 0,46,47
 -253 -179 -253 -179 -174 -135 c 128,-1,48
 -95 -91 -95 -91 -13 -91 c 0,49,50
 10 -91 10 -91 32 -96 c 1,51,52
 65 -60 65 -60 111.5 -2 c 128,-1,53
 158 56 158 56 168 67 c 1,54,55
 159 58 159 58 129 39 c 128,-1,56
 99 20 99 20 85.5 13 c 0,57,58
 52.7142857143 -4 52.7142857143 -4 27.8571428571 -4 c 128,-1,59
 3 -4 3 -4 3 16 c 0,60,61
 3 30 3 30 19.5 55.5 c 128,-1,62
 36 81 36 81 53.5 100.5 c 0,63,64
 118.564102564 173 118.564102564 173 127.282051282 173 c 128,-1,65
 136 173 136 173 136 166.5 c 128,-1,66
 136 160 136 160 129 153 c 2,67,-1
 100.5 122.5 l 2,68,69
 35 52.4035087719 35 52.4035087719 35 31 c 0,70,71
 35 17 35 17 49 17 c 0,72,73
 74 17 74 17 127 57 c 128,-1,74
 180 97 180 97 207 125.5 c 128,-1,75
 234 154 234 154 243 154 c 128,-1,76
 252 154 252 154 252 148 c 1,77,-1
 249 140 l 1,17,18
EndSplineSet
EndChar

StartChar: z
Encoding: 122 122 45
Width: 307
Flags: HMW
HStem: -115 21G<363 431> -16 123<32.5 139> -2 21G<41.5 66.5> 98 102<108 135.5>
VStem: 54 20<146 166.5 146 166.5>
LayerCount: 2
Fore
SplineSet
323 148 m 1,0,1
 353 151 353 151 353 159.5 c 128,-1,2
 353 168 353 168 346 168 c 0,3,4
 325 168 325 168 301 149 c 1,5,6
 308 148 308 148 323 148 c 1,0,1
107 9 m 1,7,8
 70 24 70 24 49.5 24 c 128,-1,9
 29 24 29 24 25 15 c 1,10,11
 25 -2 25 -2 53.5 -2 c 128,-1,12
 82 -2 82 -2 107 9 c 1,7,8
519 -75 m 0,13,14
 528 -69 528 -69 533 -69 c 128,-1,15
 538 -69 538 -69 538 -77 c 128,-1,16
 538 -85 538 -85 524 -91 c 0,17,18
 462 -115 462 -115 415 -115 c 128,-1,19
 368 -115 368 -115 319.5 -97 c 128,-1,20
 271 -79 271 -79 207 -43.5 c 128,-1,21
 143 -8 143 -8 125 1 c 1,22,23
 82 -16 82 -16 55 -16 c 128,-1,24
 28 -16 28 -16 14 -9 c 128,-1,25
 0 -2 0 -2 0 7 c 0,26,27
 0 30 0 30 43 35 c 1,28,29
 70 35 70 35 120 16 c 1,30,31
 151 33 151 33 202 82 c 128,-1,32
 253 131 253 131 267 142 c 1,33,34
 231 148 231 148 184 168 c 128,-1,35
 137 188 137 188 117 188 c 128,-1,36
 97 188 97 188 85.5 179 c 128,-1,37
 74 170 74 170 74 154 c 128,-1,38
 74 138 74 138 90.5 122.5 c 128,-1,39
 107 107 107 107 126.5 107 c 128,-1,40
 146 107 146 107 159 110 c 128,-1,41
 172 113 172 113 175.5 113 c 128,-1,42
 179 113 179 113 179 110.25 c 128,-1,43
 179 107.5 179 107.5 176 106 c 0,44,45
 136 98 136 98 116 98 c 128,-1,46
 96 98 96 98 75 111.5 c 128,-1,47
 54 125 54 125 54 149.5 c 128,-1,48
 54 174 54 174 75 187 c 128,-1,49
 96 200 96 200 123 200 c 128,-1,50
 150 200 150 200 201.5 179 c 128,-1,51
 253 158 253 158 280 152 c 1,52,53
 317 179 317 179 347.5 179 c 128,-1,54
 378 179 378 179 378 165 c 0,55,56
 378 154 378 154 355 146.5 c 128,-1,57
 332 139 332 139 315 139 c 128,-1,58
 298 139 298 139 290 140 c 1,59,60
 277 129 277 129 250 100 c 0,61,62
 187.887614679 33.2866972477 187.887614679 33.2866972477 139 8 c 1,63,64
 163 -2 163 -2 227.5 -33.5 c 128,-1,65
 292 -65 292 -65 337 -81.5 c 128,-1,66
 382 -98 382 -98 431.5 -98 c 128,-1,67
 481 -98 481 -98 519 -75 c 0,13,14
EndSplineSet
EndChar

StartChar: x
Encoding: 120 120 46
Width: 200
Flags: HMW
HStem: -18 21G<-14.5 -10> -3 21G<100 140.5> 162 20G<135.5 139>
LayerCount: 2
Fore
SplineSet
98 73 m 1,0,1
 220.025974026 160 220.025974026 160 235 160 c 0,2,3
 243 160 243 160 243 156 c 0,4,5
 243 154 243 154 226 144.5 c 128,-1,6
 209 135 209 135 97 57 c 1,7,8
 97 13 97 13 137 13 c 0,9,10
 166 13 166 13 220 62 c 0,11,12
 223 66 223 66 226.5 66 c 128,-1,13
 230 66 230 66 230 61 c 0,14,15
 230 49 230 49 189.5 23 c 128,-1,16
 149 -3 149 -3 117 -3 c 0,17,18
 70 -3 70 -3 70 38 c 1,19,-1
 -10 -18 l 1,20,21
 -20 -18 -20 -18 -20 -14 c 128,-1,22
 -20 -10 -20 -10 -14 -6 c 2,23,-1
 71 54 l 1,24,25
 79.52 102.99 79.52 102.99 113 156 c 0,26,27
 125 175 125 175 128 177 c 1,28,29
 131 182 131 182 137.5 182 c 128,-1,30
 144 182 144 182 144 176 c 128,-1,31
 144 170 144 170 141 167 c 0,32,33
 105 131 105 131 98 73 c 1,0,1
EndSplineSet
EndChar

StartChar: h
Encoding: 104 104 47
Width: 245
Flags: HMW
HStem: -3 180<163.5 234> -1 21G<1.5 5> 466 21<448.5 453>
VStem: 148 29<22 39.5> 224 31<127.5 145.5>
LayerCount: 2
Fore
SplineSet
458 459 m 0,0,1
 458 466 458 466 450 466 c 0,2,3
 418 466 418 466 254 281 c 1,4,5
 330 322 330 322 394 379.5 c 128,-1,6
 458 437 458 437 458 459 c 0,0,1
2 -1 m 0,7,8
 -5 -1 -5 -1 -5 7.5 c 128,-1,9
 -5 16 -5 16 3 22 c 1,10,11
 106 147 106 147 206 258 c 0,12,13
 415 487 415 487 471 487 c 0,14,15
 477 487 477 487 483 482 c 128,-1,16
 489 477 489 477 489 470 c 0,17,18
 489 441 489 441 406.5 371.5 c 128,-1,19
 324 302 324 302 233 257 c 1,20,21
 193 212 193 212 138 148 c 1,22,23
 185 177 185 177 217 177 c 0,24,25
 232 177 232 177 241.5 170 c 128,-1,26
 251 163 251 163 255 149 c 1,27,28
 255 126 255 126 216 83.5 c 128,-1,29
 177 41 177 41 177 25 c 0,30,31
 177 14 177 14 191 14 c 0,32,33
 220 14 220 14 273 62 c 0,34,35
 276 66 276 66 279.5 66 c 128,-1,36
 283 66 283 66 283 61 c 0,37,38
 283 49 283 49 242.5 23 c 128,-1,39
 202 -3 202 -3 170 -3 c 0,40,41
 148 -3 148 -3 148 19 c 128,-1,42
 148 41 148 41 186 83.5 c 128,-1,43
 224 126 224 126 224 140 c 128,-1,44
 224 154 224 154 196.5 153.5 c 128,-1,45
 169 153 169 153 114 120 c 1,46,47
 30 24 30 24 24 18 c 128,-1,48
 18 12 18 12 14 7.5 c 0,49,50
 6.44444444444 -1 6.44444444444 -1 2 -1 c 0,7,8
EndSplineSet
EndChar

StartChar: i
Encoding: 105 105 48
Width: 101
Flags: HMW
HStem: -3 21G<18.5 48.5> 249 20G<193.5 204.5>
VStem: 3 135<11.5 62.5>
LayerCount: 2
Fore
SplineSet
182 258.5 m 128,-1,1
 191 269 191 269 198.5 269 c 128,-1,2
 206 269 206 269 210.5 264.5 c 128,-1,3
 215 260 215 260 215 251 c 128,-1,4
 215 242 215 242 204.5 234 c 128,-1,5
 194 226 194 226 187 226 c 0,6,7
 173 226 173 226 173 239 c 0,8,0
 173 248 173 248 182 258.5 c 128,-1,1
32 25 m 0,9,10
 32 41 32 41 58 69 c 2,11,-1
 133 154 l 2,12,13
 139 160 139 160 139 164 c 128,-1,14
 139 168 139 168 135.5 171 c 128,-1,15
 132 174 132 174 126.5 174 c 128,-1,16
 121 174 121 174 117 170.5 c 128,-1,17
 113 167 113 167 101.5 153 c 128,-1,18
 90 139 90 139 70 115.5 c 128,-1,19
 50 92 50 92 43.5 84 c 128,-1,20
 37 76 37 76 29 66.5 c 128,-1,21
 21 57 21 57 16.5 51 c 0,22,23
 3 33 3 33 3 20 c 0,24,25
 3 -3 3 -3 25 -3 c 0,26,27
 57 -3 57 -3 97.5 23 c 128,-1,28
 138 49 138 49 138 61 c 0,29,30
 138 66 138 66 134.5 66 c 128,-1,31
 131 66 131 66 128 62 c 0,32,33
 75 14 75 14 46 14 c 0,34,35
 32 14 32 14 32 25 c 0,9,10
EndSplineSet
EndChar

StartChar: a
Encoding: 97 97 49
Width: 262
Flags: HMW
HStem: -6 21G<50.5 87.5> -3 170<179.5 205.5 138 209.5> 148 20G<271.5 277.5>
VStem: 19 34<31 59 31 59.5>
LayerCount: 2
Fore
SplineSet
82 12 m 0,0,1
 121 12 121 12 169 52.5 c 128,-1,2
 217 93 217 93 225 122 c 1,3,4
 225 134 225 134 210 142.5 c 128,-1,5
 195 151 195 151 176 151 c 0,6,7
 130 151 130 151 91.5 111.5 c 128,-1,8
 53 72 53 72 53 42 c 128,-1,9
 53 12 53 12 82 12 c 0,0,1
185 167 m 0,10,11
 220.083333333 167 220.083333333 167 243 142 c 0,12,13
 244 142 244 142 259 157 c 1,14,15
 266 168 266 168 275 168 c 128,-1,16
 284 168 284 168 284 159 c 1,17,-1
 280 150 l 2,18,19
 277 145 277 145 240.5 101 c 128,-1,20
 204 57 204 57 198.5 49 c 128,-1,21
 193 41 193 41 193 25 c 0,22,23
 193 14 193 14 207 14 c 0,24,25
 236 14 236 14 289 62 c 0,26,27
 292 66 292 66 295.5 66 c 128,-1,28
 299 66 299 66 299 61 c 0,29,30
 299 49 299 49 258.5 23 c 128,-1,31
 218 -3 218 -3 186 -3 c 0,32,33
 164 -3 164 -3 164 20 c 0,34,35
 164 28 164 28 161.5 28 c 128,-1,36
 159 28 159 28 158 27 c 0,37,38
 108 -6 108 -6 63.5 -6 c 128,-1,39
 19 -6 19 -6 19 34 c 0,40,41
 19 76 19 76 69 121.5 c 128,-1,42
 119 167 119 167 185 167 c 0,10,11
EndSplineSet
EndChar

StartChar: l
Encoding: 108 108 50
Width: 116
Flags: HMW
HStem: -1 20<30.5 64.5> 452 20G<349 358.5>
VStem: 11 26<36 57>
LayerCount: 2
Fore
SplineSet
278 394.5 m 128,-1,1
 336 464 336 464 339.5 468 c 128,-1,2
 343 472 343 472 353.5 472 c 128,-1,3
 364 472 364 472 364 465.5 c 2,4,-1
 364 463 l 2,5,6
 364 457 364 457 359 454 c 1,7,8
 315 412 315 412 176 240 c 128,-1,9
 37 68 37 68 37 43.5 c 128,-1,10
 37 19 37 19 61 19 c 0,11,12
 69 19 69 19 87 24 c 1,13,14
 119 37 119 37 134 51.5 c 128,-1,15
 149 66 149 66 152.5 66 c 128,-1,16
 156 66 156 66 156 60 c 128,-1,17
 156 54 156 54 138 38.5 c 128,-1,18
 120 23 120 23 93 11 c 128,-1,19
 66 -1 66 -1 44 -1 c 0,20,21
 11 -1 11 -1 11 30 c 0,22,23
 11 49 11 49 60 118.5 c 128,-1,24
 109 188 109 188 164.5 256.5 c 128,-1,0
 220 325 220 325 278 394.5 c 128,-1,1
EndSplineSet
EndChar

StartChar: Omega
Encoding: 8486 8486 52
Width: 185
Flags: HMW
HStem: -3 21G<54.5 116> 210 20G<226 229.5>
LayerCount: 2
Fore
SplineSet
71 10 m 0,0,1
 95 10 95 10 110 30 c 128,-1,2
 125 50 125 50 137.5 87 c 128,-1,3
 150 124 150 124 153.5 131 c 128,-1,4
 157 138 157 138 157 141 c 128,-1,5
 157 144 157 144 155.5 144 c 128,-1,6
 154 144 154 144 152 142 c 128,-1,7
 150 140 150 140 136 127.5 c 128,-1,8
 122 115 122 115 106 100.5 c 0,9,10
 64.9565217391 63.3043478261 64.9565217391 63.3043478261 33 42 c 1,11,-1
 33 39 l 2,12,13
 33 10 33 10 71 10 c 0,0,1
216 221 m 1,14,15
 223 230 223 230 228 230 c 0,16,17
 237 230 237 230 237 222 c 0,18,19
 237 216 237 216 226.5 209 c 128,-1,20
 216 202 216 202 209 195 c 128,-1,21
 202 188 202 188 192 168 c 128,-1,22
 182 148 182 148 172 116.5 c 128,-1,23
 162 85 162 85 153.5 61 c 128,-1,24
 145 37 145 37 124 17 c 128,-1,25
 103 -3 103 -3 74 -3 c 128,-1,26
 45 -3 45 -3 27 11.5 c 128,-1,27
 9 26 9 26 9 44.5 c 128,-1,28
 9 63 9 63 14.5 68.5 c 128,-1,29
 20 74 20 74 23 74 c 128,-1,30
 26 74 26 74 27 73 c 0,31,32
 35 71 35 71 35 59 c 2,33,-1
 35 56 l 1,34,35
 127 132 127 132 216 221 c 1,14,15
EndSplineSet
EndChar

StartChar: Z
Encoding: 90 90 53
Width: 712
Flags: HMW
HStem: -108 21<694.5 757> -25 21G<1001 1003> -16 96<141 185> -2 21G<132 204> 382 21<398 455> 382 210<376 588> 475 217<443.5 754> 575 117<544.5 754> 633 20 682 20G<1185 1231.5>
VStem: 27 34<17.5 35 17.5 39> 324 30<451.5 495 451.5 498.5> 432 70 593 28<524 553>
LayerCount: 2
Fore
SplineSet
451 506 m 0,0,1
 451 500 451 500 458 500 c 0,2,3
 479 500 479 500 483 546 c 1,4,5
 451 521 451 521 451 506 c 0,0,1
1212 673 m 0,6,7
 1232 680 1232 680 1232 684.5 c 128,-1,8
 1232 689 1232 689 1214 689 c 0,9,10
 1142 689 1142 689 1072 653 c 1,11,12
 1160.61111111 655.013888889 1160.61111111 655.013888889 1212 673 c 0,6,7
348 30 m 1,13,14
 250 68 250 68 193 68 c 128,-1,15
 136 68 136 68 98.5 54.5 c 128,-1,16
 61 41 61 41 61 25 c 0,17,18
 61 -2 61 -2 161.5 -2 c 128,-1,19
 262 -2 262 -2 348 30 c 1,13,14
381.5 551 m 128,-1,21
 354 509 354 509 354 475 c 128,-1,22
 354 441 354 441 371 422 c 128,-1,23
 388 403 388 403 419 403 c 0,24,25
 480 403 480 403 536.5 453 c 128,-1,26
 593 503 593 503 593 544 c 0,27,28
 593 575 593 575 553 575 c 0,29,30
 530 575 530 575 502 559 c 1,31,32
 501 526 501 526 485.5 500.5 c 128,-1,33
 470 475 470 475 451 475 c 128,-1,34
 432 475 432 475 432 490 c 128,-1,35
 432 505 432 505 446 525 c 128,-1,36
 460 545 460 545 483 562 c 1,37,38
 479 600 479 600 460 624 c 1,39,20
 409 593 409 593 381.5 551 c 128,-1,21
658 673 m 0,40,41
 555 673 555 673 479 635 c 1,42,43
 498 610 498 610 501 574 c 1,44,45
 534 592 534 592 570 592 c 0,46,47
 621 592 621 592 621 554 c 0,48,49
 621 505 621 505 549.5 443.5 c 128,-1,50
 478 382 478 382 399 382 c 0,51,52
 365 382 365 382 344.5 407.5 c 128,-1,53
 324 433 324 433 324 474.5 c 128,-1,54
 324 516 324 516 354.5 561 c 128,-1,55
 385 606 385 606 446 639 c 1,56,57
 407 675 407 675 336 675 c 0,58,59
 220 675 220 675 134 620.5 c 128,-1,60
 48 566 48 566 15 471 c 0,61,62
 14 469 14 469 13 465.5 c 128,-1,63
 12 462 12 462 11.5 461 c 0,64,65
 8 454 8 454 1.5 454 c 128,-1,66
 -5 454 -5 454 -5 460 c 1,67,-1
 -1 473 l 1,68,69
 33 567 33 567 122.5 630 c 128,-1,70
 212 693 212 693 336 693 c 0,71,72
 422 693 422 693 467 650 c 1,73,74
 563 692 563 692 700 692 c 0,75,76
 757 692 757 692 876.5 673 c 128,-1,77
 996 654 996 654 1040 653 c 1,78,79
 1128 702 1128 702 1218 702 c 0,80,81
 1257 702 1257 702 1257 689 c 0,82,83
 1257 678 1257 678 1231 665.5 c 128,-1,84
 1205 653 1205 653 1151.5 642.5 c 128,-1,85
 1098 632 1098 632 1034 632 c 1,86,87
 948.498738436 575.605550883 948.498738436 575.605550883 845 445 c 0,88,89
 736.856603774 308.533333333 736.856603774 308.533333333 649.5 215 c 0,90,91
 600 162 600 162 533.5 113 c 128,-1,92
 467 64 467 64 396 34 c 1,93,94
 426 22 426 22 483.5 -4.5 c 128,-1,95
 541 -31 541 -31 576.5 -46 c 128,-1,96
 612 -61 612 -61 663 -74 c 128,-1,97
 714 -87 714 -87 758 -87 c 0,98,99
 905 -87 905 -87 995 -28 c 0,100,101
 999 -25 999 -25 1002 -25 c 128,-1,102
 1005 -25 1005 -25 1005 -31 c 128,-1,103
 1005 -37 1005 -37 998 -42 c 0,104,105
 896 -108 896 -108 722 -108 c 0,106,107
 681 -108 681 -108 626.5 -89 c 128,-1,108
 572 -70 572 -70 487.5 -31 c 128,-1,109
 403 8 403 8 367 23 c 1,110,111
 260 -16 260 -16 143 -16 c 0,112,113
 89 -16 89 -16 58 -4 c 128,-1,114
 27 8 27 8 27 26 c 0,115,116
 27 47 27 47 72 63.5 c 128,-1,117
 117 80 117 80 198 80 c 128,-1,118
 279 80 279 80 377 42 c 1,119,120
 451 75 451 75 522.5 134 c 128,-1,121
 594 193 594 193 653 260.5 c 128,-1,122
 712 328 712 328 767 395.5 c 0,123,124
 905.401129944 565.355932203 905.401129944 565.355932203 1006 633 c 1,125,126
 923 636 923 636 824.5 654.5 c 128,-1,127
 726 673 726 673 658 673 c 0,40,41
EndSplineSet
EndChar

StartChar: daggerdbl
Encoding: 8225 8225 54
Width: 244
Flags: HMW
HStem: -3 180<168.5 239> 472 20G<437 441>
VStem: 153 29<22 39.5> 229 31<127.5 145.5>
LayerCount: 2
Fore
SplineSet
0 3 m 128,-1,1
 -7 3 -7 3 -7 11.5 c 128,-1,2
 -7 20 -7 20 1 26 c 1,3,4
 309 357 309 357 341.5 393 c 128,-1,5
 374 429 374 429 374 433 c 128,-1,6
 374 437 374 437 372 437 c 128,-1,7
 370 437 370 437 364.5 433.5 c 128,-1,8
 359 430 359 430 333 422 c 128,-1,9
 307 414 307 414 280 414 c 128,-1,10
 253 414 253 414 253 426 c 0,11,12
 253 429 253 429 255.5 431.5 c 128,-1,13
 258 434 258 434 259.5 434 c 128,-1,14
 261 434 261 434 271.5 429.5 c 128,-1,15
 282 425 282 425 295.5 425 c 128,-1,16
 309 425 309 425 347.5 439 c 128,-1,17
 386 453 386 453 424 484 c 0,18,19
 434 492 434 492 439 492 c 0,20,21
 449 492 449 492 449 484 c 1,22,-1
 444 474 l 1,23,24
 403 444 403 444 141 147 c 1,25,26
 191 177 191 177 222 177 c 0,27,28
 237 177 237 177 246.5 170 c 128,-1,29
 256 163 256 163 260 149 c 1,30,31
 260 126 260 126 221 83.5 c 128,-1,32
 182 41 182 41 182 25 c 0,33,34
 182 14 182 14 196 14 c 0,35,36
 225 14 225 14 278 62 c 0,37,38
 281 66 281 66 284.5 66 c 128,-1,39
 288 66 288 66 288 61 c 0,40,41
 288 49 288 49 247.5 23 c 128,-1,42
 207 -3 207 -3 175 -3 c 0,43,44
 153 -3 153 -3 153 19 c 128,-1,45
 153 41 153 41 191 83.5 c 128,-1,46
 229 126 229 126 229 140 c 128,-1,47
 229 154 229 154 200.5 153.5 c 128,-1,48
 172 153 172 153 115 118 c 1,49,50
 53 48 53 48 22 16 c 1,51,0
 7 3 7 3 0 3 c 128,-1,1
EndSplineSet
EndChar

StartChar: acute
Encoding: 180 180 55
Width: 262
Flags: HMW
HStem: 201 21G<86 103.5> 247 20G<190.5 196.5>
LayerCount: 2
Fore
SplineSet
81 206 m 0,0,1
 81 209 81 209 94 212 c 0,2,3
 143 224 143 224 172 256 c 0,4,5
 183 267 183 267 192.5 267 c 0,6,7
 202 267 202 267 202 258 c 0,8,9
 202 242 202 242 158 221.5 c 128,-1,10
 114 201 114 201 88 201 c 0,11,12
 81 201 81 201 81 206 c 0,0,1
EndSplineSet
EndChar

StartChar: aacute
Encoding: 225 225 56
Width: 262
Flags: HMW
HStem: -6 21G<50.5 87.5> -3 170<179.5 205.5 138 209.5> 12 139<71.5 188> 167 34<195 205.5> 247 20G<299.5 305.5>
VStem: 19 34<31 59 31 59.5>
LayerCount: 2
Fore
SplineSet
190 206 m 0,0,1
 190 209 190 209 203 212 c 0,2,3
 252 224 252 224 281 256 c 0,4,5
 292 267 292 267 301.5 267 c 128,-1,6
 311 267 311 267 311 258 c 0,7,8
 311 242 311 242 267 221.5 c 128,-1,9
 223 201 223 201 197 201 c 0,10,11
 190 201 190 201 190 206 c 0,0,1
82 12 m 0,12,13
 121 12 121 12 169 52.5 c 128,-1,14
 217 93 217 93 225 122 c 1,15,16
 225 134 225 134 210 142.5 c 128,-1,17
 195 151 195 151 176 151 c 0,18,19
 130 151 130 151 91.5 111.5 c 128,-1,20
 53 72 53 72 53 42 c 128,-1,21
 53 12 53 12 82 12 c 0,12,13
185 167 m 0,22,23
 220.083333333 167 220.083333333 167 243 142 c 0,24,25
 244 142 244 142 259 157 c 1,26,27
 266 168 266 168 275 168 c 128,-1,28
 284 168 284 168 284 159 c 1,29,-1
 280 150 l 2,30,31
 277 145 277 145 240.5 101 c 128,-1,32
 204 57 204 57 198.5 49 c 128,-1,33
 193 41 193 41 193 25 c 0,34,35
 193 14 193 14 207 14 c 0,36,37
 236 14 236 14 289 62 c 0,38,39
 292 66 292 66 295.5 66 c 128,-1,40
 299 66 299 66 299 61 c 0,41,42
 299 49 299 49 258.5 23 c 128,-1,43
 218 -3 218 -3 186 -3 c 0,44,45
 164 -3 164 -3 164 20 c 0,46,47
 164 28 164 28 161.5 28 c 128,-1,48
 159 28 159 28 158 27 c 0,49,50
 108 -6 108 -6 63.5 -6 c 128,-1,51
 19 -6 19 -6 19 34 c 0,52,53
 19 76 19 76 69 121.5 c 128,-1,54
 119 167 119 167 185 167 c 0,22,23
EndSplineSet
EndChar

StartChar: eacute
Encoding: 233 233 57
Width: 187
Flags: HMW
HStem: -5 175<120.5 126> 12 141<86.5 147.5> 170 31<120.5 135.5 118 164> 247 20G<222.5 228.5>
VStem: 23 29<45 52 45 71> 164 25<113.5 138.5> 164 70
LayerCount: 2
Fore
SplineSet
113 206 m 0,0,1
 113 209 113 209 126 212 c 0,2,3
 175 224 175 224 204 256 c 0,4,5
 215 267 215 267 224.5 267 c 0,6,7
 234 267 234 267 234 258 c 0,8,9
 234 242 234 242 190 221.5 c 128,-1,10
 146 201 146 201 120 201 c 0,11,12
 113 201 113 201 113 206 c 0,0,1
52 52 m 2,13,-1
 52 45 l 1,14,15
 164 88 164 88 164 131 c 0,16,17
 164 153 164 153 136.5 153 c 0,18,19
 109 153 109 153 80.5 119 c 128,-1,20
 52 85 52 85 52 52 c 2,13,-1
189 139 m 0,21,22
 189 79 189 79 55 35 c 1,23,24
 63 12 63 12 99 12 c 0,25,26
 160 12 160 12 215 62 c 0,27,28
 218 66 218 66 221.5 66 c 0,29,30
 225 66 225 66 225 59.5 c 0,31,32
 225 53 225 53 207 38 c 128,-1,33
 189 23 189 23 156 9 c 128,-1,34
 123 -5 123 -5 91 -5 c 0,35,36
 23 -5 23 -5 23 45 c 0,37,38
 23 86 23 86 64.5 128 c 128,-1,39
 106 170 106 170 154 170 c 0,40,41
 189 170 189 170 189 139 c 0,21,22
EndSplineSet
EndChar

StartChar: oacute
Encoding: 243 243 58
Width: 213
Flags: HMW
HStem: -5 175 10 144 189 24<163 178> 259 20G<267.5 273.5>
VStem: 4 34<36.5 65> 188 22<135.5 145.5>
LayerCount: 2
Fore
SplineSet
158 218 m 0,0,1
 158 221 158 221 171 224 c 0,2,3
 220 236 220 236 249 268 c 0,4,5
 260 279 260 279 269.5 279 c 0,6,7
 279 279 279 279 279 270 c 0,8,9
 279 254 279 254 235 233.5 c 128,-1,10
 191 213 191 213 165 213 c 0,11,12
 158 213 158 213 158 218 c 0,0,1
154 164 m 0,13,14
 154 123 154 123 187 115 c 1,15,16
 188 120 188 120 188 135.5 c 0,17,18
 188 151 188 151 180 161.5 c 128,-1,19
 172 172 172 172 163 172 c 128,-1,20
 154 172 154 172 154 164 c 0,13,14
183 100 m 1,21,22
 134 105 134 105 131 154 c 1,23,24
 97 153 97 153 67.5 116.5 c 128,-1,25
 38 80 38 80 38 47 c 0,26,27
 38 10 38 10 77 10 c 0,28,29
 103 10 103 10 137 36.5 c 128,-1,30
 171 63 171 63 183 100 c 1,21,22
4 39 m 0,31,32
 4 79 4 79 46.5 124 c 128,-1,33
 89 169 89 169 133 170 c 1,34,35
 142 189 142 189 163.5 189 c 0,36,37
 185 189 185 189 197.5 176.5 c 128,-1,38
 210 164 210 164 210 144.5 c 0,39,40
 210 125 210 125 206 113 c 1,41,42
 235 113 235 113 271 127 c 128,-1,43
 307 141 307 141 314 148 c 1,44,-1
 319 143 l 1,45,46
 319 141 319 141 311 134 c 0,47,48
 303 127 303 127 268 114 c 128,-1,49
 233 101 233 101 202 100 c 1,50,51
 186 58 186 58 146 26.5 c 128,-1,52
 106 -5 106 -5 63 -5 c 0,53,54
 4 -5 4 -5 4 39 c 0,31,32
EndSplineSet
EndChar

StartChar: uacute
Encoding: 250 250 59
Width: 228
Flags: HMW
HStem: -3 21 -1 21G<13.5 46> 18 183<34.5 190.5> 247 20G<277.5 283.5>
VStem: -5 29<25.5 41.5 25.5 42>
LayerCount: 2
Fore
SplineSet
168 206 m 0,0,1
 168 209 168 209 181 212 c 0,2,3
 230 224 230 224 259 256 c 0,4,5
 270 267 270 267 279.5 267 c 128,-1,6
 289 267 289 267 289 258 c 0,7,8
 289 242 289 242 245 221.5 c 128,-1,9
 201 201 201 201 175 201 c 0,10,11
 168 201 168 201 168 206 c 0,0,1
125 20 m 0,12,13
 125 35.6666666667 125 35.6666666667 136 54 c 0,14,15
 136 55 136 55 136 56 c 128,-1,16
 136 57 136 57 135 56 c 0,17,18
 68 -1 68 -1 24 -1 c 0,19,20
 -5 -1 -5 -1 -5 19 c 128,-1,21
 -5 39 -5 39 23 76.5 c 128,-1,22
 51 114 51 114 79.5 143 c 128,-1,23
 108 172 108 172 106 168 c 1,24,25
 111 173 111 173 118 173 c 128,-1,26
 125 173 125 173 125 166.5 c 128,-1,27
 125 160 125 160 119 154 c 128,-1,28
 113 148 113 148 96.5 129.5 c 128,-1,29
 80 111 80 111 70.5 100 c 128,-1,30
 61 89 61 89 48.5 73.5 c 0,31,32
 24 43.12 24 43.12 24 29 c 0,33,34
 24 18 24 18 40 18 c 128,-1,35
 56 18 56 18 85 37 c 128,-1,36
 114 56 114 56 135 75.5 c 2,37,-1
 156 95 l 1,38,39
 198 132 198 132 213 154 c 1,40,41
 222 165 222 165 231 165 c 128,-1,42
 240 165 240 165 240 158 c 0,43,44
 240 152.090909091 240 152.090909091 214.5 125.045454545 c 0,45,46
 162.387096774 69.7741935484 162.387096774 69.7741935484 158 61 c 0,47,48
 148 38 148 38 148 30 c 0,49,50
 148 14 148 14 172.5 14 c 128,-1,51
 197 14 197 14 250 62 c 0,52,53
 253 66 253 66 256.5 66 c 128,-1,54
 260 66 260 66 260 61 c 0,55,56
 260 49 260 49 219.5 23 c 128,-1,57
 179 -3 179 -3 147 -3 c 0,58,59
 125 -3 125 -3 125 20 c 0,12,13
EndSplineSet
EndChar

StartChar: dotlessi
Encoding: 305 305 60
Width: 101
Flags: HMW
HStem: -3 21G<18.5 48.5> 154 20G<125.5 133>
LayerCount: 2
Fore
SplineSet
32 25 m 0,0,1
 32 14 32 14 46 14 c 0,2,3
 75 14 75 14 128 62 c 0,4,5
 131 66 131 66 134.5 66 c 128,-1,6
 138 66 138 66 138 61 c 0,7,8
 138 49 138 49 97.5 23 c 128,-1,9
 57 -3 57 -3 25 -3 c 0,10,11
 3 -3 3 -3 3 20 c 0,12,13
 3 33 3 33 12 45 c 128,-1,14
 21 57 21 57 29 66.5 c 128,-1,15
 37 76 37 76 43.5 84 c 128,-1,16
 50 92 50 92 70 115.5 c 128,-1,17
 90 139 90 139 101.5 153 c 128,-1,18
 113 167 113 167 117 170.5 c 128,-1,19
 121 174 121 174 126.5 174 c 128,-1,20
 132 174 132 174 135.5 171 c 128,-1,21
 139 168 139 168 139 164 c 128,-1,22
 139 160 139 160 133 154 c 2,23,-1
 58 69 l 2,24,25
 32 41 32 41 32 25 c 0,0,1
EndSplineSet
EndChar

StartChar: iacute
Encoding: 237 237 61
Width: 101
Flags: HMW
HStem: -3 21G<18.5 48.5> 247 20G<236.5 242.5>
LayerCount: 2
Fore
SplineSet
127 206 m 0,0,1
 127 209 127 209 140 212 c 0,2,3
 189 224 189 224 218 256 c 0,4,5
 229 267 229 267 238.5 267 c 128,-1,6
 248 267 248 267 248 258 c 0,7,8
 248 242 248 242 204 221.5 c 128,-1,9
 160 201 160 201 134 201 c 0,10,11
 127 201 127 201 127 206 c 0,0,1
32 25 m 0,12,13
 32 14 32 14 46 14 c 0,14,15
 75 14 75 14 128 62 c 0,16,17
 131 66 131 66 134.5 66 c 128,-1,18
 138 66 138 66 138 61 c 0,19,20
 138 49 138 49 97.5 23 c 128,-1,21
 57 -3 57 -3 25 -3 c 0,22,23
 3 -3 3 -3 3 20 c 0,24,25
 3 33 3 33 12 45 c 128,-1,26
 21 57 21 57 29 66.5 c 128,-1,27
 37 76 37 76 43.5 84 c 128,-1,28
 50 92 50 92 70 115.5 c 128,-1,29
 90 139 90 139 101.5 153 c 128,-1,30
 113 167 113 167 117 170.5 c 128,-1,31
 121 174 121 174 126.5 174 c 128,-1,32
 132 174 132 174 135.5 171 c 128,-1,33
 139 168 139 168 139 164 c 128,-1,34
 139 160 139 160 133 154 c 2,35,-1
 58 69 l 2,36,37
 32 41 32 41 32 25 c 0,12,13
EndSplineSet
EndChar

StartChar: idieresis
Encoding: 239 239 62
Width: 101
Flags: HMW
HStem: -3 21G<18.5 48.5> 240 20G<138.5 149.5>
VStem: 3 135<11.5 62.5>
LayerCount: 2
Fore
SplineSet
127 249.5 m 128,-1,1
 136 260 136 260 143.5 260 c 128,-1,2
 151 260 151 260 155.5 255.5 c 128,-1,3
 160 251 160 251 160 242 c 128,-1,4
 160 233 160 233 149.5 225 c 128,-1,5
 139 217 139 217 132 217 c 0,6,7
 118 217 118 217 118 230 c 0,8,0
 118 239 118 239 127 249.5 c 128,-1,1
200 240.5 m 128,-1,10
 209 251 209 251 216.5 251 c 128,-1,11
 224 251 224 251 228.5 246.5 c 128,-1,12
 233 242 233 242 233 233 c 128,-1,13
 233 224 233 224 222.5 216 c 128,-1,14
 212 208 212 208 205 208 c 0,15,16
 191 208 191 208 191 221 c 0,17,9
 191 230 191 230 200 240.5 c 128,-1,10
32 25 m 0,18,19
 32 41 32 41 58 69 c 2,20,-1
 133 154 l 2,21,22
 139 160 139 160 139 164 c 128,-1,23
 139 168 139 168 135.5 171 c 128,-1,24
 132 174 132 174 126.5 174 c 128,-1,25
 121 174 121 174 117 170.5 c 128,-1,26
 113 167 113 167 101.5 153 c 128,-1,27
 90 139 90 139 70 115.5 c 128,-1,28
 50 92 50 92 43.5 84 c 128,-1,29
 37 76 37 76 29 66.5 c 128,-1,30
 21 57 21 57 16.5 51 c 0,31,32
 3 33 3 33 3 20 c 0,33,34
 3 -3 3 -3 25 -3 c 0,35,36
 57 -3 57 -3 97.5 23 c 128,-1,37
 138 49 138 49 138 61 c 0,38,39
 138 66 138 66 134.5 66 c 128,-1,40
 131 66 131 66 128 62 c 0,41,42
 75 14 75 14 46 14 c 0,43,44
 32 14 32 14 32 25 c 0,18,19
EndSplineSet
EndChar

StartChar: dieresis
Encoding: 168 168 63
Width: 291
Flags: HMW
HStem: 208 21G<180.5 186.5> 240 20G<117.5 128.5>
LayerCount: 2
Fore
SplineSet
179 240.5 m 128,-1,1
 188 251 188 251 195.5 251 c 128,-1,2
 203 251 203 251 207.5 246.5 c 128,-1,3
 212 242 212 242 212 233 c 128,-1,4
 212 224 212 224 201.5 216 c 128,-1,5
 191 208 191 208 184 208 c 0,6,7
 170 208 170 208 170 221 c 0,8,0
 170 230 170 230 179 240.5 c 128,-1,1
106 249.5 m 128,-1,10
 115 260 115 260 122.5 260 c 128,-1,11
 130 260 130 260 134.5 255.5 c 128,-1,12
 139 251 139 251 139 242 c 128,-1,13
 139 233 139 233 128.5 225 c 128,-1,14
 118 217 118 217 111 217 c 0,15,16
 97 217 97 217 97 230 c 0,17,9
 97 239 97 239 106 249.5 c 128,-1,10
EndSplineSet
EndChar

StartChar: Yacute
Encoding: 221 221 64
Width: 596
Flags: HMW
HStem: -390 20G<-84 -2.5> -389 21G<-107.5 -10> -315 23<363.5 372.5> -315 192 -116 118<112.5 306.5> -18 20<275 282> 247 20<143 223.5> 247 209<121 280.5> 439 246<130 277.5> 485 34<833.5 842> 551 117<355.5 519.5> 686 20G<861.5 867.5>
VStem: -178 38<-334.5 -284> 50 30<321.5 375.5> 211 36<27 102 27 102.5> 239 197<468 473.5> 335 85<-300 -223.5> 410 26<468 518.5> 568 27<462 597.5> 847 41<469.5 479>
LayerCount: 2
Fore
SplineSet
752 645 m 0,0,1
 752 648 752 648 765 651 c 0,2,3
 814 663 814 663 843 695 c 0,4,5
 854 706 854 706 863.5 706 c 128,-1,6
 873 706 873 706 873 697 c 0,7,8
 873 681 873 681 829 660.5 c 128,-1,9
 785 640 785 640 759 640 c 0,10,11
 752 640 752 640 752 645 c 0,0,1
357 -281 m 0,12,13
 357 -292 357 -292 370 -292 c 128,-1,14
 383 -292 383 -292 393.5 -277.5 c 128,-1,15
 404 -263 404 -263 404 -246.5 c 128,-1,16
 404 -230 404 -230 399 -213 c 1,17,18
 357 -254 357 -254 357 -281 c 0,12,13
279 504.5 m 128,-1,20
 263 481 263 481 263 468.5 c 128,-1,21
 263 456 263 456 270 456 c 0,22,23
 286 456 286 456 301 481.5 c 128,-1,24
 316 507 316 507 320 541 c 1,25,19
 295 528 295 528 279 504.5 c 128,-1,20
840 485 m 128,-1,27
 833 485 833 485 823 480 c 128,-1,28
 813 475 813 475 800.5 463.5 c 128,-1,29
 788 452 788 452 775.5 439.5 c 128,-1,30
 763 427 763 427 745.5 405.5 c 128,-1,31
 728 384 728 384 713.5 366 c 128,-1,32
 699 348 699 348 676.5 318.5 c 128,-1,33
 654 289 654 289 638 268 c 0,34,35
 579.818181818 191.636363636 579.818181818 191.636363636 552 154 c 1,36,37
 668 246 668 246 757.5 342.5 c 128,-1,38
 847 439 847 439 847 477 c 0,39,26
 847 485 847 485 840 485 c 128,-1,27
203 -116 m 0,40,41
 118 -116 118 -116 35.5 -152 c 128,-1,42
 -47 -188 -47 -188 -93.5 -235 c 128,-1,43
 -140 -282 -140 -282 -140 -320 c 0,44,45
 -140 -370 -140 -370 -54 -370 c 0,46,47
 77 -370 77 -370 294 -127 c 1,48,49
 255 -116 255 -116 203 -116 c 0,40,41
80 344 m 0,50,51
 80 309 80 309 104 288 c 128,-1,52
 128 267 128 267 177 267 c 0,53,54
 253 267 253 267 331.5 353.5 c 128,-1,55
 410 440 410 440 410 505 c 0,56,57
 410 551 410 551 360 551 c 0,58,59
 350 551 350 551 336 547 c 1,60,61
 330 504 330 504 307.5 471.5 c 128,-1,62
 285 439 285 439 262 439 c 128,-1,63
 239 439 239 439 239 460.5 c 128,-1,64
 239 482 239 482 262 510 c 128,-1,65
 285 538 285 538 321 553 c 1,66,-1
 321 561 l 2,67,68
 321 592 321 592 310 614 c 1,69,70
 213 570 213 570 146.5 489 c 128,-1,71
 80 408 80 408 80 344 c 0,50,51
329 -121 m 1,72,73
 391 -143 391 -143 411 -187 c 1,74,75
 501 -123 501 -123 634 -123 c 0,76,77
 679 -123 679 -123 718 -137 c 0,78,79
 724 -140 724 -140 724 -146.5 c 128,-1,80
 724 -153 724 -153 715 -153 c 0,81,82
 714 -153 714 -153 705.5 -149.5 c 128,-1,83
 697 -146 697 -146 687.5 -143 c 0,84,85
 659 -134 659 -134 627 -134 c 0,86,87
 499 -134 499 -134 416 -200 c 1,88,89
 420 -212 420 -212 420 -237 c 128,-1,90
 420 -262 420 -262 400.5 -288.5 c 128,-1,91
 381 -315 381 -315 358 -315 c 128,-1,92
 335 -315 335 -315 335 -293 c 0,93,94
 335 -249 335 -249 394 -200 c 1,95,96
 373 -157 373 -157 317 -135 c 1,97,98
 84 -389 84 -389 -70 -389 c 0,99,100
 -124 -389 -124 -389 -151 -371.5 c 128,-1,101
 -178 -354 -178 -354 -178 -326 c 0,102,103
 -178 -283 -178 -283 -127.5 -232 c 128,-1,104
 -77 -181 -77 -181 15 -142.5 c 128,-1,105
 107 -104 107 -104 208 -104 c 0,106,107
 267 -104 267 -104 306 -114 c 1,108,109
 374 -36 374 -36 455 66 c 1,110,111
 327 -18 327 -18 259 -18 c 0,112,113
 242 -18 242 -18 226.5 -4.5 c 128,-1,114
 211 9 211 9 211 29 c 0,115,116
 211 97.4230769231 211 97.4230769231 337 221 c 0,117,118
 389 272 389 272 441.5 326.5 c 128,-1,119
 494 381 494 381 531 446.5 c 128,-1,120
 568 512 568 512 568 575 c 0,121,122
 568 650 568 650 464 650 c 0,123,124
 395 650 395 650 326 621 c 1,125,126
 337 599 337 599 337 569 c 1,127,-1
 336 559 l 1,128,129
 362 565 362 565 376 565 c 0,130,131
 436 565 436 565 436 513 c 0,132,133
 436 468 436 468 394.5 405.5 c 128,-1,134
 353 343 353 343 286.5 295 c 128,-1,135
 220 247 220 247 160 247 c 0,136,137
 50 247 50 247 50 331 c 0,138,139
 50 400 50 400 123.5 488.5 c 128,-1,140
 197 577 197 577 302 627 c 1,141,142
 273 671 273 671 200 671 c 0,143,144
 103 671 103 671 -9.5 607.5 c 128,-1,145
 -122 544 -122 544 -150 490 c 0,146,147
 -157 478 -157 478 -164 478 c 128,-1,148
 -171 478 -171 478 -171 486 c 0,149,150
 -171 491 -171 491 -167 498 c 0,151,152
 -123 561 -123 561 -11 623 c 128,-1,153
 101 685 101 685 207 685 c 0,154,155
 288 685 288 685 320 634 c 1,156,157
 399 668 399 668 476 668 c 0,158,159
 595 668 595 668 595 583 c 0,160,161
 595 516 595 516 559 447 c 128,-1,162
 523 378 523 378 472 322.5 c 128,-1,163
 421 267 421 267 370 216.5 c 128,-1,164
 319 166 319 166 283 119 c 128,-1,165
 247 72 247 72 247 37 c 0,166,167
 247 22 247 22 258 12 c 128,-1,168
 269 2 269 2 286 2 c 0,169,170
 344 2 344 2 480 99 c 1,171,172
 499 124 499 124 534 169 c 128,-1,173
 569 214 569 214 588 239 c 128,-1,174
 607 264 607 264 637.5 302.5 c 128,-1,175
 668 341 668 341 686.5 363 c 128,-1,176
 705 385 705 385 730.5 413.5 c 128,-1,177
 756 442 756 442 773.5 458 c 128,-1,178
 791 474 791 474 810 490 c 0,179,180
 844.4375 519 844.4375 519 873 519 c 0,181,182
 888 519 888 519 888 503 c 0,183,184
 888 454 888 454 773 333.5 c 128,-1,185
 658 213 658 213 520 112 c 1,186,187
 416 -25 416 -25 329 -121 c 1,72,73
EndSplineSet
EndChar

StartChar: yacute
Encoding: 253 253 65
Width: 209
Flags: HMW
HStem: -280 189<-217 -5> -267 163<-204 -10> -245 154<-63 23> -152 169<44.5 172> -91 87<-63 55> 247 20G<289.5 295.5>
VStem: -253 25<-244.5 -199 -244.5 -196.5>
LayerCount: 2
Fore
SplineSet
180 206 m 0,0,1
 180 209 180 209 193 212 c 0,2,3
 242 224 242 224 271 256 c 0,4,5
 282 267 282 267 291.5 267 c 128,-1,6
 301 267 301 267 301 258 c 0,7,8
 301 242 301 242 257 221.5 c 128,-1,9
 213 201 213 201 187 201 c 0,10,11
 180 201 180 201 180 206 c 0,0,1
7 -221 m 0,12,13
 7 -227 7 -227 22 -227 c 128,-1,14
 37 -227 37 -227 52.5 -208.5 c 128,-1,15
 68 -190 68 -190 69 -167 c 1,16,17
 42 -179 42 -179 24.5 -195 c 128,-1,18
 7 -211 7 -211 7 -221 c 0,12,13
-17 -104 m 0,19,20
 -88 -104 -88 -104 -158 -144 c 128,-1,21
 -228 -184 -228 -184 -228 -235 c 0,22,23
 -228 -249 -228 -249 -218.5 -258 c 128,-1,24
 -209 -267 -209 -267 -193 -267 c 0,25,26
 -121 -267 -121 -267 21 -108 c 1,27,28
 6 -104 6 -104 -17 -104 c 0,19,20
249 140 m 1,29,30
 232 123 232 123 164.5 35 c 128,-1,31
 97 -53 97 -53 52 -104 c 1,32,33
 83 -120 83 -120 84 -151 c 1,34,35
 120 -139 120 -139 144.5 -139 c 128,-1,36
 169 -139 169 -139 192.5 -147 c 128,-1,37
 216 -155 216 -155 216 -167 c 0,38,39
 216 -176 216 -176 210 -176 c 0,40,41
 208 -176 208 -176 203 -170 c 0,42,43
 188 -152 188 -152 150.5 -152 c 128,-1,44
 113 -152 113 -152 83 -162 c 1,45,46
 80 -193 80 -193 56 -219 c 128,-1,47
 32 -245 32 -245 9 -245 c 128,-1,48
 -14 -245 -14 -245 -14 -233 c 0,49,50
 -14 -216 -14 -216 9.5 -194.5 c 128,-1,51
 33 -173 33 -173 68 -157 c 1,52,53
 65 -130 65 -130 41 -117 c 1,54,55
 -103 -280 -103 -280 -202 -280 c 0,56,57
 -253 -280 -253 -280 -253 -239 c 0,58,59
 -253 -179 -253 -179 -174 -135 c 128,-1,60
 -95 -91 -95 -91 -13 -91 c 0,61,62
 10 -91 10 -91 32 -96 c 1,63,64
 65 -60 65 -60 111.5 -2 c 128,-1,65
 158 56 158 56 168 67 c 1,66,67
 159 58 159 58 129 39 c 128,-1,68
 99 20 99 20 85.5 13 c 0,69,70
 52.7142857143 -4 52.7142857143 -4 27.8571428571 -4 c 128,-1,71
 3 -4 3 -4 3 16 c 0,72,73
 3 30 3 30 19.5 55.5 c 128,-1,74
 36 81 36 81 53.5 100.5 c 0,75,76
 118.564102564 173 118.564102564 173 127.282051282 173 c 128,-1,77
 136 173 136 173 136 166.5 c 128,-1,78
 136 160 136 160 129 153 c 2,79,-1
 100.5 122.5 l 2,80,81
 35 52.4035087719 35 52.4035087719 35 31 c 0,82,83
 35 17 35 17 49 17 c 0,84,85
 74 17 74 17 127 57 c 128,-1,86
 180 97 180 97 207 125.5 c 128,-1,87
 234 154 234 154 243 154 c 128,-1,88
 252 154 252 154 252 148 c 1,89,-1
 249 140 l 1,29,30
EndSplineSet
EndChar

StartChar: adieresis
Encoding: 228 228 66
Width: 262
Flags: HMW
HStem: -6 21G<50.5 87.5> -3 170<179.5 205.5 138 209.5> 151 100<143 289.5> 240 20G<205.5 216.5>
VStem: 19 34<31 59 31 59.5>
LayerCount: 2
Fore
SplineSet
267 240.5 m 128,-1,1
 276 251 276 251 283.5 251 c 128,-1,2
 291 251 291 251 295.5 246.5 c 128,-1,3
 300 242 300 242 300 233 c 128,-1,4
 300 224 300 224 289.5 216 c 128,-1,5
 279 208 279 208 272 208 c 0,6,7
 258 208 258 208 258 221 c 0,8,0
 258 230 258 230 267 240.5 c 128,-1,1
194 249.5 m 128,-1,10
 203 260 203 260 210.5 260 c 128,-1,11
 218 260 218 260 222.5 255.5 c 128,-1,12
 227 251 227 251 227 242 c 128,-1,13
 227 233 227 233 216.5 225 c 128,-1,14
 206 217 206 217 199 217 c 0,15,16
 185 217 185 217 185 230 c 0,17,9
 185 239 185 239 194 249.5 c 128,-1,10
82 12 m 0,18,19
 121 12 121 12 169 52.5 c 128,-1,20
 217 93 217 93 225 122 c 1,21,22
 225 134 225 134 210 142.5 c 128,-1,23
 195 151 195 151 176 151 c 0,24,25
 130 151 130 151 91.5 111.5 c 128,-1,26
 53 72 53 72 53 42 c 128,-1,27
 53 12 53 12 82 12 c 0,18,19
185 167 m 0,28,29
 220.083333333 167 220.083333333 167 243 142 c 0,30,31
 244 142 244 142 259 157 c 1,32,33
 266 168 266 168 275 168 c 128,-1,34
 284 168 284 168 284 159 c 1,35,-1
 280 150 l 2,36,37
 277 145 277 145 240.5 101 c 128,-1,38
 204 57 204 57 198.5 49 c 128,-1,39
 193 41 193 41 193 25 c 0,40,41
 193 14 193 14 207 14 c 0,42,43
 236 14 236 14 289 62 c 0,44,45
 292 66 292 66 295.5 66 c 128,-1,46
 299 66 299 66 299 61 c 0,47,48
 299 49 299 49 258.5 23 c 128,-1,49
 218 -3 218 -3 186 -3 c 0,50,51
 164 -3 164 -3 164 20 c 0,52,53
 164 28 164 28 161.5 28 c 128,-1,54
 159 28 159 28 158 27 c 0,55,56
 108 -6 108 -6 63.5 -6 c 128,-1,57
 19 -6 19 -6 19 34 c 0,58,59
 19 76 19 76 69 121.5 c 128,-1,60
 119 167 119 167 185 167 c 0,28,29
EndSplineSet
EndChar

StartChar: edieresis
Encoding: 235 235 67
Width: 187
Flags: HMW
HStem: -5 175<120.5 126> 12 141<86.5 147.5> 170 81<120.5 218.5> 240 20G<134.5 145.5>
VStem: 23 29<45 52 52 71> 164 25<113.5 138.5>
LayerCount: 2
Fore
SplineSet
196 240.5 m 128,-1,1
 205 251 205 251 212.5 251 c 128,-1,2
 220 251 220 251 224.5 246.5 c 128,-1,3
 229 242 229 242 229 233 c 128,-1,4
 229 224 229 224 218.5 216 c 128,-1,5
 208 208 208 208 201 208 c 0,6,7
 187 208 187 208 187 221 c 0,8,0
 187 230 187 230 196 240.5 c 128,-1,1
123 249.5 m 128,-1,10
 132 260 132 260 139.5 260 c 128,-1,11
 147 260 147 260 151.5 255.5 c 128,-1,12
 156 251 156 251 156 242 c 128,-1,13
 156 233 156 233 145.5 225 c 128,-1,14
 135 217 135 217 128 217 c 0,15,16
 114 217 114 217 114 230 c 0,17,9
 114 239 114 239 123 249.5 c 128,-1,10
52 45 m 1,18,-1
 52 52 l 2,19,20
 52 85 52 85 80.5 119 c 128,-1,21
 109 153 109 153 136.5 153 c 128,-1,22
 164 153 164 153 164 131 c 0,23,24
 164 88 164 88 52 45 c 1,18,-1
189 139 m 0,25,26
 189 170 189 170 154 170 c 0,27,28
 106 170 106 170 64.5 128 c 128,-1,29
 23 86 23 86 23 45 c 0,30,31
 23 -5 23 -5 91 -5 c 0,32,33
 123 -5 123 -5 156 9 c 128,-1,34
 189 23 189 23 207 38 c 128,-1,35
 225 53 225 53 225 59.5 c 128,-1,36
 225 66 225 66 221.5 66 c 128,-1,37
 218 66 218 66 215 62 c 0,38,39
 160 12 160 12 99 12 c 0,40,41
 63 12 63 12 55 35 c 1,42,43
 189 79 189 79 189 139 c 0,25,26
EndSplineSet
EndChar

StartChar: odieresis
Encoding: 246 246 68
Width: 213
Flags: HMW
HStem: -5 175 10 144 189 62<160.5 236.5> 240 20G<152.5 163.5>
VStem: 4 34<36.5 65>
LayerCount: 2
Fore
SplineSet
214 240.5 m 128,-1,1
 223 251 223 251 230.5 251 c 128,-1,2
 238 251 238 251 242.5 246.5 c 128,-1,3
 247 242 247 242 247 233 c 128,-1,4
 247 224 247 224 236.5 216 c 128,-1,5
 226 208 226 208 219 208 c 0,6,7
 205 208 205 208 205 221 c 0,8,0
 205 230 205 230 214 240.5 c 128,-1,1
141 249.5 m 128,-1,10
 150 260 150 260 157.5 260 c 128,-1,11
 165 260 165 260 169.5 255.5 c 128,-1,12
 174 251 174 251 174 242 c 128,-1,13
 174 233 174 233 163.5 225 c 128,-1,14
 153 217 153 217 146 217 c 0,15,16
 132 217 132 217 132 230 c 0,17,9
 132 239 132 239 141 249.5 c 128,-1,10
154 164 m 0,18,19
 154 172 154 172 163 172 c 128,-1,20
 172 172 172 172 180 161.5 c 128,-1,21
 188 151 188 151 188 135.5 c 128,-1,22
 188 120 188 120 187 115 c 1,23,24
 154 123 154 123 154 164 c 0,18,19
183 100 m 1,25,26
 171 63 171 63 137 36.5 c 128,-1,27
 103 10 103 10 77 10 c 0,28,29
 38 10 38 10 38 47 c 0,30,31
 38 80 38 80 67.5 116.5 c 128,-1,32
 97 153 97 153 131 154 c 1,33,34
 134 105 134 105 183 100 c 1,25,26
4 39 m 0,35,36
 4 -5 4 -5 63 -5 c 0,37,38
 106 -5 106 -5 146 26.5 c 128,-1,39
 186 58 186 58 202 100 c 1,40,41
 233 101 233 101 268 114 c 128,-1,42
 303 127 303 127 311 134 c 128,-1,43
 319 141 319 141 319 144.5 c 128,-1,44
 319 148 319 148 314 148 c 1,45,46
 307 141 307 141 271 127 c 128,-1,47
 235 113 235 113 206 113 c 1,48,49
 210 125 210 125 210 144.5 c 128,-1,50
 210 164 210 164 197.5 176.5 c 128,-1,51
 185 189 185 189 163.5 189 c 128,-1,52
 142 189 142 189 133 170 c 1,53,54
 89 169 89 169 46.5 124 c 128,-1,55
 4 79 4 79 4 39 c 0,35,36
EndSplineSet
EndChar

StartChar: udieresis
Encoding: 252 252 69
Width: 228
Flags: HMW
HStem: -3 21 -1 21G<13.5 46> 240 20G<185.5 196.5>
VStem: -5 29<25.5 41.5 25.5 42>
LayerCount: 2
Fore
SplineSet
247 240.5 m 128,-1,1
 256 251 256 251 263.5 251 c 128,-1,2
 271 251 271 251 275.5 246.5 c 128,-1,3
 280 242 280 242 280 233 c 128,-1,4
 280 224 280 224 269.5 216 c 128,-1,5
 259 208 259 208 252 208 c 0,6,7
 238 208 238 208 238 221 c 0,8,0
 238 230 238 230 247 240.5 c 128,-1,1
174 249.5 m 128,-1,10
 183 260 183 260 190.5 260 c 128,-1,11
 198 260 198 260 202.5 255.5 c 128,-1,12
 207 251 207 251 207 242 c 128,-1,13
 207 233 207 233 196.5 225 c 128,-1,14
 186 217 186 217 179 217 c 0,15,16
 165 217 165 217 165 230 c 0,17,9
 165 239 165 239 174 249.5 c 128,-1,10
125 20 m 0,18,19
 125 35.6666666667 125 35.6666666667 136 54 c 0,20,21
 136 55 136 55 136 56 c 128,-1,22
 136 57 136 57 135 56 c 0,23,24
 68 -1 68 -1 24 -1 c 0,25,26
 -5 -1 -5 -1 -5 19 c 128,-1,27
 -5 39 -5 39 23 76.5 c 128,-1,28
 51 114 51 114 79.5 143 c 128,-1,29
 108 172 108 172 106 168 c 1,30,31
 111 173 111 173 118 173 c 128,-1,32
 125 173 125 173 125 166.5 c 128,-1,33
 125 160 125 160 119 154 c 128,-1,34
 113 148 113 148 96.5 129.5 c 128,-1,35
 80 111 80 111 70.5 100 c 128,-1,36
 61 89 61 89 48.5 73.5 c 0,37,38
 24 43.12 24 43.12 24 29 c 0,39,40
 24 18 24 18 40 18 c 128,-1,41
 56 18 56 18 85 37 c 128,-1,42
 114 56 114 56 135 75.5 c 2,43,-1
 156 95 l 1,44,45
 198 132 198 132 213 154 c 1,46,47
 222 165 222 165 231 165 c 128,-1,48
 240 165 240 165 240 158 c 0,49,50
 240 152.090909091 240 152.090909091 214.5 125.045454545 c 0,51,52
 162.387096774 69.7741935484 162.387096774 69.7741935484 158 61 c 0,53,54
 148 38 148 38 148 30 c 0,55,56
 148 14 148 14 172.5 14 c 128,-1,57
 197 14 197 14 250 62 c 0,58,59
 253 66 253 66 256.5 66 c 128,-1,60
 260 66 260 66 260 61 c 0,61,62
 260 49 260 49 219.5 23 c 128,-1,63
 179 -3 179 -3 147 -3 c 0,64,65
 125 -3 125 -3 125 20 c 0,18,19
EndSplineSet
EndChar

StartChar: ydieresis
Encoding: 255 255 70
Width: 209
Flags: HMW
HStem: -280 189<-217 -5> -245 154<-63 23> -152 169<44.5 172> -4 21G<44.5 55> 240 20G<190.5 201.5>
VStem: -253 25<-244.5 -199 -244.5 -196.5> 3 32<27 36.5>
LayerCount: 2
Fore
SplineSet
252 240.5 m 128,-1,1
 261 251 261 251 268.5 251 c 128,-1,2
 276 251 276 251 280.5 246.5 c 128,-1,3
 285 242 285 242 285 233 c 128,-1,4
 285 224 285 224 274.5 216 c 128,-1,5
 264 208 264 208 257 208 c 0,6,7
 243 208 243 208 243 221 c 0,8,0
 243 230 243 230 252 240.5 c 128,-1,1
179 249.5 m 128,-1,10
 188 260 188 260 195.5 260 c 128,-1,11
 203 260 203 260 207.5 255.5 c 128,-1,12
 212 251 212 251 212 242 c 128,-1,13
 212 233 212 233 201.5 225 c 128,-1,14
 191 217 191 217 184 217 c 0,15,16
 170 217 170 217 170 230 c 0,17,9
 170 239 170 239 179 249.5 c 128,-1,10
7 -221 m 0,18,19
 7 -227 7 -227 22 -227 c 128,-1,20
 37 -227 37 -227 52.5 -208.5 c 128,-1,21
 68 -190 68 -190 69 -167 c 1,22,23
 42 -179 42 -179 24.5 -195 c 128,-1,24
 7 -211 7 -211 7 -221 c 0,18,19
-17 -104 m 0,25,26
 -88 -104 -88 -104 -158 -144 c 128,-1,27
 -228 -184 -228 -184 -228 -235 c 0,28,29
 -228 -249 -228 -249 -218.5 -258 c 128,-1,30
 -209 -267 -209 -267 -193 -267 c 0,31,32
 -121 -267 -121 -267 21 -108 c 1,33,34
 6 -104 6 -104 -17 -104 c 0,25,26
249 140 m 1,35,36
 232 123 232 123 164.5 35 c 128,-1,37
 97 -53 97 -53 52 -104 c 1,38,39
 83 -120 83 -120 84 -151 c 1,40,41
 120 -139 120 -139 144.5 -139 c 128,-1,42
 169 -139 169 -139 192.5 -147 c 128,-1,43
 216 -155 216 -155 216 -167 c 0,44,45
 216 -176 216 -176 210 -176 c 0,46,47
 208 -176 208 -176 203 -170 c 0,48,49
 188 -152 188 -152 150.5 -152 c 128,-1,50
 113 -152 113 -152 83 -162 c 1,51,52
 80 -193 80 -193 56 -219 c 128,-1,53
 32 -245 32 -245 9 -245 c 128,-1,54
 -14 -245 -14 -245 -14 -233 c 0,55,56
 -14 -216 -14 -216 9.5 -194.5 c 128,-1,57
 33 -173 33 -173 68 -157 c 1,58,59
 65 -130 65 -130 41 -117 c 1,60,61
 -103 -280 -103 -280 -202 -280 c 0,62,63
 -253 -280 -253 -280 -253 -239 c 0,64,65
 -253 -179 -253 -179 -174 -135 c 128,-1,66
 -95 -91 -95 -91 -13 -91 c 0,67,68
 10 -91 10 -91 32 -96 c 1,69,70
 65 -60 65 -60 111.5 -2 c 128,-1,71
 158 56 158 56 168 67 c 1,72,73
 159 58 159 58 129 39 c 128,-1,74
 99 20 99 20 85.5 13 c 0,75,76
 52.7142857143 -4 52.7142857143 -4 27.8571428571 -4 c 128,-1,77
 3 -4 3 -4 3 16 c 0,78,79
 3 30 3 30 19.5 55.5 c 128,-1,80
 36 81 36 81 53.5 100.5 c 0,81,82
 118.564102564 173 118.564102564 173 127.282051282 173 c 128,-1,83
 136 173 136 173 136 166.5 c 128,-1,84
 136 160 136 160 129 153 c 2,85,-1
 100.5 122.5 l 2,86,87
 35 52.4035087719 35 52.4035087719 35 31 c 0,88,89
 35 17 35 17 49 17 c 0,90,91
 74 17 74 17 127 57 c 128,-1,92
 180 97 180 97 207 125.5 c 128,-1,93
 234 154 234 154 243 154 c 128,-1,94
 252 154 252 154 252 148 c 1,95,-1
 249 140 l 1,35,36
EndSplineSet
EndChar

StartChar: Ydieresis
Encoding: 376 376 71
Width: 596
Flags: HMW
HStem: -390 20G<-84 -2.5> -389 21G<-107.5 -10> -315 23<363.5 372.5> -315 192 -116 118<112.5 306.5> -18 20<275 282> 247 20<143 223.5> 247 209<121 280.5> 439 246<130 277.5> 485 34<833.5 842> 551 117<355.5 519.5> 650 48 687 20G<744.5 755.5>
VStem: -178 38<-334.5 -284> 50 30<321.5 375.5> 211 36<27 102 27 102.5> 239 197<468 473.5> 335 85<-300 -223.5> 410 26<468 518.5> 568 27<462 597.5> 847 41<469.5 479>
LayerCount: 2
Fore
SplineSet
806 687.5 m 128,-1,1
 815 698 815 698 822.5 698 c 128,-1,2
 830 698 830 698 834.5 693.5 c 128,-1,3
 839 689 839 689 839 680 c 128,-1,4
 839 671 839 671 828.5 663 c 128,-1,5
 818 655 818 655 811 655 c 0,6,7
 797 655 797 655 797 668 c 0,8,0
 797 677 797 677 806 687.5 c 128,-1,1
733 696.5 m 128,-1,10
 742 707 742 707 749.5 707 c 128,-1,11
 757 707 757 707 761.5 702.5 c 128,-1,12
 766 698 766 698 766 689 c 128,-1,13
 766 680 766 680 755.5 672 c 128,-1,14
 745 664 745 664 738 664 c 0,15,16
 724 664 724 664 724 677 c 0,17,9
 724 686 724 686 733 696.5 c 128,-1,10
357 -281 m 0,18,19
 357 -292 357 -292 370 -292 c 128,-1,20
 383 -292 383 -292 393.5 -277.5 c 128,-1,21
 404 -263 404 -263 404 -246.5 c 128,-1,22
 404 -230 404 -230 399 -213 c 1,23,24
 357 -254 357 -254 357 -281 c 0,18,19
279 504.5 m 128,-1,26
 263 481 263 481 263 468.5 c 128,-1,27
 263 456 263 456 270 456 c 0,28,29
 286 456 286 456 301 481.5 c 128,-1,30
 316 507 316 507 320 541 c 1,31,25
 295 528 295 528 279 504.5 c 128,-1,26
840 485 m 128,-1,33
 833 485 833 485 823 480 c 128,-1,34
 813 475 813 475 800.5 463.5 c 128,-1,35
 788 452 788 452 775.5 439.5 c 128,-1,36
 763 427 763 427 745.5 405.5 c 128,-1,37
 728 384 728 384 713.5 366 c 128,-1,38
 699 348 699 348 676.5 318.5 c 128,-1,39
 654 289 654 289 638 268 c 0,40,41
 579.818181818 191.636363636 579.818181818 191.636363636 552 154 c 1,42,43
 668 246 668 246 757.5 342.5 c 128,-1,44
 847 439 847 439 847 477 c 0,45,32
 847 485 847 485 840 485 c 128,-1,33
203 -116 m 0,46,47
 118 -116 118 -116 35.5 -152 c 128,-1,48
 -47 -188 -47 -188 -93.5 -235 c 128,-1,49
 -140 -282 -140 -282 -140 -320 c 0,50,51
 -140 -370 -140 -370 -54 -370 c 0,52,53
 77 -370 77 -370 294 -127 c 1,54,55
 255 -116 255 -116 203 -116 c 0,46,47
80 344 m 0,56,57
 80 309 80 309 104 288 c 128,-1,58
 128 267 128 267 177 267 c 0,59,60
 253 267 253 267 331.5 353.5 c 128,-1,61
 410 440 410 440 410 505 c 0,62,63
 410 551 410 551 360 551 c 0,64,65
 350 551 350 551 336 547 c 1,66,67
 330 504 330 504 307.5 471.5 c 128,-1,68
 285 439 285 439 262 439 c 128,-1,69
 239 439 239 439 239 460.5 c 128,-1,70
 239 482 239 482 262 510 c 128,-1,71
 285 538 285 538 321 553 c 1,72,-1
 321 561 l 2,73,74
 321 592 321 592 310 614 c 1,75,76
 213 570 213 570 146.5 489 c 128,-1,77
 80 408 80 408 80 344 c 0,56,57
329 -121 m 1,78,79
 391 -143 391 -143 411 -187 c 1,80,81
 501 -123 501 -123 634 -123 c 0,82,83
 679 -123 679 -123 718 -137 c 0,84,85
 724 -140 724 -140 724 -146.5 c 128,-1,86
 724 -153 724 -153 715 -153 c 0,87,88
 714 -153 714 -153 705.5 -149.5 c 128,-1,89
 697 -146 697 -146 687.5 -143 c 0,90,91
 659 -134 659 -134 627 -134 c 0,92,93
 499 -134 499 -134 416 -200 c 1,94,95
 420 -212 420 -212 420 -237 c 128,-1,96
 420 -262 420 -262 400.5 -288.5 c 128,-1,97
 381 -315 381 -315 358 -315 c 128,-1,98
 335 -315 335 -315 335 -293 c 0,99,100
 335 -249 335 -249 394 -200 c 1,101,102
 373 -157 373 -157 317 -135 c 1,103,104
 84 -389 84 -389 -70 -389 c 0,105,106
 -124 -389 -124 -389 -151 -371.5 c 128,-1,107
 -178 -354 -178 -354 -178 -326 c 0,108,109
 -178 -283 -178 -283 -127.5 -232 c 128,-1,110
 -77 -181 -77 -181 15 -142.5 c 128,-1,111
 107 -104 107 -104 208 -104 c 0,112,113
 267 -104 267 -104 306 -114 c 1,114,115
 374 -36 374 -36 455 66 c 1,116,117
 327 -18 327 -18 259 -18 c 0,118,119
 242 -18 242 -18 226.5 -4.5 c 128,-1,120
 211 9 211 9 211 29 c 0,121,122
 211 97.4230769231 211 97.4230769231 337 221 c 0,123,124
 389 272 389 272 441.5 326.5 c 128,-1,125
 494 381 494 381 531 446.5 c 128,-1,126
 568 512 568 512 568 575 c 0,127,128
 568 650 568 650 464 650 c 0,129,130
 395 650 395 650 326 621 c 1,131,132
 337 599 337 599 337 580.5 c 128,-1,133
 337 562 337 562 336 559 c 1,134,135
 362 565 362 565 376 565 c 0,136,137
 436 565 436 565 436 513 c 0,138,139
 436 468 436 468 394.5 405.5 c 128,-1,140
 353 343 353 343 286.5 295 c 128,-1,141
 220 247 220 247 160 247 c 0,142,143
 50 247 50 247 50 331 c 0,144,145
 50 400 50 400 123.5 488.5 c 128,-1,146
 197 577 197 577 302 627 c 1,147,148
 273 671 273 671 200 671 c 0,149,150
 103 671 103 671 -9.5 607.5 c 128,-1,151
 -122 544 -122 544 -150 490 c 0,152,153
 -157 478 -157 478 -164 478 c 128,-1,154
 -171 478 -171 478 -171 486 c 0,155,156
 -171 491 -171 491 -167 498 c 0,157,158
 -123 561 -123 561 -11 623 c 128,-1,159
 101 685 101 685 207 685 c 0,160,161
 288 685 288 685 320 634 c 1,162,163
 399 668 399 668 476 668 c 0,164,165
 595 668 595 668 595 583 c 0,166,167
 595 516 595 516 559 447 c 128,-1,168
 523 378 523 378 472 322.5 c 128,-1,169
 421 267 421 267 370 216.5 c 128,-1,170
 319 166 319 166 283 119 c 128,-1,171
 247 72 247 72 247 37 c 0,172,173
 247 22 247 22 258 12 c 128,-1,174
 269 2 269 2 286 2 c 0,175,176
 344 2 344 2 480 99 c 1,177,178
 499 124 499 124 534 169 c 128,-1,179
 569 214 569 214 588 239 c 128,-1,180
 607 264 607 264 637.5 302.5 c 128,-1,181
 668 341 668 341 686.5 363 c 128,-1,182
 705 385 705 385 730.5 413.5 c 128,-1,183
 756 442 756 442 773.5 458 c 128,-1,184
 791 474 791 474 810 490 c 0,185,186
 844.4375 519 844.4375 519 873 519 c 0,187,188
 888 519 888 519 888 503 c 0,189,190
 888 454 888 454 773 333.5 c 128,-1,191
 658 213 658 213 520 112 c 1,192,193
 416 -25 416 -25 329 -121 c 1,78,79
EndSplineSet
EndChar

StartChar: Adieresis
Encoding: 196 196 72
Width: 913
Flags: HMW
HStem: -49 21<195.5 316> 71 222<255 301.5> 272 21<255 384.5> 309 63<630.5 709.5> 787 20G<1192.5 1203.5>
VStem: 44 20<59.5 131> 193 32<104 130.5> 420 24<486 558.5 476.5 561> 459 35<173 218.5> 549 21<236 253> 697 130 805 22
LayerCount: 2
Fore
SplineSet
781 95 m 1,0,-1
 783 95 l 1,1,-1
 780 91 l 2,2,3
 781 92 781 92 781 95 c 1,0,-1
1181 796.5 m 128,-1,5
 1190 807 1190 807 1197.5 807 c 128,-1,6
 1205 807 1205 807 1209.5 802.5 c 128,-1,7
 1214 798 1214 798 1214 789 c 128,-1,8
 1214 780 1214 780 1203.5 772 c 128,-1,9
 1193 764 1193 764 1186 764 c 0,10,11
 1172 764 1172 764 1172 777 c 0,12,4
 1172 786 1172 786 1181 796.5 c 128,-1,5
1254 787.5 m 128,-1,14
 1263 798 1263 798 1270.5 798 c 128,-1,15
 1278 798 1278 798 1282.5 793.5 c 128,-1,16
 1287 789 1287 789 1287 780 c 128,-1,17
 1287 771 1287 771 1276.5 763 c 128,-1,18
 1266 755 1266 755 1259 755 c 0,19,20
 1245 755 1245 755 1245 768 c 0,21,13
 1245 777 1245 777 1254 787.5 c 128,-1,14
686 355 m 0,22,23
 697 355 697 355 697 347 c 0,24,25
 697 326 697 326 636 326 c 0,26,27
 625 326 625 326 605 328 c 1,28,29
 635 355 635 355 686 355 c 0,22,23
804 294 m 1,30,31
 800 220 800 220 770 109 c 1,32,33
 697 113 697 113 646 141 c 1,34,35
 700 189 700 189 804 294 c 1,30,31
1121 628 m 1,36,37
 1125 628 1125 628 1125 626 c 128,-1,38
 1125 624 1125 624 1058 519 c 128,-1,39
 991 414 991 414 922 306 c 128,-1,40
 853 198 853 198 845 184.5 c 128,-1,41
 837 171 837 171 792 108 c 1,42,-1
 785 108 l 1,43,44
 823 255 823 255 826 317 c 1,45,46
 875 367 875 367 1121 628 c 1,36,37
632 150 m 1,47,48
 570 193 570 193 570 254 c 0,49,50
 570 288 570 288 591 314 c 1,51,52
 616 309 616 309 648.5 309 c 128,-1,53
 681 309 681 309 706 324.5 c 128,-1,54
 731 340 731 340 731 354 c 0,55,56
 731 372 731 372 698 372 c 0,57,58
 635 372 635 372 591 331 c 1,59,60
 525 347 525 347 484.5 401 c 128,-1,61
 444 455 444 455 444 510 c 0,62,63
 444 634 444 634 556 634 c 0,64,65
 613 634 613 634 658.5 610 c 128,-1,66
 704 586 704 586 730.5 550.5 c 128,-1,67
 757 515 757 515 774.5 470 c 0,68,69
 805 391.571428571 805 391.571428571 805 317 c 1,70,71
 710 219 710 219 632 150 c 1,47,48
193 113 m 0,72,73
 193 71 193 71 271 71 c 0,74,75
 330.709677419 71 330.709677419 71 404.5 101.5 c 0,76,77
 442 117 442 117 468 145 c 128,-1,78
 494 173 494 173 494 208 c 0,79,80
 494 293 494 293 343 293 c 0,81,82
 213 293 213 293 128.5 227 c 128,-1,83
 44 161 44 161 44 83 c 0,84,85
 44 26 44 26 96 -11.5 c 128,-1,86
 148 -49 148 -49 248 -49 c 128,-1,87
 348 -49 348 -49 435 -9 c 128,-1,88
 522 31 522 31 629 125 c 1,89,90
 682 98 682 98 767 95 c 1,91,-1
 754 53 l 1,92,-1
 728 15 l 2,93,94
 708 -13 708 -13 708 -22.5 c 128,-1,95
 708 -32 708 -32 718 -32 c 0,96,97
 731.666666667 -32 731.666666667 -32 817 96 c 1,98,99
 892.15 104.35 892.15 104.35 941.5 125.5 c 2,100,-1
 959 133 l 1,101,102
 975 138 975 138 975 148 c 0,103,104
 975 153 975 153 970.5 153 c 128,-1,105
 966 153 966 153 945.5 144 c 0,106,107
 881.611650485 115.951456311 881.611650485 115.951456311 826 109 c 1,108,109
 882 194 882 194 973.5 341.5 c 128,-1,110
 1065 489 1065 489 1125.5 585.5 c 128,-1,111
 1186 682 1186 682 1196 690 c 0,112,113
 1207 698 1207 698 1207 706.5 c 0,114,115
 1207 723 1207 723 1195 723 c 0,116,117
 1187 723 1187 723 1162 698 c 1,118,-1
 1039 566 l 2,119,120
 896 413 896 413 827 340 c 1,121,122
 825 474 825 474 747 563.5 c 128,-1,123
 669 653 669 653 569 653 c 0,124,125
 494 653 494 653 457 617.5 c 128,-1,126
 420 582 420 582 420 522.5 c 128,-1,127
 420 463 420 463 464.5 401.5 c 128,-1,128
 509 340 509 340 578 318 c 1,129,130
 549 281 549 281 549 239 c 0,131,132
 549 173 549 173 614 133 c 1,133,134
 517 49 517 49 434.5 10.5 c 128,-1,135
 352 -28 352 -28 259 -28 c 128,-1,136
 166 -28 166 -28 115 6 c 128,-1,137
 64 40 64 40 64 91 c 0,138,139
 64 159 64 159 142 215.5 c 128,-1,140
 220 272 220 272 339 272 c 0,141,142
 402 272 402 272 430.5 251.5 c 128,-1,143
 459 231 459 231 459 201 c 0,144,145
 459 156 459 156 409.5 122.5 c 128,-1,146
 360 89 360 89 272 89 c 0,147,148
 225 89 225 89 225 118 c 0,149,150
 225 129 225 129 231.5 135 c 128,-1,151
 238 141 238 141 245 142.5 c 0,152,153
 265 146.785714286 265 146.785714286 265 156.892857143 c 128,-1,154
 265 167 265 167 250 167 c 1,155,156
 228.076923077 159.692307692 228.076923077 159.692307692 210.538461538 144.346153846 c 128,-1,157
 193 129 193 129 193 113 c 0,72,73
EndSplineSet
EndChar

StartChar: acircumflex
Encoding: 226 226 73
Width: 262
Flags: HMW
HStem: -6 21G<50.5 87.5> -3 170<179.5 205.5 138 209.5> 151 114<143 259.5> 211 54
VStem: 19 34<31 59 31 59.5>
LayerCount: 2
Fore
SplineSet
171 211 m 0,0,1
 164 211 164 211 164 215.5 c 128,-1,2
 164 220 164 220 186 224 c 128,-1,3
 208 228 208 228 224.5 246.5 c 128,-1,4
 241 265 241 265 248.5 265 c 128,-1,5
 256 265 256 265 258.5 259.5 c 128,-1,6
 261 254 261 254 262 246.5 c 0,7,8
 264.636363636 226.727272727 264.636363636 226.727272727 292 215 c 0,9,10
 295 213.5 295 213.5 295 211.75 c 128,-1,11
 295 210 295 210 291.5 207 c 128,-1,12
 288 204 288 204 284 204 c 0,13,14
 262 204 262 204 244 238 c 1,15,16
 204 211 204 211 171 211 c 0,0,1
82 12 m 0,17,18
 121 12 121 12 169 52.5 c 128,-1,19
 217 93 217 93 225 122 c 1,20,21
 225 134 225 134 210 142.5 c 128,-1,22
 195 151 195 151 176 151 c 0,23,24
 130 151 130 151 91.5 111.5 c 128,-1,25
 53 72 53 72 53 42 c 128,-1,26
 53 12 53 12 82 12 c 0,17,18
185 167 m 0,27,28
 220.083333333 167 220.083333333 167 243 142 c 0,29,30
 244 142 244 142 259 157 c 1,31,32
 266 168 266 168 275 168 c 128,-1,33
 284 168 284 168 284 159 c 1,34,-1
 280 150 l 2,35,36
 277 145 277 145 240.5 101 c 128,-1,37
 204 57 204 57 198.5 49 c 128,-1,38
 193 41 193 41 193 25 c 0,39,40
 193 14 193 14 207 14 c 0,41,42
 236 14 236 14 289 62 c 0,43,44
 292 66 292 66 295.5 66 c 128,-1,45
 299 66 299 66 299 61 c 0,46,47
 299 49 299 49 258.5 23 c 128,-1,48
 218 -3 218 -3 186 -3 c 0,49,50
 164 -3 164 -3 164 20 c 0,51,52
 164 28 164 28 161.5 28 c 128,-1,53
 159 28 159 28 158 27 c 0,54,55
 108 -6 108 -6 63.5 -6 c 128,-1,56
 19 -6 19 -6 19 34 c 0,57,58
 19 76 19 76 69 121.5 c 128,-1,59
 119 167 119 167 185 167 c 0,27,28
EndSplineSet
EndChar

StartChar: circumflex
Encoding: 710 710 74
Width: 262
Flags: HMW
HStem: 204 21G<195 202.5> 211 54
LayerCount: 2
Fore
SplineSet
87 211 m 0,0,1
 80 211 80 211 80 215.5 c 128,-1,2
 80 220 80 220 102 224 c 128,-1,3
 124 228 124 228 140.5 246.5 c 128,-1,4
 157 265 157 265 164.5 265 c 128,-1,5
 172 265 172 265 174.5 259.5 c 128,-1,6
 177 254 177 254 178 246.5 c 0,7,8
 180.636363636 226.727272727 180.636363636 226.727272727 208 215 c 0,9,10
 211 213.5 211 213.5 211 211.75 c 128,-1,11
 211 210 211 210 207.5 207 c 128,-1,12
 204 204 204 204 200 204 c 0,13,14
 178 204 178 204 160 238 c 1,15,16
 120 211 120 211 87 211 c 0,0,1
EndSplineSet
EndChar

StartChar: ecircumflex
Encoding: 234 234 75
Width: 187
Flags: HMW
HStem: -5 175<120.5 126> 153 112<119 189.5> 211 54
VStem: 23 29<45 52 45 71> 164 25<113.5 138.5>
LayerCount: 2
Fore
SplineSet
101 211 m 0,0,1
 94 211 94 211 94 215.5 c 128,-1,2
 94 220 94 220 116 224 c 128,-1,3
 138 228 138 228 154.5 246.5 c 128,-1,4
 171 265 171 265 178.5 265 c 128,-1,5
 186 265 186 265 188.5 259.5 c 128,-1,6
 191 254 191 254 192 246.5 c 0,7,8
 194.636363636 226.727272727 194.636363636 226.727272727 222 215 c 0,9,10
 225 213.5 225 213.5 225 211.75 c 128,-1,11
 225 210 225 210 221.5 207 c 128,-1,12
 218 204 218 204 214 204 c 0,13,14
 192 204 192 204 174 238 c 1,15,16
 134 211 134 211 101 211 c 0,0,1
52 52 m 2,17,-1
 52 45 l 1,18,19
 164 88 164 88 164 131 c 0,20,21
 164 153 164 153 136.5 153 c 128,-1,22
 109 153 109 153 80.5 119 c 128,-1,23
 52 85 52 85 52 52 c 2,17,-1
189 139 m 0,24,25
 189 79 189 79 55 35 c 1,26,27
 63 12 63 12 99 12 c 0,28,29
 160 12 160 12 215 62 c 0,30,31
 218 66 218 66 221.5 66 c 128,-1,32
 225 66 225 66 225 59.5 c 128,-1,33
 225 53 225 53 207 38 c 128,-1,34
 189 23 189 23 156 9 c 128,-1,35
 123 -5 123 -5 91 -5 c 0,36,37
 23 -5 23 -5 23 45 c 0,38,39
 23 86 23 86 64.5 128 c 128,-1,40
 106 170 106 170 154 170 c 0,41,42
 189 170 189 170 189 139 c 0,24,25
EndSplineSet
EndChar

StartChar: icircumflex
Encoding: 238 238 76
Width: 101
Flags: HMW
HStem: -3 21G<18.5 48.5> 211 54
LayerCount: 2
Fore
SplineSet
88 211 m 0,0,1
 81 211 81 211 81 215.5 c 128,-1,2
 81 220 81 220 103 224 c 128,-1,3
 125 228 125 228 141.5 246.5 c 128,-1,4
 158 265 158 265 165.5 265 c 128,-1,5
 173 265 173 265 175.5 259.5 c 128,-1,6
 178 254 178 254 179 246.5 c 0,7,8
 181.636363636 226.727272727 181.636363636 226.727272727 209 215 c 0,9,10
 212 213.5 212 213.5 212 211.75 c 128,-1,11
 212 210 212 210 208.5 207 c 128,-1,12
 205 204 205 204 201 204 c 0,13,14
 179 204 179 204 161 238 c 1,15,16
 121 211 121 211 88 211 c 0,0,1
32 25 m 0,17,18
 32 14 32 14 46 14 c 0,19,20
 75 14 75 14 128 62 c 0,21,22
 131 66 131 66 134.5 66 c 128,-1,23
 138 66 138 66 138 61 c 0,24,25
 138 49 138 49 97.5 23 c 128,-1,26
 57 -3 57 -3 25 -3 c 0,27,28
 3 -3 3 -3 3 20 c 0,29,30
 3 33 3 33 12 45 c 128,-1,31
 21 57 21 57 29 66.5 c 128,-1,32
 37 76 37 76 43.5 84 c 128,-1,33
 50 92 50 92 70 115.5 c 128,-1,34
 90 139 90 139 101.5 153 c 128,-1,35
 113 167 113 167 117 170.5 c 128,-1,36
 121 174 121 174 126.5 174 c 128,-1,37
 132 174 132 174 135.5 171 c 128,-1,38
 139 168 139 168 139 164 c 128,-1,39
 139 160 139 160 133 154 c 2,40,-1
 58 69 l 2,41,42
 32 41 32 41 32 25 c 0,17,18
EndSplineSet
EndChar

StartChar: ocircumflex
Encoding: 244 244 77
Width: 213
Flags: HMW
HStem: -5 175 -5 194<42 178> 211 54
VStem: 4 34<36.5 65> 4 150<26.5 166.5> 188 22<135.5 145.5>
LayerCount: 2
Fore
SplineSet
124 211 m 0,0,1
 117 211 117 211 117 215.5 c 128,-1,2
 117 220 117 220 139 224 c 128,-1,3
 161 228 161 228 177.5 246.5 c 128,-1,4
 194 265 194 265 201.5 265 c 128,-1,5
 209 265 209 265 211.5 259.5 c 128,-1,6
 214 254 214 254 215 246.5 c 0,7,8
 217.636363636 226.727272727 217.636363636 226.727272727 245 215 c 0,9,10
 248 213.5 248 213.5 248 211.75 c 128,-1,11
 248 210 248 210 244.5 207 c 128,-1,12
 241 204 241 204 237 204 c 0,13,14
 215 204 215 204 197 238 c 1,15,16
 157 211 157 211 124 211 c 0,0,1
154 164 m 0,17,18
 154 123 154 123 187 115 c 1,19,20
 188 120 188 120 188 135.5 c 128,-1,21
 188 151 188 151 180 161.5 c 128,-1,22
 172 172 172 172 163 172 c 128,-1,23
 154 172 154 172 154 164 c 0,17,18
183 100 m 1,24,25
 134 105 134 105 131 154 c 1,26,27
 97 153 97 153 67.5 116.5 c 128,-1,28
 38 80 38 80 38 47 c 0,29,30
 38 10 38 10 77 10 c 0,31,32
 103 10 103 10 137 36.5 c 128,-1,33
 171 63 171 63 183 100 c 1,24,25
4 39 m 0,34,35
 4 79 4 79 46.5 124 c 128,-1,36
 89 169 89 169 133 170 c 1,37,38
 142 189 142 189 163.5 189 c 128,-1,39
 185 189 185 189 197.5 176.5 c 128,-1,40
 210 164 210 164 210 144.5 c 128,-1,41
 210 125 210 125 206 113 c 1,42,43
 235 113 235 113 271 127 c 128,-1,44
 307 141 307 141 314 148 c 1,45,-1
 319 143 l 1,46,47
 319 141 319 141 311 134 c 128,-1,48
 303 127 303 127 268 114 c 128,-1,49
 233 101 233 101 202 100 c 1,50,51
 186 58 186 58 146 26.5 c 128,-1,52
 106 -5 106 -5 63 -5 c 0,53,54
 4 -5 4 -5 4 39 c 0,34,35
EndSplineSet
EndChar

StartChar: ucircumflex
Encoding: 251 251 78
Width: 228
Flags: HMW
HStem: -3 21 -1 21G<13.5 46> 211 54
VStem: -5 29<25.5 41.5 25.5 42> 24 101<25.5 27.5 11.5 41.5>
LayerCount: 2
Fore
SplineSet
138 211 m 0,0,1
 131 211 131 211 131 215.5 c 128,-1,2
 131 220 131 220 153 224 c 128,-1,3
 175 228 175 228 191.5 246.5 c 128,-1,4
 208 265 208 265 215.5 265 c 128,-1,5
 223 265 223 265 225.5 259.5 c 128,-1,6
 228 254 228 254 229 246.5 c 0,7,8
 231.636363636 226.727272727 231.636363636 226.727272727 259 215 c 0,9,10
 262 213.5 262 213.5 262 211.75 c 128,-1,11
 262 210 262 210 258.5 207 c 128,-1,12
 255 204 255 204 251 204 c 0,13,14
 229 204 229 204 211 238 c 1,15,16
 171 211 171 211 138 211 c 0,0,1
125 20 m 0,17,18
 125 35.6666666667 125 35.6666666667 136 54 c 0,19,20
 136 55 136 55 136 56 c 128,-1,21
 136 57 136 57 135 56 c 0,22,23
 68 -1 68 -1 24 -1 c 0,24,25
 -5 -1 -5 -1 -5 19 c 128,-1,26
 -5 39 -5 39 23 76.5 c 128,-1,27
 51 114 51 114 79.5 143 c 128,-1,28
 108 172 108 172 106 168 c 1,29,30
 111 173 111 173 118 173 c 128,-1,31
 125 173 125 173 125 166.5 c 128,-1,32
 125 160 125 160 119 154 c 128,-1,33
 113 148 113 148 96.5 129.5 c 128,-1,34
 80 111 80 111 70.5 100 c 128,-1,35
 61 89 61 89 48.5 73.5 c 0,36,37
 24 43.12 24 43.12 24 29 c 0,38,39
 24 18 24 18 40 18 c 128,-1,40
 56 18 56 18 85 37 c 128,-1,41
 114 56 114 56 135 75.5 c 2,42,-1
 156 95 l 1,43,44
 198 132 198 132 213 154 c 1,45,46
 222 165 222 165 231 165 c 128,-1,47
 240 165 240 165 240 158 c 0,48,49
 240 152.090909091 240 152.090909091 214.5 125.045454545 c 0,50,51
 162.387096774 69.7741935484 162.387096774 69.7741935484 158 61 c 0,52,53
 148 38 148 38 148 30 c 0,54,55
 148 14 148 14 172.5 14 c 128,-1,56
 197 14 197 14 250 62 c 0,57,58
 253 66 253 66 256.5 66 c 128,-1,59
 260 66 260 66 260 61 c 0,60,61
 260 49 260 49 219.5 23 c 128,-1,62
 179 -3 179 -3 147 -3 c 0,63,64
 125 -3 125 -3 125 20 c 0,17,18
EndSplineSet
EndChar

StartChar: grave
Encoding: 96 96 79
Width: 262
Flags: HMW
HStem: 211 21G<180.5 198> 257 20G<87.5 93.5>
LayerCount: 2
Fore
SplineSet
203 216 m 0,0,1
 203 211 203 211 196 211 c 0,2,3
 170 211 170 211 126 231.5 c 128,-1,4
 82 252 82 252 82 268 c 0,5,6
 82 277 82 277 91.5 277 c 0,7,8
 101 277 101 277 112 266 c 0,9,10
 141 234 141 234 190 222 c 0,11,12
 203 219 203 219 203 216 c 0,0,1
EndSplineSet
EndChar

StartChar: agrave
Encoding: 224 224 80
Width: 262
Flags: HMW
HStem: -6 21G<50.5 87.5> -3 170<179.5 205.5 138 209.5> 12 139<71.5 188> 167 44 257 20G<165.5 171.5>
VStem: 19 34<31 59 31 59.5> 53 107
LayerCount: 2
Fore
SplineSet
281 216 m 0,0,1
 281 211 281 211 274 211 c 0,2,3
 248 211 248 211 204 231.5 c 128,-1,4
 160 252 160 252 160 268 c 0,5,6
 160 277 160 277 169.5 277 c 128,-1,7
 179 277 179 277 190 266 c 0,8,9
 219 234 219 234 268 222 c 0,10,11
 281 219 281 219 281 216 c 0,0,1
82 12 m 0,12,13
 121 12 121 12 169 52.5 c 128,-1,14
 217 93 217 93 225 122 c 1,15,16
 225 134 225 134 210 142.5 c 128,-1,17
 195 151 195 151 176 151 c 0,18,19
 130 151 130 151 91.5 111.5 c 128,-1,20
 53 72 53 72 53 42 c 128,-1,21
 53 12 53 12 82 12 c 0,12,13
185 167 m 0,22,23
 220.083333333 167 220.083333333 167 243 142 c 0,24,25
 244 142 244 142 259 157 c 1,26,27
 266 168 266 168 275 168 c 128,-1,28
 284 168 284 168 284 159 c 1,29,-1
 280 150 l 2,30,31
 277 145 277 145 240.5 101 c 128,-1,32
 204 57 204 57 198.5 49 c 128,-1,33
 193 41 193 41 193 25 c 0,34,35
 193 14 193 14 207 14 c 0,36,37
 236 14 236 14 289 62 c 0,38,39
 292 66 292 66 295.5 66 c 128,-1,40
 299 66 299 66 299 61 c 0,41,42
 299 49 299 49 258.5 23 c 128,-1,43
 218 -3 218 -3 186 -3 c 0,44,45
 164 -3 164 -3 164 20 c 0,46,47
 164 28 164 28 161.5 28 c 128,-1,48
 159 28 159 28 158 27 c 0,49,50
 108 -6 108 -6 63.5 -6 c 128,-1,51
 19 -6 19 -6 19 34 c 0,52,53
 19 76 19 76 69 121.5 c 128,-1,54
 119 167 119 167 185 167 c 0,22,23
EndSplineSet
EndChar

StartChar: ntilde
Encoding: 241 241 81
Width: 235
Flags: HMW
HStem: -3 180<153.5 226> -3 230<153.5 279.5> 209 43
VStem: 138 29<22 39.5> 214 31<127.5 145.5>
LayerCount: 2
Fore
SplineSet
245 149 m 1,0,1
 245 126 245 126 206 83.5 c 128,-1,2
 167 41 167 41 167 25 c 0,3,4
 167 14 167 14 181 14 c 0,5,6
 210 14 210 14 263 62 c 0,7,8
 266 66 266 66 269.5 66 c 128,-1,9
 273 66 273 66 273 61 c 0,10,11
 273 49 273 49 232.5 23 c 128,-1,12
 192 -3 192 -3 160 -3 c 0,13,14
 138 -3 138 -3 138 19 c 128,-1,15
 138 41 138 41 176 83.5 c 128,-1,16
 214 126 214 126 214 140 c 128,-1,17
 214 154 214 154 189.5 153.5 c 128,-1,18
 165 153 165 153 102 119 c 1,19,20
 88 106 88 106 41.5 52 c 128,-1,21
 -5 -2 -5 -2 -8 -3 c 1,22,23
 -19 -3 -19 -3 -19 7 c 1,24,25
 -18 10 -18 10 -4.5 27 c 128,-1,26
 9 44 9 44 13 48 c 2,27,-1
 94 149 l 1,28,29
 124 183 124 183 130 183 c 0,30,31
 142 183 142 183 142 173 c 1,32,33
 139 168 139 168 130 158 c 128,-1,34
 121 148 121 148 117 141 c 1,35,36
 174 177 174 177 209 177 c 0,37,38
 224 177 224 177 233 170 c 128,-1,39
 242 163 242 163 245 149 c 1,0,1
149.5 244.5 m 128,-1,41
 164 252 164 252 176 252 c 128,-1,42
 188 252 188 252 219.5 239.5 c 128,-1,43
 251 227 251 227 266 227 c 128,-1,44
 281 227 281 227 290.5 234 c 128,-1,45
 300 241 300 241 304 241 c 128,-1,46
 308 241 308 241 308 235 c 0,47,48
 308 224 308 224 291.5 216.5 c 128,-1,49
 275 209 275 209 263 209 c 128,-1,50
 251 209 251 209 218.5 222 c 128,-1,51
 186 235 186 235 174 235 c 128,-1,52
 162 235 162 235 152.5 227 c 128,-1,53
 143 219 143 219 139 219 c 128,-1,54
 135 219 135 219 135 223 c 0,55,40
 135 237 135 237 149.5 244.5 c 128,-1,41
EndSplineSet
EndChar

StartChar: tilde
Encoding: 732 732 82
Width: 235
Flags: HMW
HStem: 209 43
LayerCount: 2
Fore
SplineSet
54.5 244.5 m 128,-1,1
 69 252 69 252 81.5 252 c 128,-1,2
 94 252 94 252 125 239.5 c 128,-1,3
 156 227 156 227 171 227 c 128,-1,4
 186 227 186 227 195.5 234 c 128,-1,5
 205 241 205 241 209 241 c 128,-1,6
 213 241 213 241 213 235 c 0,7,8
 213 224 213 224 196.5 216.5 c 128,-1,9
 180 209 180 209 168 209 c 128,-1,10
 156 209 156 209 123.5 222 c 128,-1,11
 91 235 91 235 79 235 c 128,-1,12
 67 235 67 235 57.5 227 c 128,-1,13
 48 219 48 219 44 219 c 128,-1,14
 40 219 40 219 40 223 c 0,15,0
 40 237 40 237 54.5 244.5 c 128,-1,1
EndSplineSet
EndChar

